<?xml version="1.0" encoding="utf-8"?>
<!-- Generator: Adobe Illustrator 26.2.1, SVG Export Plug-In . SVG Version: 6.00 Build 0)  -->
<svg version="1.1" id="Layer_1" xmlns="http://www.w3.org/2000/svg" xmlns:xlink="http://www.w3.org/1999/xlink" x="0px" y="0px"
	 viewBox="0 0 555.7 430.2" style="enable-background:new 0 0 555.7 430.2;" xml:space="preserve">
<style type="text/css">
	.st0{fill:#FFD9E1;stroke:#FF5479;stroke-width:2;stroke-miterlimit:10;}
	.st1{fill:#D7ECFB;stroke:#39B4FF;stroke-width:2;stroke-miterlimit:10;}
	.st2{fill:#DDDDDD;}
</style>
<circle class="st0" cx="215.1" cy="215.1" r="214.1"/>
<line class="st0" x1="216.6" y1="3.8" x2="216.6" y2="210.4"/>
<circle class="st0" cx="463.7" cy="190.3" r="20.3"/>
<circle class="st1" cx="463.7" cy="239.4" r="20.3"/>
<path class="st2" d="M550.2,202.6h-49.9c-3.1,0-5.5-2.5-5.5-5.5v-15.5c0-3.1,2.5-5.5,5.5-5.5h49.9c3.1,0,5.5,2.5,5.5,5.5V197
	C555.7,200.1,553.2,202.6,550.2,202.6z"/>
<path class="st2" d="M550.2,252.7h-49.9c-3.1,0-5.5-2.5-5.5-5.5v-15.5c0-3.1,2.5-5.5,5.5-5.5h49.9c3.1,0,5.5,2.5,5.5,5.5v15.5
	C555.7,250.2,553.2,252.7,550.2,252.7z"/>
<g>
	<path d="M129.5,289.3v1.7h-0.2c-0.3,0-0.7-0.1-1-0.2c-0.4-0.1-0.7-0.3-1-0.5c-0.3-0.2-0.7-0.5-1-0.8c-0.3-0.3-0.6-0.6-0.8-1
		c0,0,0,0,0,0c0,0,0,0,0,0c-0.2,0.5-0.5,0.9-0.9,1.2c-0.4,0.3-0.8,0.6-1.3,0.8c-0.5,0.2-1,0.4-1.6,0.5c-0.6,0.1-1.1,0.1-1.7,0.1
		c-0.6,0-1.2,0-1.7-0.1c-0.5-0.1-1-0.2-1.5-0.3s-1-0.3-1.5-0.5c-0.5-0.2-1.1-0.5-1.7-0.8l0.9-1.4l0.7,0.4c0.4,0.2,0.8,0.4,1.4,0.6
		c0.5,0.2,1.1,0.3,1.7,0.4s1.2,0.1,1.8,0.1h0.2c0.5,0,1,0,1.5-0.1c0.6-0.1,1.1-0.3,1.5-0.5c0.4-0.2,0.7-0.6,0.9-0.9
		c0.1-0.2,0.1-0.4,0.1-0.6c0-0.1,0-0.4-0.1-0.6c-0.1-0.3-0.2-0.6-0.5-1l-5.1-7.7l1.4-0.9l5.5,8.3c0.3,0.5,0.7,1,1,1.5s0.7,0.9,1,1.3
		s0.7,0.7,1,0.9s0.7,0.3,1,0.3H129.5z"/>
	<path d="M153,291c-0.4,0-0.8,0-1.2-0.1c-0.4-0.1-0.8-0.2-1.1-0.3s-0.7-0.3-1-0.6c-0.3-0.2-0.5-0.5-0.7-0.8
		c-0.1,0.1-0.2,0.3-0.3,0.4c-0.1,0.1-0.2,0.2-0.3,0.3c-0.4,0.4-0.9,0.7-1.4,0.8s-1.1,0.3-1.6,0.3c-0.5,0-0.9,0-1.3-0.1
		c-0.4-0.1-0.7-0.2-1-0.3c-0.3-0.1-0.6-0.3-0.8-0.6c-0.3-0.2-0.5-0.5-0.7-0.8c-0.4,0.6-1,1-1.6,1.4c-0.6,0.3-1.3,0.5-2.1,0.5
		c-0.8,0-1.5-0.1-2.1-0.3c-0.6-0.2-1.1-0.6-1.5-1c-0.1-0.1-0.1-0.1-0.2-0.2c-0.1-0.1-0.1-0.2-0.2-0.3c-0.1,0.1-0.2,0.3-0.3,0.4
		c-0.1,0.1-0.2,0.2-0.3,0.3c-0.4,0.4-0.9,0.7-1.4,0.8s-1.1,0.3-1.7,0.3H129v-1.7h1.3c0.3,0,0.7-0.1,1-0.2c0.3-0.1,0.6-0.3,0.9-0.5
		s0.5-0.5,0.7-0.9s0.3-0.9,0.3-1.4v-4.5h1.7v4.5c0,1,0.2,1.7,0.7,2.3c0.5,0.5,1.2,0.8,2.3,0.8c0.3,0,0.7-0.1,1-0.2
		c0.3-0.1,0.6-0.3,0.9-0.5s0.5-0.5,0.6-0.9c0.2-0.4,0.2-0.9,0.2-1.4v-4.5h1.7v4.5c0,1,0.2,1.7,0.7,2.3c0.5,0.5,1.2,0.8,2.3,0.8
		c0.3,0,0.7-0.1,1-0.2c0.3-0.1,0.6-0.3,0.9-0.5s0.5-0.5,0.7-0.9c0.2-0.4,0.3-0.9,0.3-1.4v-4.5h1.7v4.5c0,2,1.1,3,3.2,3h0.7v1.7H153z
		 M140.2,276.3l-1.7,1.7l-1.7-1.7l1.7-1.7L140.2,276.3z M143,272.5l-1.7,1.7l-1.7-1.7l1.7-1.7L143,272.5z M145.7,276.2l-1.7,1.7
		l-1.7-1.7l1.7-1.7L145.7,276.2z"/>
	<path d="M160.2,280c0.1,0.4,0.2,0.8,0.3,1.3c0.1,0.5,0.2,1,0.3,1.5c0.1,0.5,0.2,1,0.2,1.5c0.1,0.5,0.1,1,0.1,1.5v0.1
		c0,0.6-0.1,1.2-0.3,1.8c-0.2,0.6-0.5,1.2-0.8,1.6c-0.4,0.5-0.8,0.9-1.4,1.2s-1.1,0.4-1.8,0.4h-3.5v-1.7h3.5c0.4,0,0.8-0.1,1.1-0.3
		s0.6-0.5,0.8-0.8c0.2-0.3,0.4-0.7,0.5-1.1c0.1-0.4,0.1-0.8,0.1-1.1v-0.1c0-0.4,0-0.9-0.1-1.4c-0.1-0.5-0.1-0.9-0.2-1.4
		c-0.1-0.5-0.2-0.9-0.3-1.3s-0.2-0.8-0.3-1.2L160.2,280z M156.6,274.3l1.7-1.8l1.8,1.8l-1.8,1.8L156.6,274.3z"/>
	<path d="M202.8,289.3v1.7h-0.6c-0.6,0-1.2-0.1-1.7-0.3c-0.5-0.2-1-0.4-1.4-0.8c-0.1-0.1-0.2-0.2-0.3-0.3c-0.1-0.1-0.2-0.2-0.3-0.3
		c0,0-0.1,0.1-0.1,0.1c0,0-0.1,0.1-0.1,0.1c-0.9,0.9-2.2,1.4-4,1.4h-15.9c-0.6,0-1.1-0.1-1.6-0.3s-1-0.5-1.4-0.8
		c-0.2-0.1-0.3-0.3-0.5-0.5c-0.2-0.2-0.3-0.5-0.4-0.8c-0.1-0.3-0.2-0.6-0.3-1c-0.1-0.4-0.1-0.8-0.1-1.2c0-0.3,0-0.6,0.1-1
		c0-0.3,0.1-0.7,0.2-1c0.1-0.3,0.1-0.7,0.2-1c0.1-0.3,0.2-0.6,0.2-0.9c0.1-0.3,0.1-0.5,0.2-0.6s0.1-0.3,0.1-0.3l1.6,0.5
		c0,0,0,0.2-0.1,0.5s-0.2,0.7-0.3,1.1c-0.1,0.4-0.2,0.9-0.3,1.4c-0.1,0.5-0.1,0.9-0.1,1.3c0,0.6,0.1,1,0.2,1.4
		c0.2,0.4,0.4,0.7,0.6,0.9s0.6,0.4,0.9,0.5c0.3,0.1,0.7,0.2,1,0.2h15.8c1.3,0,2.3-0.3,2.8-0.9c0.4-0.4,0.6-1,0.6-1.8V282h1.7v4.6
		c0,0.5,0.1,0.9,0.3,1.2c0.2,0.3,0.4,0.6,0.7,0.8c0.3,0.2,0.6,0.4,1,0.4c0.3,0.1,0.7,0.1,1,0.1H202.8z M183.8,280l-1.7-1.7
		c0.3-0.3,0.6-0.6,0.8-0.8c0.2-0.2,0.5-0.5,0.8-0.8l1.7,1.7L183.8,280z M189.3,280.1l-1.7-1.7c0.3-0.3,0.6-0.6,0.8-0.8
		s0.5-0.5,0.8-0.8l1.7,1.7L189.3,280.1z"/>
	<path d="M209.6,276.2c0.8,0,1.4,0.1,2,0.4c0.6,0.3,1,0.6,1.4,1c0.4,0.4,0.7,0.9,1,1.5c0.3,0.6,0.5,1.2,0.6,1.8
		c0.1,0.6,0.2,1.3,0.3,2c0.1,0.7,0.1,1.3,0.1,2c0,1.2-0.2,2.2-0.5,2.9c-0.4,0.8-0.9,1.4-1.5,1.9c-0.7,0.5-1.4,0.8-2.4,1
		c-0.9,0.2-2,0.3-3.1,0.3h-5.3v-1.7h5.3c0.8,0,1.5-0.1,2.2-0.2c0.7-0.1,1.2-0.2,1.7-0.4c0.5-0.2,0.9-0.5,1.2-1s0.5-1,0.6-1.8
		c-0.4,0.1-0.8,0.1-1.4,0.2s-1.1,0.1-1.6,0.1c-0.9,0-1.6-0.1-2.3-0.3c-0.7-0.2-1.3-0.5-1.8-0.9c-0.5-0.4-0.9-0.9-1.2-1.5
		c-0.3-0.6-0.4-1.3-0.4-2.1c0-0.7,0.1-1.4,0.4-2c0.2-0.6,0.6-1.2,1-1.7c0.4-0.5,1-0.9,1.6-1.1c0.6-0.3,1.2-0.4,1.9-0.4H209.6z
		 M210.3,284.5c0.3,0,0.6,0,0.8,0c0.3,0,0.6,0,0.8-0.1c0.3,0,0.5-0.1,0.7-0.1s0.4-0.1,0.6-0.1c0-0.4,0-0.8-0.1-1.3
		c0-0.5-0.1-0.9-0.2-1.4c-0.1-0.5-0.2-0.9-0.4-1.4c-0.2-0.4-0.4-0.8-0.7-1.2c-0.3-0.3-0.6-0.6-1-0.8c-0.4-0.2-0.9-0.3-1.4-0.3
		c-0.6,0-1.1,0.1-1.5,0.3c-0.4,0.2-0.8,0.5-1,0.8c-0.3,0.3-0.5,0.7-0.6,1.2c-0.1,0.4-0.2,0.9-0.2,1.3c0,0.6,0.1,1.1,0.3,1.5
		c0.2,0.4,0.5,0.7,0.8,0.9c0.4,0.2,0.8,0.4,1.3,0.5C209.2,284.5,209.8,284.5,210.3,284.5z M207.6,270.8l1.7-1.8l1.8,1.8l-1.8,1.8
		L207.6,270.8z"/>
	<path d="M224.2,291c-1.1,0-1.9-0.1-2.6-0.4c-0.6-0.3-1.1-0.6-1.5-1.1c-0.3-0.5-0.6-1.1-0.7-1.8c-0.1-0.7-0.2-1.6-0.2-2.5v-13.5h1.7
		v13.5c0,0.8,0,1.5,0.1,2.1c0.1,0.5,0.2,1,0.4,1.3s0.5,0.5,1,0.7c0.4,0.1,1,0.2,1.8,0.2h0.2v1.7H224.2z"/>
	<path d="M233,280c0.1,0.4,0.2,0.8,0.3,1.3c0.1,0.5,0.2,1,0.3,1.5c0.1,0.5,0.2,1,0.2,1.5c0.1,0.5,0.1,1,0.1,1.5v0.1
		c0,0.6-0.1,1.2-0.3,1.8c-0.2,0.6-0.5,1.2-0.8,1.6s-0.8,0.9-1.4,1.2c-0.5,0.3-1.1,0.4-1.8,0.4H224v-1.7h5.6c0.4,0,0.8-0.1,1.1-0.3
		c0.3-0.2,0.6-0.5,0.8-0.8c0.2-0.3,0.4-0.7,0.5-1.1c0.1-0.4,0.1-0.8,0.1-1.1v-0.1c0-0.4,0-0.9-0.1-1.4c-0.1-0.5-0.1-0.9-0.2-1.4
		c-0.1-0.5-0.2-0.9-0.3-1.3c-0.1-0.4-0.2-0.8-0.3-1.2L233,280z M226.8,297.8l-1.7-1.7l1.7-1.7l1.7,1.7L226.8,297.8z M232.4,297.9
		l-1.7-1.7l1.7-1.7l1.7,1.7L232.4,297.9z"/>
	<path d="M264,279.1c0.4,0,0.9,0,1.3,0.1s0.9,0.2,1.4,0.3l-0.5,1.6c-0.8-0.2-1.5-0.3-2.2-0.3c-0.9,0-1.7,0.1-2.5,0.4
		c-0.8,0.3-1.5,0.7-2.1,1.3c-0.7,0.7-1.2,1.5-1.5,2.4c-0.2,0.6-0.3,1.2-0.3,1.8c0,0.4,0,0.7,0.1,1.1c0.1,0,0.4,0.1,0.7,0.2
		c0.3,0.1,0.7,0.2,1.1,0.3c0.4,0.1,0.9,0.2,1.3,0.4s0.9,0.2,1.4,0.4c0.4,0.1,0.8,0.2,1.2,0.3c0.4,0.1,0.7,0.2,0.9,0.2
		c0.4,0.1,0.6,0.2,0.9,0.4c0.2,0.1,0.4,0.3,0.5,0.4c0.1,0.2,0.2,0.3,0.2,0.5s0,0.4,0,0.6c0,0.3,0,0.7-0.1,1.1c0,0.4-0.1,0.8-0.2,1.2
		s-0.2,0.8-0.4,1.2c-0.2,0.4-0.4,0.8-0.7,1.1c-0.4,0.4-0.8,0.8-1.2,1.1s-0.9,0.5-1.4,0.7s-1,0.3-1.6,0.4c-0.5,0.1-1.1,0.1-1.7,0.1
		h-3.5c-0.6,0-1.2-0.1-1.8-0.2c-0.6-0.1-1.2-0.4-1.7-0.7s-1-0.7-1.5-1.1c-0.5-0.4-0.9-0.9-1.2-1.4c-0.5-0.8-0.8-1.6-1-2.6
		c-0.2-0.7-0.3-1.5-0.3-2.3c0-0.2,0-0.3,0-0.5c0.1-2.2,0.8-4.7,2-7.3l1.5,0.7c-0.5,1.1-1,2.2-1.3,3.3c-0.3,1-0.5,2-0.6,3
		c0,0.3,0,0.6,0,0.8c0,0.6,0.1,1.3,0.2,2c0.1,0.7,0.4,1.4,0.8,2c0.5,0.8,1.2,1.5,2.1,1.9c0.8,0.5,1.8,0.7,2.8,0.7h3.4
		c1.1,0,2-0.1,2.7-0.4s1.3-0.6,1.8-1.2c0.2-0.2,0.4-0.5,0.6-0.8s0.3-0.7,0.4-1c0.1-0.3,0.1-0.7,0.2-1.1c0-0.1,0-0.3,0-0.4
		c0-0.2,0-0.4,0-0.6l-7.9-2.1l-0.1-0.5c-0.2-0.6-0.3-1.3-0.3-1.9c0,0,0-0.2,0-0.6c0-0.4,0.1-0.8,0.3-1.5s0.4-1.2,0.8-1.8
		c0.3-0.6,0.7-1.1,1.2-1.6c0.4-0.4,0.8-0.7,1.2-1c0.4-0.3,0.9-0.5,1.4-0.7c0.5-0.2,1-0.3,1.5-0.4c0.5-0.1,0.9-0.1,1.4-0.1H264z"/>
	<path d="M276.1,291.1c-0.7,0-1.4-0.1-2.1-0.2c-0.7-0.1-1.4-0.3-2-0.5c-0.6-0.2-1.2-0.4-1.6-0.7l-0.7-0.4l0.9-1.4l0.7,0.4
		c0.4,0.2,0.8,0.4,1.4,0.6c0.5,0.2,1.1,0.3,1.7,0.4c0.6,0.1,1.2,0.1,1.8,0.1h0.2c0.5,0,1,0,1.5-0.1c0.6-0.1,1.1-0.3,1.5-0.5
		c0.4-0.3,0.7-0.6,0.8-0.9c0.1-0.2,0.1-0.5,0.1-0.7c0-0.1,0-0.3-0.1-0.6c0-0.3-0.2-0.6-0.5-1c-0.7-1-1.3-1.9-1.8-2.7
		c-0.5-0.8-0.9-1.4-1.3-1.9c-0.3-0.5-0.6-0.9-0.8-1.3c-0.2-0.3-0.4-0.6-0.5-0.7c-0.1-0.2-0.2-0.3-0.2-0.3c0-0.1-0.1-0.1-0.1-0.1
		l-0.4-0.7l1.4-0.9c0.1,0.1,0.2,0.3,0.3,0.4s0.2,0.3,0.4,0.5s0.3,0.5,0.6,0.9c0.2,0.3,0.5,0.8,0.9,1.3c0.3,0.5,0.8,1.2,1.3,1.9
		c0.5,0.7,1.1,1.6,1.8,2.7c0.4,0.7,0.7,1.3,0.8,2c0,0.2,0,0.3,0,0.5c0,0.5-0.1,0.9-0.3,1.4c-0.3,0.6-0.7,1.2-1.3,1.6
		s-1.4,0.7-2.3,0.9C277.4,291,276.7,291.1,276.1,291.1z"/>
	<path d="M280,298.5v-1.7h1.9c2.1,0,3.7-0.6,4.7-1.7c0.9-1,1.4-2.6,1.4-4.6v-8.7h1.7v8.7c0,2.6-0.6,4.6-1.9,5.9
		c-1.3,1.3-3.2,2-5.8,2H280z"/>
	<path d="M298.8,279.2c0.9,0,1.7,0.2,2.4,0.6c0.7,0.3,1.2,0.8,1.6,1.4c0.4,0.6,0.7,1.3,0.9,2.1c0.2,0.8,0.3,1.7,0.3,2.7v3.4h2.3v1.7
		h-2.3v0.2c0,1.2-0.2,2.2-0.6,3.2c-0.4,0.9-1,1.7-1.8,2.3c-0.8,0.6-1.7,1.1-2.8,1.4c-1.1,0.3-2.3,0.4-3.6,0.4h-0.8v-1.7h0.8
		c1.1,0,2.1-0.1,3-0.3c0.9-0.2,1.6-0.5,2.2-1c0.6-0.4,1.1-1,1.4-1.8s0.5-1.7,0.5-2.8h-3.1c-0.8,0-1.5-0.1-2.2-0.3s-1.3-0.5-1.9-0.9
		c-0.5-0.4-1-1-1.3-1.6c-0.3-0.6-0.5-1.4-0.5-2.2c0-1,0.1-1.8,0.3-2.6c0.2-0.8,0.5-1.5,0.9-2.1s1-1,1.6-1.4
		C297.1,279.5,297.9,279.3,298.8,279.2z M302.4,289.3v-3.4c0-0.7-0.1-1.4-0.2-2s-0.3-1.1-0.6-1.6c-0.3-0.4-0.6-0.8-1.1-1
		s-1-0.4-1.7-0.4c-0.7,0-1.3,0.1-1.7,0.4c-0.5,0.3-0.8,0.6-1.1,1.1c-0.3,0.4-0.5,1-0.6,1.6s-0.2,1.3-0.2,2c0,0.6,0.1,1.2,0.3,1.6
		c0.2,0.4,0.5,0.8,0.9,1c0.4,0.3,0.8,0.5,1.4,0.6c0.5,0.1,1.1,0.2,1.7,0.2H302.4z"/>
	<path d="M321.8,271.1l-11.4,5c0.6,0.5,1.4,1.2,2.4,2.2s2.2,2.1,3.5,3.5c1.1,1.2,1.9,2.4,2.3,3.5c0.2,0.6,0.3,1.2,0.3,1.7v0.1
		c0,0.5-0.1,1-0.3,1.5c-0.1,0.2-0.3,0.5-0.5,0.8c-0.2,0.3-0.5,0.6-0.9,0.8c-0.4,0.2-0.9,0.5-1.5,0.6s-1.3,0.3-2.2,0.3h-7.7v-1.7h7.7
		c1,0,1.8-0.1,2.5-0.4c0.5-0.3,0.9-0.6,1.1-1c0.1-0.2,0.2-0.5,0.2-0.8c0-0.4-0.1-1-0.4-1.7c-0.3-0.7-0.9-1.5-1.8-2.5
		c-1-1-1.9-1.9-2.7-2.7s-1.5-1.4-2.1-2c-0.6-0.5-1.1-0.9-1.4-1.2s-0.5-0.4-0.5-0.4l0.2-1.4l12.6-5.6L321.8,271.1z"/>
	<path d="M318.4,298.5v-1.7h1.9c2.1,0,3.7-0.6,4.7-1.7c0.9-1,1.4-2.6,1.4-4.6v-8.7h1.7v8.7c0,2.6-0.6,4.6-1.9,5.9
		c-1.3,1.3-3.2,2-5.8,2H318.4z"/>
</g>
</svg>
