<svg xmlns="http://www.w3.org/2000/svg" viewBox="0 0 50 50">
  <path d="M2.9902344 1.9902344 A 1.0001 1.0001 0 0 0 2.2929688 3.7070312L46.292969 47.707031 A 1.0001 1.0001 0 1 0 47.707031 46.292969L44.414062 43L48 43L48 7L8.4140625 7L3.7070312 2.2929688 A 1.0001 1.0001 0 0 0 2.9902344 1.9902344 z M 2 7L2 43L38.707031 43L36.707031 41L4 41L4 33.435547L17.003906 21.296875L15.589844 19.882812L4 30.699219L4 9L4.7070312 9L2.7070312 7L2 7 z M 10.414062 9L46 9L46 36.585938L34.707031 25.292969C34.316031 24.901969 33.683969 24.901969 33.292969 25.292969L30 28.585938L10.414062 9 z M 35 15 A 3 3 0 0 0 35 21 A 3 3 0 0 0 35 15 z M 34 27.414062L46 39.414062L46 41L42.414062 41L31.414062 30L34 27.414062 z M 27.146484 31.439453L25.292969 33.292969C24.901969 33.683969 24.901969 34.316031 25.292969 34.707031C25.683969 35.098031 26.316031 35.098031 26.707031 34.707031L28.560547 32.853516L27.146484 31.439453 z" fill="#5B5B5B" />
</svg>