<svg xmlns="http://www.w3.org/2000/svg" width="204.114" height="157.017" viewBox="0 0 204.114 157.017">
    <defs>
        <style>
            .cls-2{fill:#4db757}
        </style>
    </defs>
    <g id="Group_12029" opacity="0.5" transform="translate(0 .013)">
        <g id="Group_10001">
            <g id="Group_9999">
                <path id="Path_16390" d="M103.941 18.049h1.271v.834c.959.1 1.167-.521 1.709-.834a16.387 16.387 0 0 0 6.148.834v1.9c.813.083.083-1.334 1.271-.834.021.6-.709.417-.438 1.271-1.6.25-1.959-.729-3.606-.438-.167-.813 1-.271 1.5-.438V19.7c-.729-.563-2.23-.1-1.917 1.063-.6-.75-2.73.063-3.168-.834-.563 1-1.459-.063-2.334 0-.354-1.292.083-.855-.438-1.876z" class="cls-2"/>
                <path id="Path_16391" d="M137.518 31.45a4.437 4.437 0 0 0 2.543.438c-.083.625-.875.542-.625 1.5-.292-1.063-2-.688-2.772-1.271-.062-.625 1.209.146.854-.667z" class="cls-2"/>
                <path id="Path_16392" d="M142.833 36.536h1.267c-.083.354.167.417.438.438-.458.292-.625.959-1.271 1.063-.083-.563-.709-.6-.438-1.5z" class="cls-2"/>
                <path id="Path_16393" d="M144.938 37.161c.188-.021.188.083.208.208-.083.563 1.188-.188.834.646-.959-.333-.646.625-1.5.438-.25-.875.521-.688.459-1.292z" class="cls-2"/>
                <path id="Path_16394" d="M135.394 58c-.292.875.458.688.438 1.271h-1.063c-.023-.622-.044-1.31.625-1.271z" class="cls-2"/>
                <path id="Path_16395" d="M44.456 63.506v1.709a9.793 9.793 0 0 0-2.334.646c.688-.896.792-2.334 2.334-2.355z" class="cls-2"/>
                <path id="Path_16396" d="M91.831 93.039c0 .792-.959.625-1.709.625-.209-.164 1.313-.396 1.709-.625z" class="cls-2"/>
                <path id="Path_16397" d="M102.044 103.878a1.025 1.025 0 0 1 1.25.732.838.838 0 0 1 .021.1.994.994 0 0 1-1.237-.668 1.063 1.063 0 0 1-.034-.164z" class="cls-2"/>
                <path id="Path_16398" d="M98.209 153.378c.646-.208.375.458.438.834h-.834c-.271-.667.667-.167.4-.834z" class="cls-2"/>
                <path id="Path_16399" d="M30.221 45.873c.459-.1.292.417.646.438.438-.333.292-1.834-.208-1.9.875-1.542 1.522-3.272 2.334-4.877H34.7c-.167.792.354.917.208 1.709.98-.1.208-1.626-.208-1.709.146-.875.542-1.438.625-2.334-.875-.25.021 1.292-1.063.834.563-.438.354-1.417.646-1.9.063-.083.75-.208.834-.438a3.3 3.3 0 0 1 .834-1.271c.438-.479.354-1.542.625-1.9.25-.292 1-.292 1.271-.646.146-.167-.1-.646 0-.834.146-.292 1.021-.521 1.271-.834.709-1-.479-.333.438-.438.521-.063-.021-1.459.208-1.063.709-.208.333.646.438 1.063.688.271.167-.688.834-.438-.188-.438-.834-.438-.834-1.063 7.86-8.733 16.718-16.445 28.473-21.238.333-.25.521-.625.834-.834.959-.292 0 1.271.625 1.271.459-.021.083-.9.208-1.271.625 0 1.688-1.438 2.1-.208.625-.125-.208-.459 0-.834 1.688-.729 3.772-1.063 5.315-1.9.688-.271.167.688.834.438 1.626-.917 4.981-2.334 6.815-1.709.167-.333.688-.333.646-.834 3.231.25 5.127-.834 8.3-.646.25.688-.333.521-.438.834.021.459.9.083 1.271.208-.75-.813.208-.6.438-1.5 2.063.271 5.231-.542 6.586.438 1.146-.542 1.146-.062 2.772-.438.542 1.772 2.334-.167 4.252.438v1.5c.834.083 1.271-.292 1.271-1.063.875.1 2.147-.167 1.917 1.063.646.208.375-.459.438-.834 3.606.354 6.565 1.376 9.754 2.1.292.813-.6.417-.438 1.063-.75.333-.146-.729-.646-.646-.1.688-1.1.459-.834 1.5a11.044 11.044 0 0 1 2.772-.834c.083-.354-.167-.417-.438-.438 2.355-.813 3.71 1.251 5.94 1.271v.834c.813.292.417-.6 1.063-.438 4.96 2.272 9.567 4.877 14.235 7.441-.021.375.271.459.208.834 1.521-.292 1.167 1.251 2.543 1.063-.021 1.542.167 3.272-.438 4.252-.625 0-1.292.021-1.271-.625.459-.1.292.417.646.438.354-.208.167-.98.625-1.063-.417-.6-1.271.146-1.271.646-5.664-3.751-11.25-7.582-18.461-9.751v-.832c-.646-.167-.25.729-1.063.438.083-.354-.167-.417-.438-.438-.1-.459.417-.292.438-.646-.021-.25-.375-.188-.625-.208-.563-.083.188 1.188-.646.834a1.963 1.963 0 0 1 .834-1.709c-.25-.25-.6-.375-.438-1.063h-.835c.813.875-.333 1.1.438 1.917-.459-.1-.292.417-.646.438a18.563 18.563 0 0 0-4.877-1.5c.063-.542.083-1.063-.625-.834-.271-.688.688-.167.438-.834-.688-.271-.167.688-.834.438-.021.6.729.417.438 1.271a2.873 2.873 0 0 0-2.1-.438V4.363c-.271 1.6-3.272.709-3.814 0-1 .792-2.709-.438-4.669 0 .167-.646-.729-.25-.438-1.063-.459-.1-.417.292-.438.646-7-.542-14.381.75-19.738.438-.792.333.479.333.208.834-8.483.729-14.11 4.314-21.051 6.586-2.5 2.689-6.961 3.356-9.15 6.378-1.355-.208-1 1.251-2.334 1.063-.333.646-1 .98-1.271 1.709-1.647.542-2.876 2.355-4.481 3.4a8.256 8.256 0 0 0-2.98 3.606h-.834C45.688 30 43.4 29.94 43.166 32H42.1v1.5c-3.418 3.231-5.586 7.733-7.858 12.13-.459.1-.292-.417-.625-.438-.563-.083.188 1.188-.646.834-.271.688.688.167.438.834-.875.292-.688-.459-1.271-.438-.021-.6.709-.417.438-1.271.875.292.688-.459 1.271-.438-.208-.208-.417-.438-.625-.625-.521-.083.1.98-.646.625.292-.813-.6-.417-.438-1.063-.6.417.417 1 .438 1.5-1.1.021-.563 1.709-1.271 2.1-.917 0-.646-1.042-1.084-1.4zM59.755 14.88c-.646.146-.98.6-.834 1.5.834.042.938-.645.834-1.5zM98.621 2.312c.792.459.959-1.084.208-.834.071.396-.224.459-.208.834zm-4.877 1.271a1 1 0 0 0 .866-1.118.99.99 0 0 0-.032-.153c-.6.083-.457.959-.829 1.272zm24.427 1.5V3.812c-.417.063-.459-.25-.834-.208.188.6.271 1.292.834 1.48zm6.378 1.063c.146-.9-.208-1.355-.834-1.5-.12.9-.016 1.564.839 1.5zm2.334.854h.625c-.083-.542-.646-.625-1.063-.834-.245.668.714.128.443.835zm4.252 1.271h.834c-.063-.375.208-1.063-.438-.834.313.688-.667.146-.4.834zm2.543.625c.438-.146.813-.333.625-1.063-.475-.039-.725 1.21-.621 1.061zm.646 0c-.083.646.563 1.688.646 1.5-.438-.625.188-2.188-.208-1.917-.041.252-.079.5-.433.415zM44.452 29.072h-1.271c-.16 1.294 1.171.423 1.275 0zm-11.021 12.57H34.7v-.834c-.688-.271-.167.688-.834.438-.021-.25-.063-.479-.438-.438z" class="cls-2"/>
                <path id="Path_16400" d="M161.3 28.24c-.333.021-.813-.1-.834.208.417.729.834-.271 1.271-.208.021.625.646.625.834 1.063.1.459-.417.292-.438.625.333.792.333-.479.834-.208.521.9.875 1.98 1.9 2.334v1.063c.063.292.542.167.834.208-.021.73.521.9.625 1.5 4.294-.333 7.5-1.709 11.046-2.772-.188.813.354.917.646 1.271.688-.354-.646-.459-.208-1.271 4.669-.917 8.525-2.668 13.381-3.4-.146 1.73.959 2.9.208 4.043.063.292.542.167.834.208-.167 2.73 2.063 5.252 1.271 7.211 1.23 1.188 1.251 3.543 1.918 5.315-.6.021-.417-.709-1.271-.438 1.959.959 2.6 3.606 2.1 6.378.625 0-.292-1.563.646-1.271-.292 2.272 1.772 4.21.834 5.732 2.105 2.585 1.6 7.733 3.606 10.421.208 4.523 2.043 7.462 2.772 11.463-8.316 2.168-16.653 4.314-24.865 6.586.021.729.1 1.521-.438 1.709 1.146 1.167-.542 2.73 0 4.669-.98 2.439-.709 5.315-1.5 7.858-.1.375-.75.688-.834 1.063-.354 1.355-.25 2.668-.625 4.043-.063.208-.75.729-.834 1.063-.146.521.1 1 0 1.271s-.709.333-.834.646c-.167.375.146.875 0 1.271-.1.333-.729.542-.834.834-.25.6 0 1.355-.208 1.917-.146.334-.646.334-.834.625-.688 1.1-.9 2.855-1.5 4.043-.25.479-1 .959-1.271 1.5-.1.208.125.646 0 .834-.146.25-.709.188-.834.438-.521.792-.542 1.98-1.063 2.772-.417.563-1.292.875-1.709 1.5-.354.521-.188 1.334-.625 1.9-.292.417-1 .459-1.271.834-.792 1.188-1.251 3-2.772 3.606v-.834c-.542-.021-.521.479-.834.625.063.292.542.188.834.208-2.355 3.856-6.315 6.148-8.921 9.754-.834.354-.083-.917-.646-.834-.459.021-.083.9-.208 1.271-.688.271-.167-.688-.834-.438-.271.688.688.167.438.834-2.73 1.73-5.065 3.856-7.858 5.523-.646.208-.375-.459-.438-.834-.6.459.208.98-.208 1.5-5.586 2.689-10.5 6.065-17.4 7.441v-1.063c-1.146.25-.208.917 0 1.5-1.1-.021-2.272 1.1-2.543-.438-.459.021-.083.9-.208 1.271a3.045 3.045 0 0 0-2.543.834c-.646.208-.375-.479-.438-.834-.813.1-.729 1.1-1.709 1.063.083-.438-.063-.688-.438-.646-.542 1.084-2.334.917-3.4 1.5-.167-.646.729-.271.438-1.063-1.459 1.438-4.564 1.251-6.815 1.9-1.876-.729-5.023.333-8.712 0 .792-.75.271-1.688-.208-2.334.834-.333.438.542.834.646.292-.208.271-.709.646-.834-.1-.688-1.188-.354-1.271-1.063h2.105c.271.98-.709.709-.438 1.709.625.271.479-1.772.834-.438.459-.021.083-.9.208-1.271.646-.208 2.168.459 2.105-.438.459.917.75-.375 1.9 0v2.111c-.875.25.021-1.292-1.063-.834-.292.083-.167.542-.208.834 1.626 1.1 1.521-1.334 2.772-1.271.167.646-.729.271-.438 1.063.083.479 1.251-.1.834.834.813.333.063-.959.834-.625-.125.709.438.709.646 1.063.292-.063.188-.542.208-.834-.063-.292-.542-.188-.834-.208-.25-1.334.75-1.334 0-2.1 1.1-.1 3.147-1.021 4.043 0 1.1-1.146 3.877-.646 5.315-1.5.688-.271.167.688.834.438.083.354-.167.417-.438.438.292.438.729-.208 1.271.208.188-.834-.729-.542-.438-1.5 2.73-.6 5.669-.98 7.649-2.334.459-.1.292.417.625.438.292-1.063 2.522-1.959 3.21-1.271 3.9-2.689 8.545-4.648 12.756-7.024V140c1.063.063 1.438-.917 2.334-.438-.146-.208-.479-.208-.438-.625 3.043-1.355 4.314-4.481 7.649-5.523v-.834c.333.25.521.6.834.834-.709-1.98 2.376-3.085 2.98-5.106 1.188.208 1.188-.792 1.5-1.5.375-.021.459.271.834.208a3.318 3.318 0 0 1 1.9-2.98c-.146.709.438.709.625 1.063.542-.417-.688-.875-.625-1.5.9-1.23 1.959-2.314 2.772-3.606.188.688-.188.813-.438 1.063l.646.646a15.9 15.9 0 0 1 1.063-4.481c1.084.375.834-.563 1.5-.625.271-.688-.688-.167-.438-.834 4.69-7.211 7.357-16.445 9.567-26.115-.146-.208-.479-.208-.438-.646.959-.333.188-2.355.438-3.4-.959-.167-1.271.271-2.105.208.25-.875-.729-.542-.834-1.063-.375-.083-.375 1.188.208.834a31.49 31.49 0 0 1-9.754 2.98c-.021-.75-.438-1.146-1.271-1.063.083.542.688.6.438 1.5-3.439.417-7.045 2.814-10.421 1.9-.292.063-.167.542-.208.834-12.985 3.668-26.282 7-39.288 10.63-.729.167-.354-.792-.834-.834-.459.021-.083.9-.208 1.271-2.98.188-5.106 1.438-7.441 1.271-.1-.9 1.626.063 1.063-1.271.688-.188.813.188 1.063.438.479-.083-.1-1.251.834-.834a4.485 4.485 0 0 1-.208-1.9c.271.563.813.542.646-.438.709-.083 1.292-.021 1.5.438.292-.063.167-.542.208-.834 5.69-1.1 10.8-2.793 16.132-4.252a12.563 12.563 0 0 0 5.732-1.709c1.146.834 2.418-.9 4.252-.625.188.688-.542.438-.646.834.9.271 1.251-1.23 2.334-1.709.625-.271 1.438.188 1.917-.438.1.375-.25 1.251.208 1.271.459-.021.083-.9.208-1.271 4.877-1.146 9-3.043 14.652-3.4 1.292-1.647 4.669-1.292 6.378-2.543 1.959.6 4.585-1.417 7.211-1.5-.167 1.23.959 1.167 1.271 1.9.542-.9-1.292-1.251-1.271-2.334 1-.292.813.6 1.271.834.459-.021.083-.9.208-1.271 1.063.521 2.043-.9 2.1 0 1.98-.813 5.023-2 7.024-1.5.271-.688-.688-.167-.438-.834.479-.167 1.647.375 1.5-.438 2.584.25 6.628-1.542 9.546-2.334.271.688-.688.167-.438.834.917.146.625-.917 1.063-1.271 4.564.479 7.858-3.335 11.255-1.9.646-.459.98-1.98 0-2.334-.625 0 .292 1.563-.646 1.271-.1-4.752-3.335-8.525-2.334-12.964.75-.333.146.729.625.625.75-.375-.375-.6-.208-1.063.25.021.375-.063.438-.208.021-.459-.75-.1-1.063-.208-.459.021-.083.9-.208 1.271-2-4.085-2.543-9.629-4.252-14.027-.25-.9.354-.917.438-1.5-.063-.292-.542-.167-.834-.208-.917-4.314-2.188-8.274-3.168-12.526 1.167.75.563-1.167 1.709-1.063a1.361 1.361 0 0 1-1.063-1.063c-.479.167-.083 1.188-.208 1.709-1.521.459-.459-1.647-1.5-1.709.083-.459 1.146-.167 1.271 0 .417-.208.063-1.23.646-1.271l-.646-.646c-.563-.167.167 1-.438.834-.875.063-.1-.438-.208-.834-1.251-.333-1.1.729-1.9.834.1.688.729.813.834 1.5-1.084.75-2.689 1-3.814 1.709-.834.354-.083-.917-.625-.834-.354.354-.188 1.23-1.063 1.063v-1.5h-.646c-.438.333-.083 1.5-.438 1.9-8.045 1.792-15.361 4.314-23.573 5.94v-1.5c-.375-.021-.459.271-.834.208.188.521.646.792.438 1.709-14.465 3.814-29.054 7.5-43.123 11.693-2.272-.542-3.606 1.792-5.315.438-.208.417-.438.834-.646 1.271-.98-.709-2.814.479-4.252.625v-1.07h-1.271c.354.813.354.25 0 1.063-.75-.75-1.084.333-2.543 0-.459.021-.083.9-.208 1.271-1.521-.834 1.1-1.73 0-2.334h.834v-.834c-.646-.167-.25.729-1.063.438-.25.542-.438 1.1-1.271 1.063.25-.333.709-.438.646-1.063a3.024 3.024 0 0 1-1.9.834c.98-.063.542 1.292 1.709 1.063v1.271c-.792-.417-.688-1.709-1.9-1.709-.167.75-.834.98-1.271 1.5.333.6.6-.646 1.5-.208v.834a4.019 4.019 0 0 0-1.5.208c-.292-.75-1.6-.521-1.709-1.5-.6.208.063.9 0 1.271a3.113 3.113 0 0 1-1.063-2.1c-.813-.188-.917.354-1.271.625.354.271.459.813 1.271.646v1.5c.688.271.167-.688.834-.438.271.688-.688.167-.438.834q-21.7 5.409-42.706 11.463a15.044 15.044 0 0 0-4.481 1.063c-.459.1-.417-.292-.438-.625h-1.053c-.292.813.6.417.438 1.063-1.188-.25-2.188 1.146-2.98 0-.709 1.459-3.418 1.73-4.669.834-.167.646.729.271.438 1.063-.98.271-.354-1.063-1.5-.625.146.208.479.208.438.625-1.417.333-3.481 1.647-4.481 0-.563.188.292.688 0 1.271-.792 0-.834.709-1.918.438-.021-.333.1-.813-.208-.834-.354.208-.25.9-.438 1.271a23.451 23.451 0 0 0-3.606.646c-.1-.459.417-.292.438-.646a1.429 1.429 0 0 0-1.271 1.063c-.354.083-.417-.167-.438-.438-.292.063-.188.542-.208.834a2.911 2.911 0 0 0-3.168 0v-.834c-.646.1-.813.75-1.271 1.063.354.688.459-.646 1.271-.208v.834c-2.168-.563-2.939 1.376-4.481.208-.625.146.208.459 0 .834a16.181 16.181 0 0 0-3.4.834c-.188-.688.188-.813.438-1.063-.625-.333-1.355-1.6-2.1-1.063a1.848 1.848 0 0 0 1.709.834c-.417.563-.417 1.563-1.271 1.709-.729.167-.354-.792-.834-.834-.208.417-.438.834-.646 1.271A13.12 13.12 0 0 0 7 80.991c-.1-.292.25-1.084-.208-1.063s-.083.9-.208 1.271c-.188.688-.271-.375-.208-.646-1.021.25-.917 1.626-2.543 1.271v-1.271c-.563-.083.188 1.188-.625.834v-.834c-.729.167-.813-.333-1.5-.208-.75.688-.208 1.876-.208 2.98h.625c.479-.083.083-1.063.208-1.5.875-.292.688.459 1.271.438-.167 1.355.333 2.084.208 3.4-.188.021-.188-.083-.208-.208h-.435c-.167-.646.729-.25.438-1.063-.354-.188-.354-.792-1.063-.625-.292.063-.188.542-.208.834H1.271C1.354 82.371 0 81.621 0 79.5c.688-.188.813.188 1.063.438.292-.063.188-.542.208-.834 1.334.333 2.355-1.167 3.168 0 .417-.438 1.188-.479 1.271-1.271.709-.208.709.292.646.834.521-1.542 2-.813 3.4-1.5-.188.834.729.542.438 1.5h.834v-.625c.167-.563-1 .167-.834-.438.25-.813 1.98-1.688 2.543-.834.292-.063.167-.542.208-.834.459-.1.292.417.646.438 2.355-1.521 6.232-1.542 8.921-2.772 1-3.085.9-6.586 1.5-9.754.563-2.939 1.709-5.377 1.917-8.3h.834c-.542-1.23.271-1.647.208-3.4.875-.1.646.9 1.709.625.167.646-.729.271-.438 1.063.083.479 1.063.083 1.5.208a3.261 3.261 0 0 1 0-3.21c-.917-.146-.625.917-1.063 1.271-.6.021-.417-.709-1.271-.438-.021-.6.729-.417.438-1.271h1.271c.25-.9-.354-.917-.438-1.5.875.083.25-1.334.438-1.9h1.063a7.679 7.679 0 0 1-1.063 2.1c1.146.729 1.021-1.647 1.917-1.918v1.271a1.966 1.966 0 0 0 .834-1.9c.479.292.625.917 1.063 1.271-.146 1.334-1.438 1.542-1.063 3.4-.959.292 0-1.271-.646-1.271-.521.25-.188 1.438.208 1.5-2.23 6.336-4.419 12.714-4.669 21.051 3.064-.688 5.607-1.9 8.921-2.334-.292.959.709.563 1.271.625.167-.646-.729-.25-.438-1.063 3.689-.354 6.545-2.668 10.421-2.1.25-.021.188-.375.208-.646 2.689-.792 5.586-1.355 8.087-2.334a56.461 56.461 0 0 0 10.192-2.772c8.108-1.9 16.09-3.877 23.594-6.378 2.251.167 3.627-1.563 5.732-.834.25-.021.188-.375.208-.625.438.146 1.459-.354 1.271.438.167-.333.688-.333.646-.834 18.612-4.919 37.12-9.9 55.649-14.861.709-.083.25 1.021 1.271.646.292-.813-.6-.417-.438-1.063 3.481-.479 6.336-1.563 9.567-2.334-.917-1.146-1.626-2.5-2.543-3.606.834.083 1.271-.292 1.271-1.063a3.068 3.068 0 0 1-1.9.646V30.94h1.063c.271-1.271-.333-1.647-.625-2.334-.625.167-.625.709-1.063 0-.25.021-.188.375-.208.625-.688-.292-.709-.063-1.5 0 1.23-.98-2.188-.292-1.271-2.334-.688-.271-.167.688-.834.438.146-1-.479-1.23-1.063-1.5-.354-.834.917-.083.834-.625-3.064-.25-3.814-2.814-5.94-4.043-.271-.688.688-.167.438-.834-.688-.271-.167.688-.834.438-1.9-.542-.625-2.814 0-3.814.167-.563-1 .167-.834-.438 1.146-1.084 3 .646 3.21 1.9-.75-.729-.813.25-1.271-.438-.75.646.625.917.208 1.9.459.021.1-.75.208-1.063 4.94.021 5.461 4.439 8.712 6.148v1.5c.646.167.792-.208 1.271-.208.063.98.771 1.271 1.042 1.98zm-46.938 125.138c-.688.271-.167-.688-.834-.438.333 1.167-.563 1.146-.438 2.1h.834c-.188-.875.229-1.146.438-1.667zm48.208-31.43c.271.688-.688.167-.438.834.688.271.167-.688.834-.438a1.059 1.059 0 0 0 .208.625c-.021.625-.813.459-.646 1.271 1.084.1.563-1.417 1.9-1.063-.292-.875.459-.688.438-1.271-.667-.333-1.188.208-2.293.042zm-58.63-68.217c.083.625.917.479 1.271.834-.292-.875.459-.688.438-1.271-.521.208-.792.667-1.709.438zm52.689-25.886c.875-.292.688.459 1.271.438a1.963 1.963 0 0 0-.834-1.709c.021.584-.73.4-.438 1.271zm1.5-.438v.834c.9.333 1.876-1.084.834-1.271.21.645-.457.374-.832.436zm33.139 3.168a1 1 0 0 0-1.118-.866.99.99 0 0 0-.153.032 1 1 0 0 0 1.119.865.917.917 0 0 0 .154-.032zm-.438 5.525a1 1 0 0 0-.681-1.239.99.99 0 0 0-.153-.032c.357.354.211 1.187.837 1.271zm-18.07 0c.417-.25.98-.292 1.063-.834h-1.063zm-14.631 2.77c.98.271.709-.709 1.709-.438V37.6c-1.061-.062-1.353.646-1.707 1.272zm-2.98.625c.208-.709-.292-.709-.834-.646-.061.6.419.563.836.646zm38.451 9.567c.417-.25.98-.292 1.063-.834h-.646c.253.688-.685.146-.417.834zm1.042 2.772c.834.146.25-1.167.438-1.709-.688.188-.813-.188-1.063-.438-.207 1.146 1.106.771.627 2.147zm4.71 14.027V64.8h-.646c-.144.708.419.687.648 1.063zm1.271 0h-.834c.25 1.1-.834.834-.646 1.9.333.021.729-.021.646.438.6.021.417-.709 1.271-.438V66.7c-.834-.354-.083.917-.625.834-.167-.333-.688-.333-.646-.834h.834v-.837zm0 5.086a1.392 1.392 0 0 0 .834-1.5c-.56.228-.66.916-.831 1.5zM174.7 85.2v-.834h-.834c-.166.69.105.982.834.834zm1.9 2.73c.73-.417.792-1.5 1.271-2.1H176.6zm.855 3.418h.834c.25-.646-1.772-.688-1.063-.438.188.065.274.19.229.44zm-63.944 8.712h.834a.974.974 0 0 0-.834-.834zm-2.772 1.48v-1.063h-.839c-.04.689.356.9.835 1.064zm54.19 18.07h.834c-.25-.417-.292-.98-.834-1.063zM145.6 141.289v-.834h-.646c-.054.521-.054 1.022.646.834zm-4.71 3.606a.974.974 0 0 0 .834-.834c-.354-.354-.208-1.188-.834-1.271-.208.917.25 1.188.438 1.709-.229-.021-.479 0-.438.4zm-2.313.625v.834h1.271c-.188-.479.479-1.563 0-1.063-.042.5-.9.1-1.271.229zm-4.248 3.6v-.834h-.829c-.192.714.1.986.829.839zm-5.523 1.917c.521-.917-1.167-1.271-.646-.834.562-.083-.188 1.19.646.835zm-3.606 0c.333.021.792-.083.834.208v.625a1.428 1.428 0 0 0 1.066-1.27c-.792 0-.834-.709-1.9-.438v.875zm-24.219 4.669c.063.375-.208 1.063.438.834.083-.9 1.146-.875 1.5-1.5-.9.334.063-1.167-.834-.834-.083.813-.292 1.48-1.1 1.5zm2.96.646c-.417-.417-.021-.542 0-1.063h-.625v.831c.563-.375.4.938.625.229zM29.784 50.557a.929.929 0 0 0 .84-1.01.478.478 0 0 0-.006-.053c-.584.005-.959.255-.834 1.068zm-1.459 4.669c.063-.688-.354-.917-.834-1.063-.062.693.309.922.834 1.068zm.834 1.709V56.1h-.834c-.167.693.1 1.006.833.839zm-.834.4c-.6.021-.417-.709-1.271-.438-.459.9 1.125.835 1.271.439zm18.9 11.693c.792.459.959-1.084.208-.834.046.4-.225.459-.2.831zM24.7 70.3h.834c-.063-.375.208-1.063-.438-.834.292.667-.646.167-.4.834zm10.63 1.709c.083.521-.98-.1-.625.646 1.021.1 1.563-.271 1.5-1.271h-.834a3.114 3.114 0 0 0-.042.625zm-3.83 2.126V73.3h-.834a.973.973 0 0 0 .832.834zm-16.134 4.69c.188-.75-.834-.292-1.271-.438-.235.75.828.292 1.266.438zM8.337 80.1a1.023 1.023 0 0 0-.732-1.249.981.981 0 0 0-.105-.022c.358.308.212 1.184.837 1.271zm1.917 0v-.834H9.42c-.187.705.105.997.834.834zm-5.086 1.059c0-.75-.438-1.146-1.271-1.063.292.458.292 1.25 1.272 1.063z" class="cls-2"/>
                <path id="Path_16401" d="M1.563 86.245c.9.834.688-.146 1.271-.646.417.083.917.083.834.646.208-.146.208-.479.646-.438V83.89c1.146.479-.021 2 0 2.772.688.271.167-.688.834-.438C5.9 90.518 8.4 95.29 7.92 99.4c.333.792.333-.479.834-.208a14.27 14.27 0 0 1 0 2.98c1.73 2.439 2.418 5.94 2.98 9.546-1.167.625-.729 2.793-1.917 3.4.021.25.375.188.646.208.188-1.021 1.355-1.063 1.063-2.543.167-.375.208.146.208.438.063.292.542.167.834.208.125 3.085 2 5.127 1.271 7.858.208-.125.208-.479.646-.438v1.5c-.292.1-1.084-.25-1.063.208.438.709 1.1-.167 1.5-.208.813 1.647-.625 2.98.646 4.043.354-.709.709-1.417 1.063-2.105 1.084-.333.917.646 1.917.438.083-.354-.167-.417-.438-.438 14.027-4.043 28.533-7.587 42.5-11.693.688-.1 1.063.063 1.271.438.292-.062.167-.542.208-.834a.974.974 0 0 1 .834.834c.438-.292-.208-.729.208-1.271a91.209 91.209 0 0 0 13.4-3.4 3.117 3.117 0 0 0 2.772-.834c.709.729 1.459-.167 2.334-.438.021.6-.709.417-.438 1.271.333-.875 1.73-.688 1.9-1.709.542.083.6.688 1.5.438.292-.063.188-.542.208-.834 2.313.083 4.773-1.876 6.378-1.063.459-.459.75-1.084 1.9-.834.1.459-.417.292-.438.625.417.208.834.438 1.271.625.459-.021.083-.9.208-1.271-.354-.083-.417.167-.438.438-.813-.9.792-1.188 1.709-1.063-.9.479-.063.792.834.646-1.1-1.146 1.021 0 .646-1.5 2.251 0 3.71-.813 5.523-1.271.1.459-.417.292-.438.625.021.459.9.083 1.271.208.271-.688-.688-.167-.438-.834.354.083.417-.167.438-.438.625.167.75.813 1.063 1.271-.479.292-1.251.292-1.063 1.271-1.438.083-2.876.563-3.21-.834-.646.479-1.542.709-1.5 1.9-.479-.292-1.146-.438-1.5-.834.146.6-.167.792-.208 2.105a7.186 7.186 0 0 1 2.772-1.709c.271.688-.688.167-.438.834.688.271.167-.688.834-.438-.333.9 1.167-.063.834.834-1.918-.167-2.584.98-4.669.646.188-.188.459-1.355 0-1.5-.625.563-.542 1.834-1.271 2.334-.438-.146-1.459.354-1.271-.438-.625.146.188.459 0 .834-4.127.271-9.15 2.939-11.463 2.334-.292.063-.188.542-.208.834-1.647-.1-3 1.063-4.439.438-.25.021-.188.375-.208.625-10.421 2.418-19.884 5.753-30.6 7.858-.083-.479-.459-.688-.646-1.063-.75.625.729.813.646 1.5a39.719 39.719 0 0 0-6.378 1.709 34.6 34.6 0 0 0 5.106 6.378c.25.688-.333.521-.438.834-.271.688.688.167.438.834 1.6-1.334 1.876 1.417 3.21 1.709.083.354-.167.417-.438.438.98-.188 1.542.9 2.334 1.5.1.459-.417.292-.438.646.688.333 1.355.625 1.271 1.709-1.146-.083-1.167.959-1.271 1.9a1.881 1.881 0 0 1-1.5-1.063c.6-.021.417.729 1.271.438.083-1.23-.959-1.334-.834-2.543h-1.058c-.459.021-.083.9-.208 1.271-1.5-.083-1.251-1.876-2.772-1.9-.1-2.147-3.272-2.355-2.772-4.439-.021-.459-.542.271-1.063 0-1.376-2.376-3.439-4.064-4.669-6.586-8.17 1.688-15.4 4.293-23.594 5.94 0-.875-1-1.959 0-2.543-1.063-.354-1.23-1.6-1.271-2.98.459-.1.292.417.625.438.25-.021.188-.375.208-.625.021-.459-.75-.083-1.063-.208-1.834-6.653-3.584-13.426-5.523-19.971-.1-.459.417-.292.438-.646-.9-.9-1.917-3.627-1.271-4.669-1.834-1.793-1.376-5.836-2.772-8.087-.354-.834.917-.083.834-.625-.208-.354-.9-.25-1.271-.438a2.282 2.282 0 0 0-.25-2.126zm6.357 14.861c.417-.083.917-.083.834-.625-.521-.063-1.043-.063-.834.625zm38.433 29.117c.292.875-.459.688-.438 1.271.875.292.688-.458 1.271-.438v-.834zM2.834 87.933h.834c-.063-.375.208-1.063-.438-.834.271.667-.667.167-.4.834zm2.334 4.69v-1.271h-.834a.988.988 0 0 0 .835 1.271zm1.48 5.5h.834a1.024 1.024 0 0 0-.732-1.25.879.879 0 0 0-.1-.021zm19.759 25.49c.709.083.354-.917.625-1.271h-.625zm13.381.667c.188-.834-.729-.542-.438-1.5a1 1 0 0 0-.866 1.118.99.99 0 0 0 .032.153c.813-.625.521-.146 1.271.229zm-16.57.834a1.025 1.025 0 0 0 1.25-.732.879.879 0 0 0 .021-.1c-.333.357-1.187.21-1.271.836zm-4.255 1.276c.959.021 1.167-.688 1.063-1.709h-.834a3.915 3.915 0 0 0-.229 1.709zm23.385.438c-.479-.542.167-1.438-.208-1.709-.518.6-.518 1.352.212 1.706zm-25.094.208h.834c.063-.688-.354-.917-.834-1.063zm28.262 4.46c-.146-.438.354-1.459-.438-1.271.15.435-.309 1.477.442 1.265zm.834 1.917a.954.954 0 0 0 .834-.834c-.688.271-.167-.688-.834-.438z" class="cls-2"/>
                <path id="Path_16402" d="M99.709 18.882c.25.25.6.375.438 1.063-2.98-.25-6.294 1.292-8.483.438-1.792 1.459-5.648.875-7.441 2.334-.438.083-.688-.063-.646-.438-.459.959-1.918.9-2.543 1.709-6.461 1.417-10.567 5.148-15.507 8.087.063-.959.813-1.167.834-2.105-.062-.292-.542-.167-.834-.208a35.538 35.538 0 0 1 11.693-6.586c.167-.333.688-.333.646-.834 2.96-.021 4.023-1.918 7.024-1.9.021.333-.1.813.208.834.458-.021.083-.9.208-1.271.688.875 1.146-.625 1.063.834.688.271.167-.688.834-.438.271-.688-.688-.167-.438-.834 1.563-.354 4.585-1.23 5.315 0 .9.1.875-.709 1.271-1.063 1.084-.167-.354.9.438 1.063.709.208.333-.646.438-1.063.98-.271 3.627-.98 4.439 0 .188-.6 1.146-.417 1.9-.438v.834h.646c.292-.083.188-.542.208-.834h2.334a.974.974 0 0 1-.834.834c.188.438.834.438.834 1.063h-2.336a1.543 1.543 0 0 0-1.709-1.084zm-5.106.646a1.792 1.792 0 0 0 1.709-1.063c-.438.501-1.459.417-1.712 1.063z" class="cls-2"/>
                <path id="Path_16403" d="M119.447 21.862c.188-.688 2.23-1.063 2.334 0 .208-.146.208-.479.646-.438.625.875 2.439 1.834 3.168 1.271v.834h-.834c-.146.563.438.417.625.646.521.083-.1-.98.625-.646-.083.354.167.417.438.438-.25.25-.6.375-.438 1.063-1.438 0-2.543-.271-2.772-1.5.688-.271.167.688.834.438-.1-.646-.75-.813-1.063-1.271-.458.021-.083.9-.208 1.271-1.73-.375-3.585-.646-4.252-2.1-1 1-1.73-.208-3.168 0v-2.34c.959-.333.646.625 1.5.438-.292.688-.063.709 0 1.5 1.084.459 3.606-1.271 2.563.4z" class="cls-2"/>
                <path id="Path_16404" d="M129.868 25.469c1.626-.354 1.459 1.084 2.772 1.063-.125.375-.875 1.251-.208 1.709.208-.417.438-.834.646-1.271.688-.271.167.688.834.438-.417.729-.417.542 0 1.271-.709-.062-1.292-.021-1.5.438a13.087 13.087 0 0 0-2.1-1.271c.021-.625.646-.625.834-1.063-.271-.354-.834-.438-1.063-.834-.6.333.646.6.208 1.5-.813-.333-1.876-.375-1.9-1.5-.6-.021-.417.709-1.271.438.021-.375-.271-.459-.208-.834h1.063c.334-.959-.625-.646-.438-1.5.959-.021 1.146.709 2.1.625-.021.333.271.4.229.792z" class="cls-2"/>
                <path id="Path_16405" d="M61.651 32.492c.542.063 1.063.083.834-.646.438-.083.563.146.834.208.459.021.083-.75.208-1.063.688-.271.167.688.834.438.271-.688-.688-.167-.438-.834.729.021.542-.875 1.271-.834.146 1.355-.75 1.646-.438 3.21-1.438.542-1.98 2-3.606 2.334-.021 1.1-.75 1.522-1.5 1.9 0-.208-.271-.167-.438-.208-.021-.792 1.021-.542.834-1.5-.021-.25-.375-.188-.625-.208-.25.959-1.063 1.959-.208 2.772-4.064 3-5.94 8.212-9.754 11.463-.188-.688.188-.813.438-1.063-.021-.459-.9-.083-1.271-.208.271-.875 1.251-1.021 1.271-2.1.438-.542.1.834 0 1.063.459-.459.75-1.084 1.9-.834v-.646c-.063-.292-.542-.167-.834-.208-.333-1.084.646-.917.438-1.917 1.355.083.875-1.688 2.334-1.5v-1.276c.688-.271.167.688.834.438-1.334-1.459 1.23-1.6 1.063-3.168 1.084.292 1.688-2.543 2.1-.834.479-.083.083-1.063.208-1.5.98-.25 1-1.417 2.1-1.5.354.354.167 1.251.208 1.9a4.338 4.338 0 0 0 1.4-3.668z" class="cls-2"/>
                <path id="Path_16406" d="M140.5 32.909c1.709-.292 1.563 2.543 2.772 1.5-.188.875-.333 1.813-1.063 2.1.1-1.1-.9-1.1-1.709-1.271a1 1 0 0 1 1.118-.866.99.99 0 0 1 .153.032l-1.063-1.063c-.458-.021-.1.75-.208 1.063h-1.063c0-.208.25-.167.438-.208.186-.433.398-.849.625-1.287z" class="cls-2"/>
                <path id="Path_16407" d="M47.854 51.834c.208-.917-.25-1.167-.438-1.709.459.1.417-.292.438-.646a4.289 4.289 0 0 1 1.709.208c.021 1.1-.688.9 0 1.709-1.647 1.9-1.917 5.148-3.606 7.024.208 1.146-.271 1.563-.438 2.334-.688.188-.292-.709-.834-.646-.167.063-.208.208-.438.208-.563.521-.083 1.772.208 2.1-.459-.1-.417.292-.438.625h-1.269c.729-4.377 2.71-7.482 4.043-11.255a8.98 8.98 0 0 0 1.063.042zm-.417 1.066c.834.083 1.271-.292 1.271-1.063-.854-.083-1.27.292-1.27 1.063z" class="cls-2"/>
                <path id="Path_16408" d="M138.581 80.513a1.317 1.317 0 0 1-1.5.625c-.063-.771 1.145-.292 1.5-.625z" class="cls-2"/>
                <path id="Path_16409" d="M80.993 84.327c-1.292-.25-1.376.729-2.772.438.5-.376 2.355-1.397 2.772-.438z" class="cls-2"/>
                <path id="Path_16410" d="M150.253 111.755c1.021 1.021-.063 2.105-.208 3.21h-.834c-.146 1.709-1.813 1.834-1.918 3.606-2.23 1.188-3.168 3.627-5.523 4.669v.834c-1.563-.354-1.792 2.376-2.98 1.063-.729.417.271.834.208 1.271-1.563-.459-1.438.834-2.334 1.063-.1-.292.25-1.084-.208-1.063-.167.75-.458 1.376-1.709 1.063-.333.75.709.125.625.625-1.709 2.251-4.856 3.064-7.024 4.877-.459.1-.292-.417-.625-.438-.438 1.292-2.584 1.917-3.814 1.709-2.626 2.251-7.17 2.6-10.817 3.814-.459.1-.292-.417-.646-.438-.729 1.021-2.98.563-4.043 1.271-.021-.333.1-.813-.208-.834-.292.063-.188.542-.208.834-3.4.021-5.961.292-8.3.438-.167-.729.1-1 .834-.834v-.646c-.208-.354-.98-.167-1.063-.646-.354.438-.98.563-1.271 1.063.438.709 1.1-.167 1.5-.208.021.6-.709.417-.438 1.271a6.129 6.129 0 0 0-3.814-.438v-.834c-.729-.021-.542.875-1.271.834-.729.167-.354-.792-.834-.834-4.648.792-9.171-1.98-13.589-2.772.271-.688-.688-.167-.438-.834-.688-.271-.167.688-.834.438-.438-.709-1.438-.813-2.334-1.063-.083-.709-.021-1.292.438-1.5-.479-.6-1.521.021-1.5.646-.521-.187-.792-.625-1.709-.438.188-.6-.292-.542-.208-1.063a5.691 5.691 0 0 1-4.877-2.772c-.208.146-.208.479-.625.438-.188-.521-.625-.792-.438-1.709h-.834c-.271.688.688.167.438.834a9.5 9.5 0 0 1-2.334-1.9h1.063a3.924 3.924 0 0 1-.208-1.709 1.846 1.846 0 0 0-.834 1.709c-.6.021-.417-.729-1.271-.438-.271-.98.709-.709.438-1.709-.813-.167-.25 1.021-1.063.834.271-.688-.688-.167-.438-.834 1.084.021.9-.563 1.063-1.063 2.71 1.959 5.5 3.814 8.274 5.732.021.6-.709.417-.438 1.271.479-.146.9-.375.834-1.063 2.605.521 3.5 2.73 6.378 2.98.354.834-.917.083-.834.625 1.063.417 1.563-.479 2.772.208.188.688-.188.813-.438 1.063.021.25.375.188.646.208.563.167-.167-1 .438-.834a24.053 24.053 0 0 0 3.606 1.063c.1.459-.417.292-.438.646.021.25.375.188.646.208.292-.063.188-.542.208-.834 1 .542 2.355.75 2.98 1.709.292-.062.167-.542.208-.834a8.531 8.531 0 0 0 3.21.834c-.063.375.208 1.063-.438.834.125.208.479.208.438.625.167-.459.146-1.1.834-1.5a5.82 5.82 0 0 0 2.98.438v1.063c1.876-.917 3.772-.521 6.378-.625-.125.208-.479.208-.438.625.563.125.417-.438.625-.625 3.668.521 7.295-1.146 9.754-.438.438-.375 1.417-1.376 1.9-.438 1.021-1.021 3.147-.959 4.481-1.709.834-.354.083.917.646.834.25-1.146 2.668-2.23 3.4-1.5.292-.062.188-.542.208-.834 3.522-.521 5.919-3.272 8.921-3.606.834-1.167 2.418-2.668 4.043-2.334a1.114 1.114 0 0 1-.208-.625c4.981-3.147 8.9-7.4 12.526-11.9.729-.021 1.521-.1 1.709.438.479-.646.083-2.188.208-3.21a52.423 52.423 0 0 0 8.921-19.55c1.251.334 1.188-.646 2.334-.438A87.672 87.672 0 0 1 152.861 111c-.9.313-1.251 1.042-2.6.75zm-8.92 11.026c-.625.083-.479.917-.834 1.271h.834zm-1.48 1.271c-.479 0-.625.375-1.271.208.083.625.917.479 1.271.834zm-5.523 4.669c-.146-.438.354-1.459-.438-1.271.141.458-.334 1.5.441 1.271zm-36.558 9.8v-.834h-.834c-.166.688.1 1 .834.83z" class="cls-2"/>
                <path id="Path_16411" d="M61.652 123.844c.333.792.333-.479.834-.208.021.646-.646.625-1.271.646.083-.438-.063-.688-.438-.646-.1-.458.417-.292.438-.625.063-.375-1.188-.375-.834.208-.625-.125.188-.458 0-.834-.208.146-.208.479-.646.438-.792-1.355-2.418-1.834-2.772-3.606 1.063.063 1.876-.479 2.772 0v1.709c.813.292.417-.6 1.063-.438a.974.974 0 0 0 .834.834v1.5c.9.334-.063-1.167.834-.834v1.271c-.479-.1-.459.417-.813.584z" class="cls-2"/>
                <path id="Path_16412" d="M52.96 135.745a1.152 1.152 0 0 0-.208 1.9h-.834v1.063c.083.479 1.251-.1.834.834.875-.188.646-1.459 1.063-2.105-.063-.292-.542-.187-.834-.208.333-.167.333-.688.834-.646-.292.813.6.417.438 1.063.646.167.271-.729 1.063-.438-.459 1.334 1.334.375.834 1.709 1.959.375 4.335 1.271 4.043 3.168a4.811 4.811 0 0 1 1.271 1.063c.333-.25.521-.625.834-.834 1.438.458 2.23 1.6 3.606 2.105.25.9-.354.917-.438 1.5.479-.146.9-.375.834-1.063 1.709.083 2.584.959 3.606 1.709.292.813-.563.417-.438 1.063.021.25.375.188.646.208.459.021.1-.75.208-1.063.25.98.834.271 1.9.438-.459 1.084 1.084.188.834 1.063.208 0 .167-.271.208-.438A44.46 44.46 0 0 0 83.248 151c-.021.375.271.458.208.834.521-.187.792-.625 1.709-.438v1.5h-.834c-.021.6.709.417.438 1.271-.834.354-.083-.917-.625-.834-.167.6-.729.834-.646 1.709-1.772-.375-3.231-1.021-5.106-1.271 0-.479-.375-.625-.208-1.271h-1.271a1.324 1.324 0 0 0-.646-1.5c-.167.542-.625.813-.646 1.5-1.251.063-1.5-.9-2.98-.646-.188-.521-.625-.792-.438-1.709.459-.1.292.417.625.438.75-.98-.333-1.917-.834-2.334-.208.417-.438.834-.646 1.271-.688.271-.167-.688-.834-.438.1.813 1.167.688.834 1.9a30.778 30.778 0 0 0-5.106-1.9 1.527 1.527 0 0 0-.625-1.709c-.729.417.271.834.208 1.271a2.635 2.635 0 0 0-2.98-1.5c-.062-.813.083-1.459 1.063-1.271.021-.542-.479-.521-.625-.834-.9 1.271-2.168-1.251-2.772.438-2.73-1.23-4.773-3.147-7.211-4.669v-1.271c-.646-.208-.375.459-.438.834-.709-.563-1.084-1.459-2.334-1.5a3.179 3.179 0 0 1 .438-2.334c.459-.1.292.417.646.438.792-.334-.479-.334-.208-.834.875-.271 1.626-1.355 1.9 0-.271.1-.313-.146-.333-.4zm10.192 9.15h.834a.974.974 0 0 0-.834-.834zm4.46 1.9v1.063c.792.146.375-.917.834-1.063.333-.021.729.021.646-.438-.917-.292-.625.643-1.48.438zm10.213 3.814c-.021.542.479.521.646.834.021-.25.063-.521.438-.438.021-.542-.479-.521-.646-.834-.042.268-.084.518-.438.434zm3.168 3.21c.083-.98.542-2.376-.438-2.772-.187.955-.979 2.518.438 2.768z" class="cls-2"/>
                <path id="Path_16413" d="M86.308 151.877c2.793.729.792.208 0 1.271.6.167.834.73 1.709.625a2.47 2.47 0 0 0-.438 1.9c-1.271.292-1.271-.709-2.543-.438-.417-.146.834-.417 1.063-.646-.167-1.084.271-1.647.208-2.709z" class="cls-2"/>
                <path id="Path_16414" d="M98.209 155.295c-.208.646-1.292.417-.834 1.709h-.834c-.083-1.042 1.042-2.022 1.667-1.709z" class="cls-2"/>
                <path id="Path_16415" d="M96.5 154.211c-.083 1.063.208 2.5-.646 2.772v-1.271c-.438 1.334-2.814.73-4.481.834a2.305 2.305 0 0 1 1.271-1.271c.021.334-.1.813.208.834.688-1.6-1.9-.75-2.98-.834-.271.688.688.167.438.834-1.334.271-1.5-.625-2.334-.834 1.063-.625.083-1.98.646-2.98a5.467 5.467 0 0 0 2.1.208c.063.375-.208 1.063.438.834.625-.146-.208-.458 0-.834.6.188 1.271.271 1.5.834 1.647-.6 2.96-.271 4.669 0-.417.729-.417.542 0 1.271-.667.313-.125-.625-.834-.4zm-1.9 0a.974.974 0 0 0-.834-.834c-.167.334-.688.334-.625.834.626-.438.793-.438 1.459 0z" class="cls-2"/>
                <path id="Path_16416" d="M134.33 27.845c.646-.167.271.729 1.063.438v.834c1.292-.334 1.417.563 2.334.625v1.271c-.813-.292-.417.6-1.063.438-.521-.188-.792-.625-1.709-.438-.271-.354.083-1.355-.646-1.271-.188-.688.709-.292.646-.834-.229-.333-.917-.229-.625-1.063z" class="cls-2"/>
            </g>
        </g>
        <g id="Group_12029-2">
            <path id="Path_18019" d="M49.769 92.942a7.966 7.966 0 0 0-1.435-1.616 18.621 18.621 0 0 0-2.347-1.714q-1.428-.9-3.509-2.059l-1.617 3.034 1.557.9c-.316.6-.584 1.162-.806 1.687a11.182 11.182 0 0 0-.519 1.525 6.094 6.094 0 0 0-.193 1.467 5.676 5.676 0 0 0 .2 1.5 4.18 4.18 0 0 0 .8 1.6 3.881 3.881 0 0 0 1.307 1.035 4.451 4.451 0 0 0 1.7.428 6.107 6.107 0 0 0 1.985-.216 5.677 5.677 0 0 0 1.844-.853 4.7 4.7 0 0 0 1.282-1.345 4.538 4.538 0 0 0 .627-1.711 4.617 4.617 0 0 0-.117-1.926 6.193 6.193 0 0 0-.759-1.736zm-2.805 3.24a1.39 1.39 0 0 1-.964.658 1.436 1.436 0 0 1-1.181-.083 1.257 1.257 0 0 1-.553-.738 2.308 2.308 0 0 1-.007-.926 5.823 5.823 0 0 1 .769-1.765 10.039 10.039 0 0 1 1.02.655 4.661 4.661 0 0 1 .577.5 1.878 1.878 0 0 1 .292.394 1.854 1.854 0 0 1 .141.363 1.325 1.325 0 0 1-.094.942z" class="cls-2"/>
            <path id="Rectangle_3902" d="M0 0H3.34V3.202H0z" class="cls-2" transform="rotate(-15.024 335.937 -225.754)"/>
            <path id="Rectangle_3903" d="M0 0H3.341V3.202H0z" class="cls-2" transform="rotate(-15.011 334.072 -242.12)"/>
            <path id="Path_18020" d="M83.058 82.323l-3.386.908.744 2.769q.4 1.493-.906 1.843a1.349 1.349 0 0 1-1.016-.113 1.524 1.524 0 0 1-.69-1.029l-.744-2.772-3.386.908.744 2.772a1.576 1.576 0 0 1-.069 1.234 1.841 1.841 0 0 1-1.158.695 1.866 1.866 0 0 1-1.229-.055 1.391 1.391 0 0 1-.771-1.008l-.744-2.772-3.359.9.744 2.773a1.354 1.354 0 0 1-1.065 1.886l-1.333.357-.293.079a1.786 1.786 0 0 1-1.336-.027 3.32 3.32 0 0 1-.958-.957L58.214 84.1l-2.842 2.193 2.077 3q.777 1.122 1.178 1.726a9 9 0 0 1 .534.872 2.607 2.607 0 0 1 .171.426.888.888 0 0 1-.1.671 1.492 1.492 0 0 1-.965.559l-5.439 1.459 1.114 3.617 5.732-1.537a4.76 4.76 0 0 0 1.729-.851 3.162 3.162 0 0 0 1.06-1.641 3.286 3.286 0 0 0 1.86.915 5.148 5.148 0 0 0 1.8-.155l.293-.079 1.333-.357a4.473 4.473 0 0 0 1.557-.747 3.391 3.391 0 0 0 1.072-1.7 3.273 3.273 0 0 0 1.874.912 5.572 5.572 0 0 0 1.922-.188 5.242 5.242 0 0 0 1.65-.771 3.258 3.258 0 0 0 1.164-1.724 3.276 3.276 0 0 0 1.861.915 5.072 5.072 0 0 0 1.775-.147 4.662 4.662 0 0 0 3.061-2.122 5.232 5.232 0 0 0 .2-3.954z" class="cls-2"/>
            <path id="Rectangle_3904" d="M0 0H3.368V3.174H0z" class="cls-2" transform="rotate(-15.015 319.032 -231.865)"/>
            <path id="Rectangle_3905" d="M0 0H3.34V3.202H0z" class="cls-2" transform="rotate(-15.024 327.622 -315.492)"/>
            <path id="Rectangle_3906" d="M0 0H3.341V3.202H0z" class="cls-2" transform="rotate(-15.024 325.496 -331.608)"/>
            <path id="Rectangle_3907" d="M0 0H3.644V3.34H0z" class="cls-2" transform="rotate(-15.032 304.644 -390.835)"/>
            <path id="Path_18021" d="M119.614 71.041a3.552 3.552 0 0 0-1.614-.524 4.954 4.954 0 0 0-1.57.164l-5.866 1.573.828 3.722 5.439-1.458c.283-.077.517-.13.7-.16a1.6 1.6 0 0 1 .482-.015.953.953 0 0 1 .381.14c.114.076.245.168.389.282l-2.212 2.194a7.181 7.181 0 0 1-1.024.818 6.766 6.766 0 0 1-1.154.6 14.12 14.12 0 0 1-1.415.48q-.783.225-1.77.489l-.875.235-.586.158a2.18 2.18 0 0 1-1.364-.019 1.358 1.358 0 0 1-.8-1l-.744-2.773-3.386.909.744 2.772a1.645 1.645 0 0 1-.042 1.227 1.558 1.558 0 0 1-1.023.659l-7.892 2.112a3.311 3.311 0 0 1-.821.136.974.974 0 0 1-.522-.133.811.811 0 0 1-.313-.372 3.768 3.768 0 0 1-.194-.564l-.823-3.064-3.359.9 1.059 3.946a5.578 5.578 0 0 0 .648 1.512A3.477 3.477 0 0 0 93.5 87.65a4.942 4.942 0 0 0 1.97-.171l8.637-2.317a4.6 4.6 0 0 0 1.571-.751 3.374 3.374 0 0 0 1.086-1.705 3.255 3.255 0 0 0 1.874.911 5.653 5.653 0 0 0 1.948-.194l.719-.193.746-.2q1.2-.322 2.115-.639a13.916 13.916 0 0 0 1.672-.693 9.238 9.238 0 0 0 1.4-.847 10.878 10.878 0 0 0 1.3-1.133L123 75.235a13.594 13.594 0 0 0-1.714-2.713 6.89 6.89 0 0 0-1.672-1.481z" class="cls-2"/>
            <path id="Rectangle_3908" d="M0 0H3.505V17.114H0z" class="cls-2" transform="rotate(-15.021 298.367 -432.9)"/>
            <path id="Path_18022" d="M142.892 70.982a4.431 4.431 0 0 0-.8-1.556 6.646 6.646 0 0 0-1.565-1.409l-5.78-3.965-1.977 3.188 5.541 3.714a.8.8 0 0 1 .409.462q.137.507-.557.691l-6.452 1.732 1.113 3.618 6.9-1.854a5.4 5.4 0 0 0 1.711-.758 3.917 3.917 0 0 0 1.09-1.107A3.138 3.138 0 0 0 143 72.41a3.8 3.8 0 0 0-.108-1.428z" class="cls-2"/>
            <path id="Rectangle_3909" d="M0 0H3.34V3.202H0z" class="cls-2" transform="rotate(-14.98 359.389 -559.254)"/>
            <path id="Rectangle_3910" d="M0 0H3.368V3.203H0z" class="cls-2" transform="rotate(-15.024 376.558 -552.582)"/>
            <path id="Path_18023" d="M158.187 69.351a5.266 5.266 0 0 0 .183-3.951l-.823-3.065-3.386.908.744 2.773a1.686 1.686 0 0 1-.029 1.222 1.5 1.5 0 0 1-1.01.656l-2.506.672-.293.079a1.856 1.856 0 0 1-1.23-.055 1.384 1.384 0 0 1-.77-1.008l-.744-2.772-3.386.909 2.01 7.491a3.661 3.661 0 0 1 .118 1.24 2.755 2.755 0 0 1-.39 1.205 3.606 3.606 0 0 1-1.03 1.063 5.684 5.684 0 0 1-1.8.783l-1.014.272 1.113 3.617 1.76-.472a5.992 5.992 0 0 0 2.4-1.243 6.531 6.531 0 0 0 1.594-2.043 7.153 7.153 0 0 0 .716-2.549 7.7 7.7 0 0 0-.234-2.739l-.086-.32a1.843 1.843 0 0 0 1 .375 3.186 3.186 0 0 0 .96-.1l.293-.079 2.8-.751a4.613 4.613 0 0 0 3.04-2.118z" class="cls-2"/>
            <path id="Rectangle_3911" d="M0 0H3.34V3.202H0z" class="cls-2" transform="rotate(-14.98 361.525 -543.12)"/>
        </g>
    </g>
</svg>
