<?xml version="1.0" encoding="UTF-8"?><svg id="a" xmlns="http://www.w3.org/2000/svg" xmlns:xlink="http://www.w3.org/1999/xlink" viewBox="0 0 405.48 415.82"><defs><style>.c{fill:#fff;}.d{fill:url(#b);}</style><radialGradient id="b" cx="202.74" cy="205.28" fx="202.74" fy="205.28" r="128.49" gradientTransform="matrix(1, 0, 0, 1, 0, 0)" gradientUnits="userSpaceOnUse"><stop offset=".3" stop-color="#2690bf"/><stop offset=".75" stop-color="#27aae1" stop-opacity="0"/></radialGradient></defs><path d="M202.74,101.01c-57.59,0-104.27,46.69-104.27,104.27s46.68,104.28,104.27,104.28,104.27-46.69,104.27-104.28-46.68-104.27-104.27-104.27Zm0,.79l49.51,49.52-49.51,49.51-49.52-49.51,49.52-49.52Zm-103.47,103.47l49.5-49.5,49.51,49.51-49.49,49.5-49.52-49.51Zm103.47,103.48l-49.52-49.51,49.52-49.52,49.51,49.52-49.51,49.51Zm53.95-53.97l-49.5-49.5,49.52-49.51,49.49,49.5-49.51,49.51Z" style="fill:url(#b);"/><g><path d="M139.44,261.41l-33.15,33.16c-5.56,5.56-14.56,5.56-20.12,0L4.17,212.56c-5.56-5.56-5.56-14.56,0-20.12L86.18,110.44c5.56-5.56,14.56-5.55,20.12,0l33.13,33.14c5.55,5.56,5.55,14.56,0,20.12l-28.73,28.73c-5.56,5.56-5.56,14.56,0,20.12l28.75,28.74c5.56,5.55,5.56,14.56,0,20.12Z" style="fill:#fff;"/><path d="M294.79,106.05l-33.13,33.14c-5.56,5.56-14.57,5.56-20.12,0l-28.74-28.75c-5.56-5.56-14.56-5.56-20.12,0l-28.75,28.75c-5.56,5.56-14.57,5.56-20.12,0l-33.13-33.14c-5.55-5.56-5.55-14.56,0-20.12L192.68,3.94c5.56-5.56,14.56-5.56,20.12,0l81.99,81.99c5.55,5.55,5.55,14.56,0,20.12Z" style="fill:#fff;"/><path d="M296.16,323.27l-83.36,83.36c-5.56,5.56-14.56,5.56-20.12,0l-83.36-83.36c-5.56-5.56-5.56-14.56,0-20.12l33.84-33.85c5.56-5.56,14.56-5.56,20.12,0l29.4,29.39c5.56,5.55,14.56,5.55,20.12,0l29.39-29.39c5.56-5.56,14.56-5.56,20.12,0l33.85,33.85c5.56,5.56,5.56,14.56,0,20.12Z" style="fill:#fff;"/><path d="M401.31,212.56l-81.99,82.01c-5.56,5.56-14.56,5.56-20.12,0l-33.15-33.16c-5.55-5.56-5.55-14.56,0-20.12l28.74-28.74c5.56-5.56,5.56-14.56,0-20.12l-28.73-28.73c-5.55-5.55-5.55-14.56,0-20.12l33.13-33.14c5.56-5.56,14.56-5.56,20.12,0l82,82c5.56,5.56,5.56,14.56,0,20.12Z" style="fill:#fff;"/></g><g><rect x="120.61" y="172.95" width="64.63" height="64.65" transform="translate(-100.36 168.26) rotate(-45)" style="fill:#fff;"/><rect x="170.42" y="222.77" width="64.65" height="64.65" transform="translate(-121 218.07) rotate(-45)" style="fill:#fff;"/><rect x="170.42" y="123.13" width="64.65" height="64.65" transform="translate(-50.54 188.89) rotate(-45)" style="fill:#fff;"/><rect x="220.23" y="172.96" width="64.65" height="64.63" transform="translate(-71.18 238.71) rotate(-45)" style="fill:#fff;"/></g></svg>