<?xml version="1.0" encoding="utf-8"?>
<!-- Generator: Adobe Illustrator 24.0.2, SVG Export Plug-In . SVG Version: 6.00 Build 0)  -->
<svg version="1.1" id="Layer_1" xmlns="http://www.w3.org/2000/svg" xmlns:xlink="http://www.w3.org/1999/xlink" x="0px" y="0px"
	 viewBox="0 0 204.1 157" style="enable-background:new 0 0 204.1 157;" xml:space="preserve">
<style type="text/css">
	.st0{fill:#FF4545;}
</style>
<g id="Group_12029" transform="translate(0 .013)">
	<g id="Group_10001">
		<g id="Group_9999">
			<path id="Path_16390" class="st0" d="M103.9,18h1.3v0.8c1,0.1,1.2-0.5,1.7-0.8c2,0.7,4.1,1,6.1,0.8v1.9c0.8,0.1,0.1-1.3,1.3-0.8
				c0,0.6-0.7,0.4-0.4,1.3c-1.6,0.3-2-0.7-3.6-0.4c-0.2-0.8,1-0.3,1.5-0.4v-0.6c-0.7-0.6-2.2-0.1-1.9,1.1c-0.6-0.8-2.7,0.1-3.2-0.8
				c-0.6,1-1.5-0.1-2.3,0C104,18.6,104.5,19.1,103.9,18L103.9,18z"/>
			<path id="Path_16391" class="st0" d="M137.5,31.5c0.8,0.4,1.7,0.5,2.5,0.4c-0.1,0.6-0.9,0.5-0.6,1.5c-0.3-1.1-2-0.7-2.8-1.3
				C136.6,31.5,137.9,32.3,137.5,31.5z"/>
			<path id="Path_16392" class="st0" d="M142.8,36.5h1.3c-0.1,0.4,0.2,0.4,0.4,0.4c-0.5,0.3-0.6,1-1.3,1.1
				C143.2,37.5,142.6,37.4,142.8,36.5L142.8,36.5z"/>
			<path id="Path_16393" class="st0" d="M144.9,37.2c0.2,0,0.2,0.1,0.2,0.2c-0.1,0.6,1.2-0.2,0.8,0.6c-1-0.3-0.6,0.6-1.5,0.4
				C144.2,37.6,145,37.8,144.9,37.2L144.9,37.2z"/>
			<path id="Path_16394" class="st0" d="M135.4,58c-0.3,0.9,0.5,0.7,0.4,1.3h-1.1C134.7,58.6,134.7,58,135.4,58z"/>
			<path id="Path_16395" class="st0" d="M44.5,63.5v1.7c-0.8,0.1-1.6,0.3-2.3,0.6C42.8,65,42.9,63.5,44.5,63.5z"/>
			<path id="Path_16396" class="st0" d="M91.8,93c0,0.8-1,0.6-1.7,0.6C89.9,93.5,91.4,93.3,91.8,93z"/>
			<path id="Path_16397" class="st0" d="M102,103.9c0.5-0.1,1.1,0.2,1.3,0.7c0,0,0,0.1,0,0.1c-0.5,0.2-1.1-0.1-1.2-0.7c0,0,0,0,0,0
				C102.1,104,102.1,103.9,102,103.9z"/>
			<path id="Path_16398" class="st0" d="M98.2,153.4c0.6-0.2,0.4,0.5,0.4,0.8h-0.8C97.5,153.5,98.5,154,98.2,153.4L98.2,153.4z"/>
			<path id="Path_16399" class="st0" d="M30.2,45.9c0.5-0.1,0.3,0.4,0.6,0.4c0.4-0.3,0.3-1.8-0.2-1.9c0.9-1.5,1.5-3.3,2.3-4.9h1.7
				c-0.2,0.8,0.4,0.9,0.2,1.7c1-0.1,0.2-1.6-0.2-1.7c0.1-0.9,0.5-1.4,0.6-2.3c-0.9-0.3,0,1.3-1.1,0.8c0.6-0.4,0.4-1.4,0.6-1.9
				c0.1-0.1,0.8-0.2,0.8-0.4c0.2-0.5,0.5-0.9,0.8-1.3c0.4-0.5,0.4-1.5,0.6-1.9c0.3-0.3,1-0.3,1.3-0.6c0.1-0.2-0.1-0.6,0-0.8
				c0.1-0.3,1-0.5,1.3-0.8c0.7-1-0.5-0.3,0.4-0.4c0.5-0.1,0-1.5,0.2-1.1c0.7-0.2,0.3,0.6,0.4,1.1c0.7,0.3,0.2-0.7,0.8-0.4
				c-0.2-0.4-0.8-0.4-0.8-1.1C48.7,19.5,57.5,11.8,69.3,7c0.3-0.3,0.5-0.6,0.8-0.8c1-0.3,0,1.3,0.6,1.3c0.5,0,0.1-0.9,0.2-1.3
				c0.6,0,1.7-1.4,2.1-0.2c0.6-0.1-0.2-0.5,0-0.8c1.7-0.7,3.8-1.1,5.3-1.9c0.7-0.3,0.2,0.7,0.8,0.4c1.6-0.9,5-2.3,6.8-1.7
				c0.2-0.3,0.7-0.3,0.6-0.8c3.2,0.3,5.1-0.8,8.3-0.6c0.3,0.7-0.3,0.5-0.4,0.8c0,0.5,0.9,0.1,1.3,0.2C95.1,0.7,96,0.9,96.2,0
				c2.1,0.3,5.2-0.5,6.6,0.4c1.1-0.5,1.1-0.1,2.8-0.4c0.5,1.8,2.3-0.2,4.3,0.4V2c0.8,0.1,1.3-0.3,1.3-1.1C112,1,113.3,0.8,113,2
				c0.6,0.2,0.4-0.5,0.4-0.8c3.6,0.4,6.6,1.4,9.8,2.1c0.3,0.8-0.6,0.4-0.4,1.1c-0.8,0.3-0.1-0.7-0.6-0.6c-0.1,0.7-1.1,0.5-0.8,1.5
				c0.9-0.4,1.8-0.7,2.8-0.8c0.1-0.4-0.2-0.4-0.4-0.4c2.4-0.8,3.7,1.3,5.9,1.3V6c0.8,0.3,0.4-0.6,1.1-0.4c5,2.3,9.6,4.9,14.2,7.4
				c0,0.4,0.3,0.5,0.2,0.8c1.5-0.3,1.2,1.3,2.5,1.1c0,1.5,0.2,3.3-0.4,4.3c-0.6,0-1.3,0-1.3-0.6c0.5-0.1,0.3,0.4,0.6,0.4
				c0.4-0.2,0.2-1,0.6-1.1c-0.4-0.6-1.3,0.1-1.3,0.6c-5.7-3.8-11.3-7.6-18.5-9.8V8c-0.6-0.2-0.3,0.7-1.1,0.4
				c0.1-0.4-0.2-0.4-0.4-0.4c-0.1-0.5,0.4-0.3,0.4-0.6c0-0.3-0.4-0.2-0.6-0.2c-0.6-0.1,0.2,1.2-0.6,0.8c0-0.7,0.3-1.3,0.8-1.7
				c-0.3-0.3-0.6-0.4-0.4-1.1h-0.8c0.8,0.9-0.3,1.1,0.4,1.9c-0.5-0.1-0.3,0.4-0.6,0.4c-1.5-0.7-3.2-1.2-4.9-1.5
				c0.1-0.5,0.1-1.1-0.6-0.8c-0.3-0.7,0.7-0.2,0.4-0.8c-0.7-0.3-0.2,0.7-0.8,0.4c0,0.6,0.7,0.4,0.4,1.3c-0.6-0.4-1.4-0.6-2.1-0.4
				V4.4c-0.3,1.6-3.3,0.7-3.8,0c-1,0.8-2.7-0.4-4.7,0c0.2-0.6-0.7-0.3-0.4-1.1c-0.5-0.1-0.4,0.3-0.4,0.6c-7-0.5-14.4,0.8-19.7,0.4
				C87,4.7,88.3,4.7,88,5.2C79.6,5.9,73.9,9.5,67,11.8c-2.5,2.7-7,3.4-9.2,6.4c-1.4-0.2-1,1.3-2.3,1.1c-0.3,0.6-1,1-1.3,1.7
				c-1.6,0.5-2.9,2.4-4.5,3.4c-1.3,0.9-2.4,2.1-3,3.6h-0.8c-0.3,2-2.5,2-2.8,4h-1.1v1.5c-3.4,3.2-5.6,7.7-7.9,12.1
				c-0.5,0.1-0.3-0.4-0.6-0.4c-0.6-0.1,0.2,1.2-0.6,0.8c-0.3,0.7,0.7,0.2,0.4,0.8c-0.9,0.3-0.7-0.5-1.3-0.4c0-0.6,0.7-0.4,0.4-1.3
				c0.9,0.3,0.7-0.5,1.3-0.4c-0.2-0.2-0.4-0.4-0.6-0.6c-0.5-0.1,0.1,1-0.6,0.6c0.3-0.8-0.6-0.4-0.4-1.1c-0.6,0.4,0.4,1,0.4,1.5
				c-1.1,0-0.6,1.7-1.3,2.1C30.4,47.3,30.7,46.2,30.2,45.9L30.2,45.9z M59.8,14.9c-0.6,0.1-1,0.6-0.8,1.5
				C59.8,16.4,59.9,15.7,59.8,14.9z M98.6,2.3c0.8,0.5,1-1.1,0.2-0.8C98.9,1.9,98.6,1.9,98.6,2.3z M93.7,3.6
				c0.5-0.1,0.9-0.6,0.9-1.1c0-0.1,0-0.1,0-0.2C94,2.4,94.1,3.3,93.7,3.6L93.7,3.6z M118.2,5.1V3.8c-0.4,0.1-0.5-0.3-0.8-0.2
				C117.5,4.2,117.6,4.9,118.2,5.1L118.2,5.1z M124.5,6.1c0.1-0.9-0.2-1.4-0.8-1.5C123.6,5.5,123.7,6.2,124.5,6.1L124.5,6.1z
				 M126.9,7h0.6c-0.1-0.5-0.6-0.6-1.1-0.8C126.2,6.8,127.2,6.3,126.9,7L126.9,7z M131.1,8.3h0.8c-0.1-0.4,0.2-1.1-0.4-0.8
				C131.8,8.1,130.9,7.6,131.1,8.3L131.1,8.3z M133.7,8.9c0.4-0.1,0.8-0.3,0.6-1.1C133.8,7.8,133.6,9,133.7,8.9L133.7,8.9z
				 M134.3,8.9c-0.1,0.6,0.6,1.7,0.6,1.5c-0.4-0.6,0.2-2.2-0.2-1.9C134.7,8.7,134.7,9,134.3,8.9L134.3,8.9z M44.5,29.1h-1.3
				C43,30.4,44.4,29.5,44.5,29.1L44.5,29.1z M33.4,41.6h1.3v-0.8c-0.7-0.3-0.2,0.7-0.8,0.4c0-0.3-0.1-0.5-0.4-0.4L33.4,41.6z"/>
			<path id="Path_16400" class="st0" d="M161.3,28.2c-0.3,0-0.8-0.1-0.8,0.2c0.4,0.7,0.8-0.3,1.3-0.2c0,0.6,0.6,0.6,0.8,1.1
				c0.1,0.5-0.4,0.3-0.4,0.6c0.3,0.8,0.3-0.5,0.8-0.2c0.5,0.9,0.9,2,1.9,2.3v1.1c0.1,0.3,0.5,0.2,0.8,0.2c0,0.7,0.5,0.9,0.6,1.5
				c4.3-0.3,7.5-1.7,11-2.8c-0.2,0.8,0.4,0.9,0.6,1.3c0.7-0.4-0.6-0.5-0.2-1.3c4.7-0.9,8.5-2.7,13.4-3.4c-0.1,1.7,1,2.9,0.2,4
				c0.1,0.3,0.5,0.2,0.8,0.2c-0.2,2.7,2.1,5.3,1.3,7.2c1.2,1.2,1.3,3.5,1.9,5.3c-0.6,0-0.4-0.7-1.3-0.4c2,1,2.6,3.6,2.1,6.4
				c0.6,0-0.3-1.6,0.6-1.3c-0.3,2.3,1.8,4.2,0.8,5.7c2.1,2.6,1.6,7.7,3.6,10.4c0.2,4.5,2,7.5,2.8,11.5c-8.3,2.2-16.7,4.3-24.9,6.6
				c0,0.7,0.1,1.5-0.4,1.7c1.1,1.2-0.5,2.7,0,4.7c-1,2.4-0.7,5.3-1.5,7.9c-0.1,0.4-0.8,0.7-0.8,1.1c-0.4,1.4-0.3,2.7-0.6,4
				c-0.1,0.2-0.8,0.7-0.8,1.1c-0.1,0.5,0.1,1,0,1.3s-0.7,0.3-0.8,0.6c-0.2,0.4,0.1,0.9,0,1.3c-0.1,0.3-0.7,0.5-0.8,0.8
				c-0.3,0.6,0,1.4-0.2,1.9c-0.1,0.3-0.6,0.3-0.8,0.6c-0.7,1.1-0.9,2.9-1.5,4c-0.3,0.5-1,1-1.3,1.5c-0.1,0.2,0.1,0.6,0,0.8
				c-0.1,0.3-0.7,0.2-0.8,0.4c-0.5,0.8-0.5,2-1.1,2.8c-0.4,0.6-1.3,0.9-1.7,1.5c-0.4,0.5-0.2,1.3-0.6,1.9c-0.3,0.4-1,0.5-1.3,0.8
				c-0.8,1.2-1.3,3-2.8,3.6v-0.8c-0.5,0-0.5,0.5-0.8,0.6c0.1,0.3,0.5,0.2,0.8,0.2c-2.4,3.9-6.3,6.1-8.9,9.8
				c-0.8,0.4-0.1-0.9-0.6-0.8c-0.5,0-0.1,0.9-0.2,1.3c-0.7,0.3-0.2-0.7-0.8-0.4c-0.3,0.7,0.7,0.2,0.4,0.8c-2.7,1.7-5.1,3.9-7.9,5.5
				c-0.6,0.2-0.4-0.5-0.4-0.8c-0.6,0.5,0.2,1-0.2,1.5c-5.6,2.7-10.5,6.1-17.4,7.4v-1.1c-1.1,0.3-0.2,0.9,0,1.5
				c-1.1,0-2.3,1.1-2.5-0.4c-0.5,0-0.1,0.9-0.2,1.3c-0.9-0.1-1.9,0.2-2.5,0.8c-0.6,0.2-0.4-0.5-0.4-0.8c-0.8,0.1-0.7,1.1-1.7,1.1
				c0.1-0.4-0.1-0.7-0.4-0.6c-0.5,1.1-2.3,0.9-3.4,1.5c-0.2-0.6,0.7-0.3,0.4-1.1c-1.5,1.4-4.6,1.3-6.8,1.9c-1.9-0.7-5,0.3-8.7,0
				c0.8-0.8,0.3-1.7-0.2-2.3c0.8-0.3,0.4,0.5,0.8,0.6c0.3-0.2,0.3-0.7,0.6-0.8c-0.1-0.7-1.2-0.4-1.3-1.1h2.1c0.3,1-0.7,0.7-0.4,1.7
				c0.6,0.3,0.5-1.8,0.8-0.4c0.5,0,0.1-0.9,0.2-1.3c0.6-0.2,2.2,0.5,2.1-0.4c0.5,0.9,0.8-0.4,1.9,0v2.1c-0.9,0.3,0-1.3-1.1-0.8
				c-0.3,0.1-0.2,0.5-0.2,0.8c1.6,1.1,1.5-1.3,2.8-1.3c0.2,0.6-0.7,0.3-0.4,1.1c0.1,0.5,1.3-0.1,0.8,0.8c0.8,0.3,0.1-1,0.8-0.6
				c-0.1,0.7,0.4,0.7,0.6,1.1c0.3-0.1,0.2-0.5,0.2-0.8c-0.1-0.3-0.5-0.2-0.8-0.2c-0.3-1.3,0.8-1.3,0-2.1c1.1-0.1,3.1-1,4,0
				c1.1-1.1,3.9-0.6,5.3-1.5c0.7-0.3,0.2,0.7,0.8,0.4c0.1,0.4-0.2,0.4-0.4,0.4c0.3,0.4,0.7-0.2,1.3,0.2c0.2-0.8-0.7-0.5-0.4-1.5
				c2.7-0.6,5.7-1,7.6-2.3c0.5-0.1,0.3,0.4,0.6,0.4c0.3-1.1,2.5-2,3.2-1.3c3.9-2.7,8.5-4.6,12.8-7V140c1.1,0.1,1.4-0.9,2.3-0.4
				c-0.1-0.2-0.5-0.2-0.4-0.6c3-1.4,4.3-4.5,7.6-5.5v-0.8c0.3,0.3,0.5,0.6,0.8,0.8c-0.7-2,2.4-3.1,3-5.1c1.2,0.2,1.2-0.8,1.5-1.5
				c0.4,0,0.5,0.3,0.8,0.2c0-1.3,0.7-2.4,1.9-3c-0.1,0.7,0.4,0.7,0.6,1.1c0.5-0.4-0.7-0.9-0.6-1.5c0.9-1.2,2-2.3,2.8-3.6
				c0.2,0.7-0.2,0.8-0.4,1.1l0.6,0.6c0.1-1.5,0.5-3,1.1-4.5c1.1,0.4,0.8-0.6,1.5-0.6c0.3-0.7-0.7-0.2-0.4-0.8
				c4.7-7.2,7.4-16.4,9.6-26.1c-0.1-0.2-0.5-0.2-0.4-0.6c1-0.3,0.2-2.4,0.4-3.4c-1-0.2-1.3,0.3-2.1,0.2c0.3-0.9-0.7-0.5-0.8-1.1
				c-0.4-0.1-0.4,1.2,0.2,0.8c-3.1,1.5-6.4,2.5-9.8,3c0-0.8-0.4-1.1-1.3-1.1c0.1,0.5,0.7,0.6,0.4,1.5c-3.4,0.4-7,2.8-10.4,1.9
				c-0.3,0.1-0.2,0.5-0.2,0.8c-13,3.7-26.3,7-39.3,10.6c-0.7,0.2-0.4-0.8-0.8-0.8c-0.5,0-0.1,0.9-0.2,1.3c-3,0.2-5.1,1.4-7.4,1.3
				c-0.1-0.9,1.6,0.1,1.1-1.3c0.7-0.2,0.8,0.2,1.1,0.4c0.5-0.1-0.1-1.3,0.8-0.8c-0.2-0.6-0.3-1.3-0.2-1.9c0.3,0.6,0.8,0.5,0.6-0.4
				c0.7-0.1,1.3,0,1.5,0.4c0.3-0.1,0.2-0.5,0.2-0.8c5.7-1.1,10.8-2.8,16.1-4.3c2-0.1,4-0.7,5.7-1.7c1.1,0.8,2.4-0.9,4.3-0.6
				c0.2,0.7-0.5,0.4-0.6,0.8c0.9,0.3,1.3-1.2,2.3-1.7c0.6-0.3,1.4,0.2,1.9-0.4c0.1,0.4-0.3,1.3,0.2,1.3c0.5,0,0.1-0.9,0.2-1.3
				c4.9-1.1,9-3,14.7-3.4c1.3-1.6,4.7-1.3,6.4-2.5c2,0.6,4.6-1.4,7.2-1.5c-0.2,1.2,1,1.2,1.3,1.9c0.5-0.9-1.3-1.3-1.3-2.3
				c1-0.3,0.8,0.6,1.3,0.8c0.5,0,0.1-0.9,0.2-1.3c1.1,0.5,2-0.9,2.1,0c2-0.8,5-2,7-1.5c0.3-0.7-0.7-0.2-0.4-0.8
				c0.5-0.2,1.6,0.4,1.5-0.4c2.6,0.3,6.6-1.5,9.5-2.3c0.3,0.7-0.7,0.2-0.4,0.8c0.9,0.1,0.6-0.9,1.1-1.3c4.6,0.5,7.9-3.3,11.3-1.9
				c0.6-0.5,1-2,0-2.3c-0.6,0,0.3,1.6-0.6,1.3c-0.1-4.8-3.3-8.5-2.3-13c0.8-0.3,0.1,0.7,0.6,0.6c0.8-0.4-0.4-0.6-0.2-1.1
				c0.3,0,0.4-0.1,0.4-0.2c0-0.5-0.8-0.1-1.1-0.2c-0.5,0-0.1,0.9-0.2,1.3c-2-4.1-2.5-9.6-4.3-14c-0.3-0.9,0.4-0.9,0.4-1.5
				c-0.1-0.3-0.5-0.2-0.8-0.2c-0.9-4.3-2.2-8.3-3.2-12.5c1.2,0.8,0.6-1.2,1.7-1.1c-0.5-0.1-1-0.5-1.1-1.1c-0.5,0.2-0.1,1.2-0.2,1.7
				c-1.5,0.5-0.5-1.6-1.5-1.7c0.1-0.5,1.1-0.2,1.3,0c0.4-0.2,0.1-1.2,0.6-1.3l-0.6-0.6c-0.6-0.2,0.2,1-0.4,0.8
				c-0.9,0.1-0.1-0.4-0.2-0.8c-1.3-0.3-1.1,0.7-1.9,0.8c0.1,0.7,0.7,0.8,0.8,1.5c-1.1,0.8-2.7,1-3.8,1.7c-0.8,0.4-0.1-0.9-0.6-0.8
				c-0.4,0.4-0.2,1.2-1.1,1.1v-1.5h-0.6c-0.4,0.3-0.1,1.5-0.4,1.9c-8,1.8-15.4,4.3-23.6,5.9v-1.5c-0.4,0-0.5,0.3-0.8,0.2
				c0.2,0.5,0.6,0.8,0.4,1.7c-14.5,3.8-29.1,7.5-43.1,11.7c-2.3-0.5-3.6,1.8-5.3,0.4c-0.2,0.4-0.4,0.8-0.6,1.3
				c-1-0.7-2.8,0.5-4.3,0.6v-1.1h-1.3c0.4,0.8,0.4,0.3,0,1.1c-0.8-0.8-1.1,0.3-2.5,0c-0.5,0-0.1,0.9-0.2,1.3c-1.5-0.8,1.1-1.7,0-2.3
				h0.8v-0.8c-0.6-0.2-0.3,0.7-1.1,0.4c-0.3,0.5-0.4,1.1-1.3,1.1c0.3-0.3,0.7-0.4,0.6-1.1c-0.5,0.5-1.2,0.8-1.9,0.8
				c1-0.1,0.5,1.3,1.7,1.1v1.3c-0.8-0.4-0.7-1.7-1.9-1.7c-0.2,0.8-0.8,1-1.3,1.5c0.3,0.6,0.6-0.6,1.5-0.2v0.8c-0.5,0-1,0-1.5,0.2
				c-0.3-0.8-1.6-0.5-1.7-1.5c-0.6,0.2,0.1,0.9,0,1.3c-0.6-0.5-1-1.3-1.1-2.1c-0.8-0.2-0.9,0.4-1.3,0.6c0.4,0.3,0.5,0.8,1.3,0.6v1.5
				c0.7,0.3,0.2-0.7,0.8-0.4c0.3,0.7-0.7,0.2-0.4,0.8c-14.5,3.6-28.7,7.4-42.7,11.5c-1.5,0.1-3.1,0.5-4.5,1.1
				c-0.5,0.1-0.4-0.3-0.4-0.6h-1.1c-0.3,0.8,0.6,0.4,0.4,1.1c-1.2-0.3-2.2,1.1-3,0c-0.7,1.5-3.4,1.7-4.7,0.8
				c-0.2,0.6,0.7,0.3,0.4,1.1c-1,0.3-0.4-1.1-1.5-0.6c0.1,0.2,0.5,0.2,0.4,0.6c-1.4,0.3-3.5,1.6-4.5,0c-0.6,0.2,0.3,0.7,0,1.3
				c-0.8,0-0.8,0.7-1.9,0.4c0-0.3,0.1-0.8-0.2-0.8c-0.4,0.2-0.3,0.9-0.4,1.3c-1.2,0.1-2.4,0.3-3.6,0.6c-0.1-0.5,0.4-0.3,0.4-0.6
				c-0.6,0-1.1,0.5-1.3,1.1c-0.4,0.1-0.4-0.2-0.4-0.4c-0.3,0.1-0.2,0.5-0.2,0.8c-1-0.6-2.2-0.6-3.2,0V76c-0.6,0.1-0.8,0.8-1.3,1.1
				c0.4,0.7,0.5-0.6,1.3-0.2v0.8c-2.2-0.6-2.9,1.4-4.5,0.2c-0.6,0.1,0.2,0.5,0,0.8c-1.2,0.2-2.3,0.4-3.4,0.8
				c-0.2-0.7,0.2-0.8,0.4-1.1c-0.6-0.3-1.4-1.6-2.1-1.1c0.4,0.6,1,0.9,1.7,0.8c-0.4,0.6-0.4,1.6-1.3,1.7c-0.7,0.2-0.4-0.8-0.8-0.8
				c-0.2,0.4-0.4,0.8-0.6,1.3c-1.2,0-2.4,0.2-3.6,0.6c-0.1-0.3,0.3-1.1-0.2-1.1s-0.1,0.9-0.2,1.3c-0.2,0.7-0.3-0.4-0.2-0.6
				c-1,0.3-0.9,1.6-2.5,1.3v-1.3c-0.6-0.1,0.2,1.2-0.6,0.8v-0.8c-0.7,0.2-0.8-0.3-1.5-0.2c-0.8,0.7-0.2,1.9-0.2,3h0.6
				c0.5-0.1,0.1-1.1,0.2-1.5c0.9-0.3,0.7,0.5,1.3,0.4c-0.2,1.4,0.3,2.1,0.2,3.4c-0.2,0-0.2-0.1-0.2-0.2H3.2
				c-0.2-0.6,0.7-0.3,0.4-1.1c-0.4-0.2-0.4-0.8-1.1-0.6c-0.3,0.1-0.2,0.5-0.2,0.8H1.3c0.1-2.2-1.3-3-1.3-5.1
				c0.7-0.2,0.8,0.2,1.1,0.4c0.3-0.1,0.2-0.5,0.2-0.8c1.3,0.3,2.4-1.2,3.2,0c0.4-0.4,1.2-0.5,1.3-1.3c0.7-0.2,0.7,0.3,0.6,0.8
				c0.5-1.5,2-0.8,3.4-1.5c-0.2,0.8,0.7,0.5,0.4,1.5H11V78c0.2-0.6-1,0.2-0.8-0.4c0.3-0.8,2-1.7,2.5-0.8c0.3-0.1,0.2-0.5,0.2-0.8
				c0.5-0.1,0.3,0.4,0.6,0.4c2.4-1.5,6.2-1.5,8.9-2.8c1-3.1,0.9-6.6,1.5-9.8c0.6-2.9,1.7-5.4,1.9-8.3h0.8c-0.5-1.2,0.3-1.6,0.2-3.4
				c0.9-0.1,0.6,0.9,1.7,0.6c0.2,0.6-0.7,0.3-0.4,1.1c0.1,0.5,1.1,0.1,1.5,0.2c-0.6-1-0.6-2.2,0-3.2c-0.9-0.1-0.6,0.9-1.1,1.3
				c-0.6,0-0.4-0.7-1.3-0.4c0-0.6,0.7-0.4,0.4-1.3h1.3c0.3-0.9-0.4-0.9-0.4-1.5c0.9,0.1,0.3-1.3,0.4-1.9h1.1
				c-0.2,0.8-0.6,1.5-1.1,2.1c1.1,0.7,1-1.6,1.9-1.9v1.3c0.6-0.4,0.9-1.2,0.8-1.9c0.5,0.3,0.6,0.9,1.1,1.3c-0.1,1.3-1.4,1.5-1.1,3.4
				c-1,0.3,0-1.3-0.6-1.3c-0.5,0.3-0.2,1.4,0.2,1.5c-2.2,6.3-4.4,12.7-4.7,21.1c3.1-0.7,5.6-1.9,8.9-2.3c-0.3,1,0.7,0.6,1.3,0.6
				c0.2-0.6-0.7-0.3-0.4-1.1c3.7-0.4,6.5-2.7,10.4-2.1c0.3,0,0.2-0.4,0.2-0.6c2.7-0.8,5.6-1.4,8.1-2.3c3.5-0.6,6.9-1.5,10.2-2.8
				C73.5,60,81.5,58,89,55.5c2.3,0.2,3.6-1.6,5.7-0.8c0.3,0,0.2-0.4,0.2-0.6c0.4,0.1,1.5-0.4,1.3,0.4c0.2-0.3,0.7-0.3,0.6-0.8
				c18.6-4.9,37.1-9.9,55.6-14.9c0.7-0.1,0.3,1,1.3,0.6c0.3-0.8-0.6-0.4-0.4-1.1c3.5-0.5,6.3-1.6,9.6-2.3c-0.9-1.1-1.6-2.5-2.5-3.6
				c0.8,0.1,1.3-0.3,1.3-1.1c-0.5,0.4-1.2,0.6-1.9,0.6v-1.1h1.1c0.3-1.3-0.3-1.6-0.6-2.3c-0.6,0.2-0.6,0.7-1.1,0
				c-0.3,0-0.2,0.4-0.2,0.6c-0.7-0.3-0.7-0.1-1.5,0c1.2-1-2.2-0.3-1.3-2.3c-0.7-0.3-0.2,0.7-0.8,0.4c0.1-1-0.5-1.2-1.1-1.5
				c-0.4-0.8,0.9-0.1,0.8-0.6c-3.1-0.3-3.8-2.8-5.9-4c-0.3-0.7,0.7-0.2,0.4-0.8c-0.7-0.3-0.2,0.7-0.8,0.4c-1.9-0.5-0.6-2.8,0-3.8
				c0.2-0.6-1,0.2-0.8-0.4c1.1-1.1,3,0.6,3.2,1.9c-0.8-0.7-0.8,0.3-1.3-0.4c-0.8,0.6,0.6,0.9,0.2,1.9c0.5,0,0.1-0.8,0.2-1.1
				c4.9,0,5.5,4.4,8.7,6.1v1.5c0.6,0.2,0.8-0.2,1.3-0.2C160.3,27.2,161,27.5,161.3,28.2L161.3,28.2z M114.4,153.4
				c-0.7,0.3-0.2-0.7-0.8-0.4c0.3,1.2-0.6,1.1-0.4,2.1h0.8C113.7,154.2,114.2,153.9,114.4,153.4L114.4,153.4z M162.6,121.9
				c0.3,0.7-0.7,0.2-0.4,0.8c0.7,0.3,0.2-0.7,0.8-0.4c0,0.2,0.1,0.4,0.2,0.6c0,0.6-0.8,0.5-0.6,1.3c1.1,0.1,0.6-1.4,1.9-1.1
				c-0.3-0.9,0.5-0.7,0.4-1.3C164.2,121.6,163.7,122.1,162.6,121.9L162.6,121.9z M103.9,53.7c0.1,0.6,0.9,0.5,1.3,0.8
				c-0.3-0.9,0.5-0.7,0.4-1.3C105.1,53.5,104.9,54,103.9,53.7L103.9,53.7z M156.6,27.8c0.9-0.3,0.7,0.5,1.3,0.4
				c0-0.7-0.3-1.3-0.8-1.7C157.1,27.2,156.3,27,156.6,27.8L156.6,27.8z M158.1,27.4v0.8c0.9,0.3,1.9-1.1,0.8-1.3
				C159.2,27.6,158.5,27.3,158.1,27.4L158.1,27.4z M191.3,30.6c-0.1-0.5-0.6-0.9-1.1-0.9c-0.1,0-0.1,0-0.2,0
				c0.1,0.5,0.6,0.9,1.1,0.9c0,0,0,0,0,0C191.2,30.6,191.2,30.6,191.3,30.6L191.3,30.6z M190.8,36.1c0.2-0.5-0.2-1.1-0.7-1.2
				c-0.1,0-0.1,0-0.2,0C190.4,35.2,190.2,36,190.8,36.1L190.8,36.1z M172.8,36.1c0.4-0.3,1-0.3,1.1-0.8h-1.1V36.1z M158.1,38.9
				c1,0.3,0.7-0.7,1.7-0.4v-0.8C158.8,37.5,158.5,38.2,158.1,38.9L158.1,38.9z M155.1,39.5c0.2-0.7-0.3-0.7-0.8-0.6
				C154.3,39.4,154.7,39.4,155.1,39.5L155.1,39.5z M193.6,49.1c0.4-0.3,1-0.3,1.1-0.8H194C194.3,48.9,193.3,48.4,193.6,49.1z
				 M194.6,51.8c0.8,0.1,0.3-1.2,0.4-1.7c-0.7,0.2-0.8-0.2-1.1-0.4C193.8,50.8,195.1,50.5,194.6,51.8L194.6,51.8z M199.4,65.9v-1.1
				h-0.6C198.6,65.5,199.1,65.5,199.4,65.9L199.4,65.9z M200.6,65.9h-0.8c0.3,1.1-0.8,0.8-0.6,1.9c0.3,0,0.7,0,0.6,0.4
				c0.6,0,0.4-0.7,1.3-0.4v-1.1c-0.8-0.4-0.1,0.9-0.6,0.8c-0.2-0.3-0.7-0.3-0.6-0.8h0.8V65.9L200.6,65.9z M200.6,70.9
				c0.6-0.2,0.9-0.9,0.8-1.5C200.9,69.7,200.8,70.4,200.6,70.9L200.6,70.9z M174.7,85.2v-0.8h-0.8C173.7,85.1,174,85.3,174.7,85.2z
				 M176.6,87.9c0.7-0.4,0.8-1.5,1.3-2.1h-1.3L176.6,87.9z M177.5,91.3h0.8c0.3-0.6-1.8-0.7-1.1-0.4C177.4,91,177.5,91.1,177.5,91.3
				L177.5,91.3z M113.5,100.1h0.8c-0.1-0.4-0.4-0.8-0.8-0.8V100.1z M110.7,101.5v-1.1h-0.8C109.9,101.2,110.3,101.4,110.7,101.5
				L110.7,101.5z M164.9,119.6h0.8c-0.3-0.4-0.3-1-0.8-1.1V119.6z M145.6,141.3v-0.8H145C144.9,141,144.9,141.5,145.6,141.3z
				 M140.9,144.9c0.4-0.1,0.8-0.4,0.8-0.8c-0.4-0.4-0.2-1.2-0.8-1.3c-0.2,0.9,0.3,1.2,0.4,1.7C141.1,144.5,140.8,144.5,140.9,144.9
				L140.9,144.9z M138.6,145.5v0.8h1.3c-0.2-0.5,0.5-1.6,0-1.1C139.8,145.8,138.9,145.4,138.6,145.5z M134.3,149.1v-0.8h-0.8
				C133.3,149,133.6,149.3,134.3,149.1L134.3,149.1z M128.8,151c0.5-0.9-1.2-1.3-0.6-0.8C128.7,150.1,128,151.4,128.8,151L128.8,151
				z M125.2,151c0.3,0,0.8-0.1,0.8,0.2v0.6c0.6-0.2,1-0.7,1.1-1.3c-0.8,0-0.8-0.7-1.9-0.4V151L125.2,151z M101,155.7
				c0.1,0.4-0.2,1.1,0.4,0.8c0.1-0.9,1.1-0.9,1.5-1.5c-0.9,0.3,0.1-1.2-0.8-0.8C102,155,101.8,155.7,101,155.7L101,155.7z
				 M103.9,156.4c-0.4-0.4,0-0.5,0-1.1h-0.6v0.8C103.9,155.7,103.7,157.1,103.9,156.4L103.9,156.4z M29.8,50.6c0.5,0,0.9-0.5,0.8-1
				c0,0,0,0,0-0.1C30,49.5,29.7,49.7,29.8,50.6L29.8,50.6z M28.3,55.2c0.1-0.7-0.4-0.9-0.8-1.1C27.4,54.9,27.8,55.1,28.3,55.2
				L28.3,55.2z M29.2,56.9v-0.8h-0.8C28.2,56.8,28.4,57.1,29.2,56.9L29.2,56.9z M28.3,57.3c-0.6,0-0.4-0.7-1.3-0.4
				C26.6,57.8,28.2,57.7,28.3,57.3L28.3,57.3z M47.2,69c0.8,0.5,1-1.1,0.2-0.8C47.5,68.6,47.2,68.7,47.2,69L47.2,69z M24.7,70.3h0.8
				c-0.1-0.4,0.2-1.1-0.4-0.8C25.4,70.1,24.5,69.6,24.7,70.3L24.7,70.3z M35.3,72c0.1,0.5-1-0.1-0.6,0.6c1,0.1,1.6-0.3,1.5-1.3h-0.8
				C35.3,71.6,35.3,71.8,35.3,72L35.3,72z M31.5,74.1v-0.8h-0.8C30.7,73.7,31.1,74.1,31.5,74.1L31.5,74.1z M15.4,78.8
				c0.2-0.8-0.8-0.3-1.3-0.4C13.9,79.1,14.9,78.7,15.4,78.8L15.4,78.8z M8.3,80.1c0.1-0.5-0.2-1.1-0.7-1.2c0,0,0,0,0,0
				c0,0-0.1,0-0.1,0C7.9,79.1,7.7,80,8.3,80.1z M10.3,80.1v-0.8H9.4C9.2,80,9.5,80.3,10.3,80.1z M5.2,81.2c0-0.8-0.4-1.1-1.3-1.1
				C4.2,80.6,4.2,81.3,5.2,81.2L5.2,81.2z"/>
			<path id="Path_16401" class="st0" d="M1.6,86.2c0.9,0.8,0.7-0.1,1.3-0.6c0.4,0.1,0.9,0.1,0.8,0.6c0.2-0.1,0.2-0.5,0.6-0.4v-1.9
				c1.1,0.5,0,2,0,2.8C5,86.9,4.5,86,5.1,86.2c0.8,4.3,3.3,9.1,2.8,13.2c0.3,0.8,0.3-0.5,0.8-0.2c0.1,1,0.1,2,0,3
				c1.7,2.4,2.4,5.9,3,9.5c-1.2,0.6-0.7,2.8-1.9,3.4c0,0.3,0.4,0.2,0.6,0.2c0.2-1,1.4-1.1,1.1-2.5c0.2-0.4,0.2,0.1,0.2,0.4
				c0.1,0.3,0.5,0.2,0.8,0.2c0.1,3.1,2,5.1,1.3,7.9c0.2-0.1,0.2-0.5,0.6-0.4v1.5c-0.3,0.1-1.1-0.3-1.1,0.2c0.4,0.7,1.1-0.2,1.5-0.2
				c0.8,1.6-0.6,3,0.6,4c0.4-0.7,0.7-1.4,1.1-2.1c1.1-0.3,0.9,0.6,1.9,0.4c0.1-0.4-0.2-0.4-0.4-0.4c14-4,28.5-7.6,42.5-11.7
				c0.7-0.1,1.1,0.1,1.3,0.4c0.3-0.1,0.2-0.5,0.2-0.8c0.4,0.1,0.8,0.4,0.8,0.8c0.4-0.3-0.2-0.7,0.2-1.3c4.5-0.8,9-1.9,13.4-3.4
				c1,0.2,2-0.1,2.8-0.8c0.7,0.7,1.5-0.2,2.3-0.4c0,0.6-0.7,0.4-0.4,1.3c0.3-0.9,1.7-0.7,1.9-1.7c0.5,0.1,0.6,0.7,1.5,0.4
				c0.3-0.1,0.2-0.5,0.2-0.8c2.3,0.1,4.8-1.9,6.4-1.1c0.5-0.5,0.8-1.1,1.9-0.8c0.1,0.5-0.4,0.3-0.4,0.6c0.4,0.2,0.8,0.4,1.3,0.6
				c0.5,0,0.1-0.9,0.2-1.3c-0.4-0.1-0.4,0.2-0.4,0.4c-0.8-0.9,0.8-1.2,1.7-1.1c-0.9,0.5-0.1,0.8,0.8,0.6c-1.1-1.1,1,0,0.6-1.5
				c2.3,0,3.7-0.8,5.5-1.3c0.1,0.5-0.4,0.3-0.4,0.6c0,0.5,0.9,0.1,1.3,0.2c0.3-0.7-0.7-0.2-0.4-0.8c0.4,0.1,0.4-0.2,0.4-0.4
				c0.6,0.2,0.8,0.8,1.1,1.3c-0.5,0.3-1.3,0.3-1.1,1.3c-1.4,0.1-2.9,0.6-3.2-0.8c-0.6,0.5-1.5,0.7-1.5,1.9c-0.5-0.3-1.1-0.4-1.5-0.8
				c0.1,0.6-0.2,0.8-0.2,2.1c0.8-0.8,1.7-1.4,2.8-1.7c0.3,0.7-0.7,0.2-0.4,0.8c0.7,0.3,0.2-0.7,0.8-0.4c-0.3,0.9,1.2-0.1,0.8,0.8
				c-1.9-0.2-2.6,1-4.7,0.6c0.2-0.2,0.5-1.4,0-1.5c-0.6,0.6-0.5,1.8-1.3,2.3c-0.4-0.1-1.5,0.4-1.3-0.4c-0.6,0.1,0.2,0.5,0,0.8
				c-4.1,0.3-9.2,2.9-11.5,2.3c-0.3,0.1-0.2,0.5-0.2,0.8c-1.6-0.1-3,1.1-4.4,0.4c-0.3,0-0.2,0.4-0.2,0.6
				c-10.4,2.4-19.9,5.8-30.6,7.9c-0.1-0.5-0.5-0.7-0.6-1.1c-0.8,0.6,0.7,0.8,0.6,1.5c-2.2,0.4-4.3,1-6.4,1.7
				c1.4,2.3,3.2,4.5,5.1,6.4c0.3,0.7-0.3,0.5-0.4,0.8c-0.3,0.7,0.7,0.2,0.4,0.8c1.6-1.3,1.9,1.4,3.2,1.7c0.1,0.4-0.2,0.4-0.4,0.4
				c1-0.2,1.5,0.9,2.3,1.5c0.1,0.5-0.4,0.3-0.4,0.6c0.7,0.3,1.4,0.6,1.3,1.7c-1.1-0.1-1.2,1-1.3,1.9c-0.7-0.1-1.2-0.5-1.5-1.1
				c0.6,0,0.4,0.7,1.3,0.4c0.1-1.2-1-1.3-0.8-2.5H48c-0.5,0-0.1,0.9-0.2,1.3c-1.5-0.1-1.3-1.9-2.8-1.9c-0.1-2.1-3.3-2.4-2.8-4.4
				c0-0.5-0.5,0.3-1.1,0c-1.4-2.4-3.4-4.1-4.7-6.6c-8.2,1.7-15.4,4.3-23.6,5.9c0-0.9-1-2,0-2.5c-1.1-0.4-1.2-1.6-1.3-3
				c0.5-0.1,0.3,0.4,0.6,0.4c0.3,0,0.2-0.4,0.2-0.6c0-0.5-0.8-0.1-1.1-0.2c-1.8-6.7-3.6-13.4-5.5-20c-0.1-0.5,0.4-0.3,0.4-0.6
				c-0.9-0.9-1.9-3.6-1.3-4.7c-1.8-1.8-1.4-5.8-2.8-8.1c-0.4-0.8,0.9-0.1,0.8-0.6c-0.2-0.4-0.9-0.3-1.3-0.4
				C2.1,87.7,2,86.9,1.6,86.2L1.6,86.2z M7.9,101.1c0.4-0.1,0.9-0.1,0.8-0.6C8.2,100.4,7.7,100.4,7.9,101.1z M46.4,130.2
				c0.3,0.9-0.5,0.7-0.4,1.3c0.9,0.3,0.7-0.5,1.3-0.4v-0.8L46.4,130.2z M2.8,87.9h0.8c-0.1-0.4,0.2-1.1-0.4-0.8
				C3.5,87.8,2.6,87.3,2.8,87.9L2.8,87.9z M5.2,92.6v-1.3H4.3c-0.2,0.5,0.1,1.1,0.7,1.2C5,92.6,5.1,92.6,5.2,92.6L5.2,92.6z
				 M6.6,98.1h0.8c0.1-0.5-0.2-1.1-0.7-1.2c0,0,0,0,0,0c0,0-0.1,0-0.1,0L6.6,98.1z M26.4,123.6c0.7,0.1,0.4-0.9,0.6-1.3h-0.6V123.6z
				 M39.8,124.3c0.2-0.8-0.7-0.5-0.4-1.5c-0.5,0.1-0.9,0.6-0.9,1.1c0,0.1,0,0.1,0,0.2C39.3,123.4,39,123.9,39.8,124.3L39.8,124.3z
				 M23.2,125.1c0.5,0.1,1.1-0.2,1.3-0.7c0,0,0-0.1,0-0.1C24.2,124.6,23.3,124.5,23.2,125.1L23.2,125.1z M19,126.4
				c1,0,1.2-0.7,1.1-1.7h-0.8C19,125.2,18.9,125.8,19,126.4z M42.3,126.8c-0.5-0.5,0.2-1.4-0.2-1.7
				C41.6,125.7,41.6,126.5,42.3,126.8L42.3,126.8z M17.3,127h0.8c0.1-0.7-0.4-0.9-0.8-1.1V127z M45.5,131.5
				c-0.1-0.4,0.4-1.5-0.4-1.3C45.2,130.7,44.8,131.7,45.5,131.5L45.5,131.5z M46.3,133.4c0.4-0.1,0.8-0.4,0.8-0.8
				c-0.7,0.3-0.2-0.7-0.8-0.4V133.4z"/>
			<path id="Path_16402" class="st0" d="M99.7,18.9c0.3,0.3,0.6,0.4,0.4,1.1c-3-0.3-6.3,1.3-8.5,0.4c-1.8,1.5-5.6,0.9-7.4,2.3
				c-0.4,0.1-0.7-0.1-0.6-0.4c-0.5,1-1.9,0.9-2.5,1.7c-6.5,1.4-10.6,5.1-15.5,8.1c0.1-1,0.8-1.2,0.8-2.1c-0.1-0.3-0.5-0.2-0.8-0.2
				c3.4-2.9,7.4-5.2,11.7-6.6c0.2-0.3,0.7-0.3,0.6-0.8c3,0,4-1.9,7-1.9c0,0.3-0.1,0.8,0.2,0.8c0.5,0,0.1-0.9,0.2-1.3
				c0.7,0.9,1.1-0.6,1.1,0.8c0.7,0.3,0.2-0.7,0.8-0.4c0.3-0.7-0.7-0.2-0.4-0.8c1.6-0.4,4.6-1.2,5.3,0c0.9,0.1,0.9-0.7,1.3-1.1
				c1.1-0.2-0.4,0.9,0.4,1.1c0.7,0.2,0.3-0.6,0.4-1.1c1-0.3,3.6-1,4.4,0c0.2-0.6,1.1-0.4,1.9-0.4v0.8h0.6c0.3-0.1,0.2-0.5,0.2-0.8
				h2.3c-0.1,0.4-0.4,0.8-0.8,0.8c0.2,0.4,0.8,0.4,0.8,1.1h-2.3C101.2,19.2,100.5,18.8,99.7,18.9L99.7,18.9z M94.6,19.5
				c0.7,0,1.4-0.4,1.7-1.1C95.9,19,94.9,18.9,94.6,19.5L94.6,19.5z"/>
			<path id="Path_16403" class="st0" d="M119.4,21.9c0.2-0.7,2.2-1.1,2.3,0c0.2-0.1,0.2-0.5,0.6-0.4c0.6,0.9,2.4,1.8,3.2,1.3v0.8
				h-0.8c-0.1,0.6,0.4,0.4,0.6,0.6c0.5,0.1-0.1-1,0.6-0.6c-0.1,0.4,0.2,0.4,0.4,0.4c-0.3,0.3-0.6,0.4-0.4,1.1
				c-1.4,0-2.5-0.3-2.8-1.5c0.7-0.3,0.2,0.7,0.8,0.4c-0.1-0.6-0.8-0.8-1.1-1.3c-0.5,0-0.1,0.9-0.2,1.3c-1.7-0.4-3.6-0.6-4.3-2.1
				c-1,1-1.7-0.2-3.2,0v-2.3c1-0.3,0.6,0.6,1.5,0.4c-0.3,0.7-0.1,0.7,0,1.5C118,21.9,120.5,20.2,119.4,21.9L119.4,21.9z"/>
			<path id="Path_16404" class="st0" d="M129.9,25.5c1.6-0.4,1.5,1.1,2.8,1.1c-0.1,0.4-0.9,1.3-0.2,1.7c0.2-0.4,0.4-0.8,0.6-1.3
				c0.7-0.3,0.2,0.7,0.8,0.4c-0.4,0.7-0.4,0.5,0,1.3c-0.7-0.1-1.3,0-1.5,0.4c-0.7-0.5-1.4-0.9-2.1-1.3c0-0.6,0.6-0.6,0.8-1.1
				c-0.3-0.4-0.8-0.4-1.1-0.8c-0.6,0.3,0.6,0.6,0.2,1.5c-0.8-0.3-1.9-0.4-1.9-1.5c-0.6,0-0.4,0.7-1.3,0.4c0-0.4-0.3-0.5-0.2-0.8h1.1
				c0.3-1-0.6-0.6-0.4-1.5c1,0,1.1,0.7,2.1,0.6C129.6,25,129.9,25.1,129.9,25.5L129.9,25.5z"/>
			<path id="Path_16405" class="st0" d="M61.7,32.5c0.5,0.1,1.1,0.1,0.8-0.6c0.4-0.1,0.6,0.1,0.8,0.2c0.5,0,0.1-0.8,0.2-1.1
				c0.7-0.3,0.2,0.7,0.8,0.4c0.3-0.7-0.7-0.2-0.4-0.8c0.7,0,0.5-0.9,1.3-0.8c0.1,1.4-0.8,1.6-0.4,3.2c-1.4,0.5-2,2-3.6,2.3
				c0,1.1-0.8,1.5-1.5,1.9c0-0.2-0.3-0.2-0.4-0.2c0-0.8,1-0.5,0.8-1.5c0-0.3-0.4-0.2-0.6-0.2c-0.3,1-1.1,2-0.2,2.8
				c-4.1,3-5.9,8.2-9.8,11.5c-0.2-0.7,0.2-0.8,0.4-1.1c0-0.5-0.9-0.1-1.3-0.2c0.3-0.9,1.3-1,1.3-2.1c0.4-0.5,0.1,0.8,0,1.1
				c0.5-0.5,0.8-1.1,1.9-0.8v-0.6c-0.1-0.3-0.5-0.2-0.8-0.2c-0.3-1.1,0.6-0.9,0.4-1.9c1.4,0.1,0.9-1.7,2.3-1.5v-1.3
				c0.7-0.3,0.2,0.7,0.8,0.4c-1.3-1.5,1.2-1.6,1.1-3.2c1.1,0.3,1.7-2.5,2.1-0.8c0.5-0.1,0.1-1.1,0.2-1.5c1-0.3,1-1.4,2.1-1.5
				c0.4,0.4,0.2,1.3,0.2,1.9C61.3,35.2,61.8,33.9,61.7,32.5L61.7,32.5z"/>
			<path id="Path_16406" class="st0" d="M140.5,32.9c1.7-0.3,1.6,2.5,2.8,1.5c-0.2,0.9-0.3,1.8-1.1,2.1c0.1-1.1-0.9-1.1-1.7-1.3
				c0.1-0.5,0.6-0.9,1.1-0.9c0.1,0,0.1,0,0.2,0l-1.1-1.1c-0.5,0-0.1,0.8-0.2,1.1h-1.1c0-0.2,0.3-0.2,0.4-0.2
				C140.1,33.8,140.3,33.3,140.5,32.9z"/>
			<path id="Path_16407" class="st0" d="M47.9,51.8c0.2-0.9-0.3-1.2-0.4-1.7c0.5,0.1,0.4-0.3,0.4-0.6c0.6,0,1.2,0,1.7,0.2
				c0,1.1-0.7,0.9,0,1.7c-1.6,1.9-1.9,5.1-3.6,7c0.2,1.1-0.3,1.6-0.4,2.3c-0.7,0.2-0.3-0.7-0.8-0.6c-0.2,0.1-0.2,0.2-0.4,0.2
				c-0.6,0.5-0.1,1.8,0.2,2.1C44,62.3,44,62.7,44,63h-1.3c0.7-4.4,2.7-7.5,4-11.3C47.1,51.8,47.5,51.8,47.9,51.8L47.9,51.8z
				 M47.4,52.9c0.8,0.1,1.3-0.3,1.3-1.1C47.9,51.8,47.4,52.1,47.4,52.9L47.4,52.9z"/>
			<path id="Path_16408" class="st0" d="M138.6,80.5c-0.3,0.5-0.9,0.8-1.5,0.6C137,80.4,138.2,80.8,138.6,80.5z"/>
			<path id="Path_16409" class="st0" d="M81,84.3c-1.3-0.3-1.4,0.7-2.8,0.4C78.7,84.4,80.6,83.4,81,84.3z"/>
			<path id="Path_16410" class="st0" d="M150.3,111.8c1,1-0.1,2.1-0.2,3.2h-0.8c-0.1,1.7-1.8,1.8-1.9,3.6c-2.2,1.2-3.2,3.6-5.5,4.7
				v0.8c-1.6-0.4-1.8,2.4-3,1.1c-0.7,0.4,0.3,0.8,0.2,1.3c-1.6-0.5-1.4,0.8-2.3,1.1c-0.1-0.3,0.3-1.1-0.2-1.1
				c-0.2,0.8-0.5,1.4-1.7,1.1c-0.3,0.8,0.7,0.1,0.6,0.6c-1.7,2.3-4.9,3.1-7,4.9c-0.5,0.1-0.3-0.4-0.6-0.4c-0.4,1.3-2.6,1.9-3.8,1.7
				c-2.6,2.3-7.2,2.6-10.8,3.8c-0.5,0.1-0.3-0.4-0.6-0.4c-0.7,1-3,0.6-4,1.3c0-0.3,0.1-0.8-0.2-0.8c-0.3,0.1-0.2,0.5-0.2,0.8
				c-3.4,0-6,0.3-8.3,0.4c-0.2-0.7,0.1-1,0.8-0.8v-0.6c-0.2-0.4-1-0.2-1.1-0.6c-0.4,0.4-1,0.6-1.3,1.1c0.4,0.7,1.1-0.2,1.5-0.2
				c0,0.6-0.7,0.4-0.4,1.3c-1.2-0.6-2.5-0.7-3.8-0.4v-0.8c-0.7,0-0.5,0.9-1.3,0.8c-0.7,0.2-0.4-0.8-0.8-0.8c-4.6,0.8-9.2-2-13.6-2.8
				c0.3-0.7-0.7-0.2-0.4-0.8c-0.7-0.3-0.2,0.7-0.8,0.4c-0.4-0.7-1.4-0.8-2.3-1.1c-0.1-0.7,0-1.3,0.4-1.5c-0.5-0.6-1.5,0-1.5,0.6
				c-0.5-0.2-0.8-0.6-1.7-0.4c0.2-0.6-0.3-0.5-0.2-1.1c-2,0-3.9-1.1-4.9-2.8c-0.2,0.1-0.2,0.5-0.6,0.4c-0.2-0.5-0.6-0.8-0.4-1.7
				h-0.8c-0.3,0.7,0.7,0.2,0.4,0.8c-0.9-0.5-1.7-1.1-2.3-1.9h1.1c-0.2-0.5-0.3-1.1-0.2-1.7c-0.6,0.4-0.9,1-0.8,1.7
				c-0.6,0-0.4-0.7-1.3-0.4c-0.3-1,0.7-0.7,0.4-1.7c-0.8-0.2-0.3,1-1.1,0.8c0.3-0.7-0.7-0.2-0.4-0.8c1.1,0,0.9-0.6,1.1-1.1
				c2.7,2,5.5,3.8,8.3,5.7c0,0.6-0.7,0.4-0.4,1.3c0.5-0.1,0.9-0.4,0.8-1.1c2.6,0.5,3.5,2.7,6.4,3c0.4,0.8-0.9,0.1-0.8,0.6
				c1.1,0.4,1.6-0.5,2.8,0.2c0.2,0.7-0.2,0.8-0.4,1.1c0,0.3,0.4,0.2,0.6,0.2c0.6,0.2-0.2-1,0.4-0.8c1.2,0.4,2.4,0.8,3.6,1.1
				c0.1,0.5-0.4,0.3-0.4,0.6c0,0.3,0.4,0.2,0.6,0.2c0.3-0.1,0.2-0.5,0.2-0.8c1,0.5,2.4,0.8,3,1.7c0.3-0.1,0.2-0.5,0.2-0.8
				c1,0.5,2.1,0.8,3.2,0.8c-0.1,0.4,0.2,1.1-0.4,0.8c0.1,0.2,0.5,0.2,0.4,0.6c0.2-0.5,0.1-1.1,0.8-1.5c0.9,0.4,2,0.6,3,0.4v1.1
				c1.9-0.9,3.8-0.5,6.4-0.6c-0.1,0.2-0.5,0.2-0.4,0.6c0.6,0.1,0.4-0.4,0.6-0.6c3.7,0.5,7.3-1.1,9.8-0.4c0.4-0.4,1.4-1.4,1.9-0.4
				c1-1,3.1-1,4.5-1.7c0.8-0.4,0.1,0.9,0.6,0.8c0.3-1.1,2.7-2.2,3.4-1.5c0.3-0.1,0.2-0.5,0.2-0.8c3.5-0.5,5.9-3.3,8.9-3.6
				c0.8-1.2,2.4-2.7,4-2.3c-0.1-0.2-0.2-0.4-0.2-0.6c5-3.1,8.9-7.4,12.5-11.9c0.7,0,1.5-0.1,1.7,0.4c0.5-0.6,0.1-2.2,0.2-3.2
				c4.3-5.8,7.3-12.5,8.9-19.6c1.3,0.3,1.2-0.6,2.3-0.4c-1.8,6.7-4.3,13.2-7.6,19.3C152,111.3,151.6,112,150.3,111.8L150.3,111.8z
				 M141.3,122.8c-0.6,0.1-0.5,0.9-0.8,1.3h0.8V122.8z M139.9,124.1c-0.5,0-0.6,0.4-1.3,0.2c0.1,0.6,0.9,0.5,1.3,0.8V124.1z
				 M134.3,128.7c-0.1-0.4,0.4-1.5-0.4-1.3C134,127.9,133.6,129,134.3,128.7L134.3,128.7z M97.8,138.5v-0.8h-0.8
				C96.8,138.4,97,138.7,97.8,138.5L97.8,138.5z"/>
			<path id="Path_16411" class="st0" d="M61.7,123.8c0.3,0.8,0.3-0.5,0.8-0.2c0,0.6-0.6,0.6-1.3,0.6c0.1-0.4-0.1-0.7-0.4-0.6
				c-0.1-0.5,0.4-0.3,0.4-0.6c0.1-0.4-1.2-0.4-0.8,0.2c-0.6-0.1,0.2-0.5,0-0.8c-0.2,0.1-0.2,0.5-0.6,0.4c-0.8-1.4-2.4-1.8-2.8-3.6
				c1.1,0.1,1.9-0.5,2.8,0v1.7c0.8,0.3,0.4-0.6,1.1-0.4c0.1,0.4,0.4,0.8,0.8,0.8v1.5c0.9,0.3-0.1-1.2,0.8-0.8v1.3
				C62,123.2,62,123.7,61.7,123.8L61.7,123.8z"/>
			<path id="Path_16412" class="st0" d="M53,135.7c-0.6,0.3-0.8,1-0.5,1.6c0.1,0.1,0.2,0.2,0.3,0.3h-0.8v1.1
				c0.1,0.5,1.3-0.1,0.8,0.8c0.9-0.2,0.6-1.5,1.1-2.1c-0.1-0.3-0.5-0.2-0.8-0.2c0.3-0.2,0.3-0.7,0.8-0.6c-0.3,0.8,0.6,0.4,0.4,1.1
				c0.6,0.2,0.3-0.7,1.1-0.4c-0.5,1.3,1.3,0.4,0.8,1.7c2,0.4,4.3,1.3,4,3.2c0.5,0.3,0.9,0.6,1.3,1.1c0.3-0.3,0.5-0.6,0.8-0.8
				c1.4,0.5,2.2,1.6,3.6,2.1c0.3,0.9-0.4,0.9-0.4,1.5c0.5-0.1,0.9-0.4,0.8-1.1c1.7,0.1,2.6,1,3.6,1.7c0.3,0.8-0.6,0.4-0.4,1.1
				c0,0.3,0.4,0.2,0.6,0.2c0.5,0,0.1-0.8,0.2-1.1c0.3,1,0.8,0.3,1.9,0.4c-0.5,1.1,1.1,0.2,0.8,1.1c0.2,0,0.2-0.3,0.2-0.4
				c3.2,1.4,6.5,2.5,10,3.2c0,0.4,0.3,0.5,0.2,0.8c0.5-0.2,0.8-0.6,1.7-0.4v1.5h-0.8c0,0.6,0.7,0.4,0.4,1.3
				c-0.8,0.4-0.1-0.9-0.6-0.8c-0.2,0.6-0.7,0.8-0.6,1.7c-1.8-0.4-3.2-1-5.1-1.3c0-0.5-0.4-0.6-0.2-1.3h-1.3c0.2-0.6-0.1-1.2-0.6-1.5
				c-0.2,0.5-0.6,0.8-0.6,1.5c-1.3,0.1-1.5-0.9-3-0.6c-0.2-0.5-0.6-0.8-0.4-1.7c0.5-0.1,0.3,0.4,0.6,0.4c0.8-1-0.3-1.9-0.8-2.3
				c-0.2,0.4-0.4,0.8-0.6,1.3c-0.7,0.3-0.2-0.7-0.8-0.4c0.1,0.8,1.2,0.7,0.8,1.9c-1.6-0.8-3.4-1.4-5.1-1.9c0.2-0.6-0.1-1.3-0.6-1.7
				c-0.7,0.4,0.3,0.8,0.2,1.3c-0.5-1.1-1.8-1.8-3-1.5c-0.1-0.8,0.1-1.5,1.1-1.3c0-0.5-0.5-0.5-0.6-0.8c-0.9,1.3-2.2-1.3-2.8,0.4
				c-2.7-1.2-4.8-3.1-7.2-4.7v-1.3c-0.6-0.2-0.4,0.5-0.4,0.8c-0.7-0.6-1.1-1.5-2.3-1.5c-0.2-0.8,0-1.6,0.4-2.3
				c0.5-0.1,0.3,0.4,0.6,0.4c0.8-0.3-0.5-0.3-0.2-0.8c0.9-0.3,1.6-1.4,1.9,0C53,136.2,53,136,53,135.7L53,135.7z M63.2,144.9H64
				c-0.1-0.4-0.4-0.8-0.8-0.8V144.9z M67.6,146.8v1.1c0.8,0.1,0.4-0.9,0.8-1.1c0.3,0,0.7,0,0.6-0.4C68.2,146.1,68.5,147,67.6,146.8z
				 M77.8,150.6c0,0.5,0.5,0.5,0.6,0.8c0-0.3,0.1-0.5,0.4-0.4c0-0.5-0.5-0.5-0.6-0.8C78.2,150.4,78.2,150.7,77.8,150.6L77.8,150.6z
				 M81,153.8c0.1-1,0.5-2.4-0.4-2.8C80.4,152,79.6,153.6,81,153.8L81,153.8z"/>
			<path id="Path_16413" class="st0" d="M86.3,151.9c2.8,0.7,0.8,0.2,0,1.3c0.6,0.2,0.8,0.7,1.7,0.6c-0.4,0.5-0.6,1.2-0.4,1.9
				c-1.3,0.3-1.3-0.7-2.5-0.4c-0.4-0.1,0.8-0.4,1.1-0.6C85.9,153.5,86.4,152.9,86.3,151.9L86.3,151.9z"/>
			<path id="Path_16414" class="st0" d="M98.2,155.3c-0.2,0.6-1.3,0.4-0.8,1.7h-0.8C96.5,156,97.6,155,98.2,155.3L98.2,155.3z"/>
			<path id="Path_16415" class="st0" d="M96.5,154.2c-0.1,1.1,0.2,2.5-0.6,2.8v-1.3c-0.4,1.3-2.8,0.7-4.5,0.8c0.2-0.6,0.7-1,1.3-1.3
				c0,0.3-0.1,0.8,0.2,0.8c0.7-1.6-1.9-0.8-3-0.8c-0.3,0.7,0.7,0.2,0.4,0.8c-1.3,0.3-1.5-0.6-2.3-0.8c1.1-0.6,0.1-2,0.6-3
				c0.7,0.2,1.4,0.3,2.1,0.2c0.1,0.4-0.2,1.1,0.4,0.8c0.6-0.1-0.2-0.5,0-0.8c0.6,0.2,1.3,0.3,1.5,0.8c1.6-0.6,3-0.3,4.7,0
				c-0.4,0.7-0.4,0.5,0,1.3C96.7,154.9,97.2,154,96.5,154.2L96.5,154.2z M94.6,154.2c-0.1-0.4-0.4-0.8-0.8-0.8
				c-0.2,0.3-0.7,0.3-0.6,0.8C93.8,153.8,93.9,153.8,94.6,154.2z"/>
			<path id="Path_16416" class="st0" d="M134.3,27.8c0.6-0.2,0.3,0.7,1.1,0.4v0.8c1.3-0.3,1.4,0.6,2.3,0.6V31
				c-0.8-0.3-0.4,0.6-1.1,0.4c-0.5-0.2-0.8-0.6-1.7-0.4c-0.3-0.4,0.1-1.4-0.6-1.3c-0.2-0.7,0.7-0.3,0.6-0.8
				C134.7,28.6,134,28.7,134.3,27.8z"/>
		</g>
	</g>
</g>
<g>
	<path class="st0" d="M53.4,97.9c-0.3,0.1-0.7,0.1-1,0.2c-0.4,0-0.7,0-1.1-0.1c-0.4-0.1-0.7-0.2-1-0.3c-0.3-0.1-0.6-0.3-0.9-0.6
		c-0.3-0.2-0.5-0.5-0.7-0.8c-0.2-0.3-0.4-0.7-0.5-1.1C48.1,94.8,48,94.4,48,94s0.1-0.8,0.2-1.2s0.2-0.8,0.4-1.1
		c0.2-0.4,0.3-0.7,0.5-1.1l-0.6-0.3l1.3-3.2c0.4,0.2,1,0.4,1.5,0.7s1.2,0.7,2,1.1c0.5,0.3,1,0.7,1.3,1c0.4,0.3,0.7,0.7,1,1
		c0.3,0.3,0.5,0.7,0.7,1s0.3,0.7,0.4,1c0.2,0.6,0.2,1.2,0.1,1.8c-0.1,0.5-0.3,1-0.6,1.5c-0.3,0.4-0.7,0.8-1.1,1.1
		C54.5,97.5,54,97.8,53.4,97.9z M53.9,93.8c0-0.1,0-0.1-0.1-0.2c-0.1-0.1-0.2-0.2-0.3-0.3c-0.1-0.1-0.3-0.3-0.4-0.4
		c-0.2-0.1-0.3-0.3-0.5-0.4c-0.2-0.1-0.4-0.3-0.6-0.4s-0.4-0.2-0.6-0.3c-0.1,0.2-0.2,0.4-0.3,0.7c-0.1,0.3-0.2,0.5-0.3,0.8
		c-0.1,0.3-0.1,0.5-0.1,0.7c0,0.2,0,0.4,0.1,0.6c0.1,0.1,0.2,0.2,0.3,0.3s0.3,0.1,0.4,0.1c0.2,0,0.3,0,0.5,0c0.2,0,0.3-0.1,0.4-0.1
		c0.1,0,0.3-0.1,0.4-0.2c0.2-0.1,0.3-0.1,0.4-0.2c0.1-0.1,0.2-0.2,0.3-0.3C53.8,94,53.9,93.9,53.9,93.8z"/>
	<path class="st0" d="M62.4,95.4c-0.8,0.2-1.6,0.3-2.4,0.2c-0.8-0.1-1.7-0.4-2.6-0.8l1.2-3.3c0.4,0.2,0.7,0.3,1,0.4
		c0.3,0.1,0.6,0.1,0.8,0.2s0.5,0,0.7,0c0.2,0,0.4,0,0.5-0.1c0.1,0,0.3-0.1,0.4-0.1c0.1-0.1,0.3-0.1,0.4-0.2c0.1-0.1,0.3-0.1,0.4-0.2
		c0.1-0.1,0.2-0.2,0.3-0.3c-0.3-0.4-0.7-0.8-1.1-1.3c-0.4-0.5-0.8-0.9-1.2-1.4c-0.4-0.5-0.8-1-1.3-1.5s-0.8-1-1.3-1.5l2.8-2.2
		l4.8,6.1c0.3,0.4,0.6,0.7,0.9,0.8c0.3,0.1,0.6,0.2,0.8,0.1l0.3-0.1l0.9,3.4l-0.3,0.1c-0.3,0.1-0.6,0.1-0.9,0.2c-0.3,0-0.5,0-0.8,0
		s-0.5-0.1-0.7-0.2c-0.2-0.1-0.4-0.1-0.6-0.2c-0.2,0.2-0.4,0.5-0.7,0.7c-0.2,0.2-0.5,0.4-0.7,0.5c-0.3,0.2-0.5,0.3-0.8,0.4
		C63.1,95.2,62.8,95.3,62.4,95.4z"/>
	<path class="st0" d="M78.9,91c-0.3,0.1-0.6,0.1-0.9,0.1c-0.3,0-0.6-0.1-0.8-0.1c-0.3-0.1-0.5-0.2-0.7-0.3c-0.2-0.1-0.4-0.2-0.5-0.4
		c-0.1,0.2-0.2,0.4-0.3,0.6c-0.1,0.2-0.3,0.4-0.4,0.6c-0.2,0.2-0.4,0.4-0.6,0.5c-0.2,0.2-0.5,0.3-0.8,0.4c-0.3,0.1-0.5,0.1-0.8,0.1
		c-0.3,0-0.5,0-0.8-0.1c-0.2-0.1-0.5-0.2-0.7-0.3c-0.2-0.1-0.4-0.3-0.5-0.4c0,0.2-0.1,0.4-0.2,0.6c-0.1,0.2-0.3,0.4-0.5,0.5
		c-0.2,0.2-0.4,0.3-0.7,0.5c-0.3,0.1-0.6,0.3-0.9,0.4l-0.3,0.1l-0.9-3.4l0.2,0c0.4-0.1,0.6-0.3,0.8-0.6c0.2-0.3,0.3-0.6,0.4-1
		c0.1-0.4,0.1-0.8,0.1-1.3c0-0.5,0-1,0-1.6l3.1-0.3c0,0.2,0,0.5,0,0.8c0,0.3,0,0.6,0.1,0.8c0,0.3,0.1,0.5,0.1,0.8
		c0,0.3,0.1,0.5,0.1,0.7c0.1,0.2,0.1,0.3,0.2,0.4c0.1,0.1,0.2,0.1,0.3,0.1c0.2-0.1,0.4-0.2,0.5-0.4c0.1-0.2,0.2-0.4,0.3-0.6
		c0.1-0.2,0.1-0.5,0.2-0.8c0-0.3,0-0.6,0-0.9c0-0.3,0-0.6,0-0.9c0-0.3-0.1-0.6-0.1-0.9l2.6-0.5c0,0.2,0.1,0.4,0.1,0.7
		c0,0.3,0.1,0.5,0.1,0.8c0.1,0.3,0.1,0.5,0.2,0.8s0.2,0.5,0.3,0.7c0.1,0.2,0.2,0.3,0.4,0.4c0.2,0.1,0.3,0.1,0.5,0.1
		c0.2-0.1,0.3-0.2,0.4-0.3c0.1-0.2,0.2-0.4,0.2-0.6c0-0.2,0-0.5,0-0.8c0-0.3-0.1-0.5-0.1-0.8c-0.1-0.3-0.1-0.5-0.2-0.8
		c-0.1-0.2-0.1-0.5-0.2-0.6l2.7-1.2c0.2,0.7,0.5,1.2,0.7,1.7c0.2,0.5,0.4,0.8,0.6,1.1s0.4,0.4,0.6,0.5c0.2,0.1,0.4,0.1,0.6,0
		l0.3-0.1l0.9,3.4l-0.3,0.1c-0.5,0.2-1.1,0.2-1.6,0.2c-0.5,0-1.1-0.2-1.6-0.5c-0.1,0.2-0.3,0.4-0.4,0.6c-0.2,0.2-0.3,0.4-0.5,0.6
		c-0.2,0.2-0.4,0.3-0.7,0.5C79.5,90.8,79.3,90.9,78.9,91z M74.5,80.9l-1.2,2.1l-2.1-1.2l1.2-2.1L74.5,80.9l1.2-2.1l2.1,1.2l-1.2,2.1
		L74.5,80.9z M75.3,77.9l-1.1,2l-2-1.1l1.1-2L75.3,77.9z"/>
	<path class="st0" d="M84.5,78.5l-2.4-1.4l1.4-2.4l2.4,1.4L84.5,78.5z M83.6,85.9l1.1-0.3c0.2-0.1,0.4-0.1,0.7-0.2
		c0.3-0.1,0.5-0.2,0.7-0.3s0.4-0.3,0.5-0.4c0.1-0.2,0.2-0.3,0.1-0.5c0-0.1-0.1-0.3-0.3-0.5c-0.2-0.2-0.4-0.5-0.6-0.7
		c-0.2-0.3-0.5-0.6-0.8-0.9c-0.3-0.3-0.6-0.6-0.8-0.9l2.7-2.4c0.3,0.3,0.6,0.7,0.8,1.1c0.3,0.4,0.5,0.8,0.8,1.2
		c0.2,0.4,0.5,0.8,0.7,1.2c0.2,0.4,0.3,0.8,0.4,1.2c0.2,0.8,0.3,1.4,0.2,2c-0.1,0.6-0.3,1.1-0.7,1.6c-0.3,0.5-0.8,0.9-1.4,1.2
		c-0.6,0.3-1.2,0.6-2,0.8l-1.2,0.3L83.6,85.9z"/>
	<path class="st0" d="M116.9,80.3c-0.9,0.3-1.8,0.3-2.5,0.2c-0.7-0.1-1.4-0.4-2.1-0.9c-0.3,0.5-0.7,0.9-1.1,1.2
		c-0.4,0.4-0.9,0.7-1.4,1c-0.5,0.3-1.1,0.6-1.8,0.8c-0.6,0.2-1.3,0.5-2.1,0.7c-1,0.3-2,0.5-2.9,0.6c-0.9,0.1-1.7,0.2-2.5,0.1
		c-0.8-0.1-1.4-0.2-2-0.4c-0.6-0.2-1.1-0.6-1.5-1c-0.4-0.4-0.7-0.8-0.9-1.2c-0.2-0.4-0.4-0.9-0.4-1.4c-0.1-0.5-0.1-1-0.1-1.6
		c0-0.6,0.1-1.2,0.2-1.8l3.1,0.8c0,0.2-0.1,0.5-0.1,0.7c0,0.3,0,0.5,0,0.8c0,0.3,0.1,0.5,0.1,0.7c0.1,0.2,0.2,0.4,0.3,0.5
		c0.2,0.2,0.5,0.4,0.9,0.5c0.4,0.1,0.8,0.1,1.3,0c0.5-0.1,1-0.2,1.6-0.3c0.6-0.1,1.2-0.3,1.8-0.5c0.6-0.2,1.1-0.3,1.7-0.5
		c0.5-0.2,1-0.4,1.4-0.6c0.4-0.2,0.8-0.4,1.1-0.7s0.6-0.5,0.8-0.8c0.2-0.2,0.3-0.5,0.3-0.7c0.1-0.3,0.1-0.5,0.2-0.8
		c0-0.3,0-0.6,0-0.9c0-0.3,0-0.6,0-0.9l3.3-0.1l0.2,2.2c0,0.2,0.1,0.3,0.2,0.4c0.1,0.1,0.3,0.2,0.4,0.3c0.2,0.1,0.4,0.1,0.6,0.1
		c0.2,0,0.5,0,0.8-0.1l0.3-0.1l0.9,3.4L116.9,80.3z M103.7,73.7l-1.2,2.1l-2.1-1.2l1.2-2.1L103.7,73.7l1.2-2.1l2.1,1.2l-1.2,2.1
		L103.7,73.7z"/>
	<path class="st0" d="M116,76.9l1.8-0.5c0.8-0.2,1.6-0.5,2.3-0.8s1.4-0.6,2-1c0.6-0.3,1.2-0.7,1.8-1.1c0.5-0.4,1-0.7,1.5-1.1
		c-0.3,0-0.7-0.1-1.1-0.1c-0.4,0-0.8,0-1.2,0c-0.4,0-0.8,0-1.2,0c-0.4,0-0.8,0.1-1.1,0.2c-0.2,0.1-0.5,0.2-0.7,0.4s-0.4,0.4-0.6,0.6
		c-0.2,0.2-0.3,0.4-0.4,0.6c-0.1,0.2-0.2,0.3-0.2,0.4l-2.9-0.9c0.1-0.5,0.3-1,0.5-1.5c0.2-0.5,0.5-0.9,0.8-1.3
		c0.3-0.4,0.7-0.7,1.1-1c0.4-0.3,0.9-0.5,1.4-0.6c0.4-0.1,0.9-0.2,1.4-0.2c0.5,0,1,0,1.5,0.1c0.5,0.1,1,0.1,1.5,0.2
		c0.5,0.1,1,0.2,1.5,0.2c0.5,0.1,1,0.1,1.5,0.1c0.5,0,0.9,0,1.4-0.1l0.6,3.3c-0.7,0.6-1.4,1.2-2,1.8c-0.6,0.6-1.2,1.1-1.8,1.5
		c-0.6,0.5-1.1,0.9-1.6,1.3c-0.5,0.4-1.1,0.7-1.6,1s-1.1,0.6-1.7,0.8c-0.6,0.2-1.2,0.4-1.8,0.6l-1.8,0.5L116,76.9z M119.7,68.7
		l-2.4-1.4l1.4-2.4l2.4,1.4L119.7,68.7z"/>
	<path class="st0" d="M131.8,75.9c-0.1-0.4-0.2-0.8-0.3-1.2c-0.1-0.4-0.2-0.9-0.3-1.3c-0.1-0.4-0.2-0.8-0.3-1.2
		c-0.1-0.4-0.2-0.8-0.3-1.1c-0.3-1.1-0.6-2-0.9-2.9s-0.6-1.7-0.8-2.4c-0.3-0.7-0.5-1.3-0.7-1.8c-0.2-0.5-0.4-0.9-0.5-1.3l3-2
		c0.4,0.8,0.7,1.6,1,2.4c0.3,0.8,0.6,1.5,0.8,2.2c0.2,0.7,0.5,1.4,0.6,1.9c0.2,0.6,0.3,1.1,0.4,1.5c0.1,0.4,0.2,0.8,0.3,1.2
		c0.1,0.5,0.3,0.9,0.4,1.4c0.1,0.5,0.3,1,0.4,1.5c0.1,0.5,0.2,1,0.3,1.5L131.8,75.9z"/>
	<path class="st0" d="M136.3,69.9c0.7,0.2,1.4,0.3,2.1,0.4c0.7,0.1,1.3,0,1.8,0c0.2,0,0.4-0.1,0.6-0.2c0.2-0.1,0.4-0.1,0.5-0.2
		c0.2-0.1,0.3-0.2,0.4-0.3c0.1-0.1,0.2-0.2,0.2-0.3c0-0.2,0-0.4-0.2-0.6s-0.4-0.4-0.8-0.6c-0.3-0.2-0.7-0.4-1.1-0.6
		s-0.8-0.4-1.3-0.6c-0.4-0.2-0.9-0.4-1.3-0.6c-0.4-0.2-0.8-0.3-1.1-0.5l1.1-3.4c0.5,0.2,1.1,0.4,1.6,0.7c0.5,0.2,1,0.5,1.5,0.8
		c0.5,0.3,1,0.6,1.4,0.9c0.4,0.3,0.9,0.7,1.2,1.1c0.4,0.4,0.7,0.8,0.9,1.2c0.3,0.4,0.5,0.9,0.6,1.4c0.2,0.6,0.2,1.2,0.1,1.7
		c-0.1,0.5-0.2,1-0.5,1.5c-0.3,0.5-0.7,0.9-1.1,1.2c-0.5,0.3-1.1,0.6-1.7,0.8l-0.1,0c0,0,0,0-0.1,0c0,0,0,0-0.1,0
		c-0.4,0.1-0.8,0.2-1.3,0.2c-0.4,0-0.9,0-1.3,0c-0.4,0-0.9-0.1-1.3-0.2c-0.4-0.1-0.9-0.2-1.3-0.3L136.3,69.9z"/>
	<path class="st0" d="M149.2,64c0.5,0.6,0.8,1.2,1.1,1.6c0.3,0.4,0.5,0.7,0.7,0.9c0.2,0.2,0.4,0.3,0.5,0.4c0.1,0.1,0.3,0.1,0.4,0
		l0.2-0.1l0.9,3.4l-0.2,0c-0.1,0-0.2,0.1-0.4,0.1c-0.1,0-0.3,0-0.5,0c0,0.7-0.1,1.4-0.2,2.1c-0.2,0.7-0.4,1.4-0.8,2
		c-0.3,0.7-0.8,1.3-1.2,1.9c-0.5,0.6-1,1.2-1.6,1.8l-2.8-2.1c0.5-0.5,1-1,1.5-1.6c0.5-0.5,0.9-1.1,1.2-1.6c0.3-0.5,0.6-1.1,0.7-1.6
		c0.2-0.5,0.2-1.1,0.1-1.6c-0.2-0.3-0.3-0.5-0.5-0.8c-0.2-0.2-0.3-0.5-0.5-0.7c-0.2-0.3-0.4-0.5-0.6-0.8c-0.2-0.3-0.5-0.6-0.8-1
		L149.2,64z"/>
	<path class="st0" d="M151.8,67l1.7-0.5c0.1,0,0.3-0.1,0.5-0.1c0.2-0.1,0.4-0.1,0.5-0.2c0.2-0.1,0.4-0.2,0.5-0.3s0.3-0.2,0.4-0.3
		c0.1-0.1,0.2-0.2,0.3-0.3c0.1-0.1,0.1-0.2,0.1-0.3c0-0.1-0.1-0.3-0.3-0.5c-0.2-0.2-0.4-0.5-0.6-0.7c-0.2-0.3-0.5-0.6-0.8-0.9
		c-0.3-0.3-0.6-0.6-0.8-0.9l2.7-2.4c0.3,0.3,0.6,0.7,0.8,1.1c0.3,0.4,0.5,0.8,0.8,1.2c0.2,0.4,0.5,0.8,0.7,1.2
		c0.2,0.4,0.3,0.8,0.4,1.2c0.2,0.8,0.3,1.4,0.1,2.1c-0.1,0.6-0.4,1.2-0.8,1.6c-0.4,0.5-0.9,0.9-1.5,1.2c-0.6,0.3-1.3,0.6-2,0.8
		l-1.9,0.5L151.8,67z M156.9,71.9l1.2-2.1l2.1,1.2l-1.2,2.1L156.9,71.9l-1.2,2.1l-2.1-1.2l1.2-2.1L156.9,71.9z M156.1,74.9l1.1-2
		l2,1.1l-1.1,2L156.1,74.9z"/>
</g>
</svg>
