<svg xmlns="http://www.w3.org/2000/svg" xmlns:xlink="http://www.w3.org/1999/xlink" width="125" height="51" viewBox="0 0 125 51">
  <defs>
    <clipPath id="clip-path">
      <rect id="Rectangle_42" data-name="Rectangle 42" width="125" height="51" transform="translate(550.69 193.74)" fill="#fff"/>
    </clipPath>
  </defs>
  <g id="Mask_Group_1" data-name="Mask Group 1" transform="translate(-550.69 -193.74)" clip-path="url(#clip-path)">
    <g id="Logo-Ayandeh_Bank" data-name="Logo-Ayandeh Bank" transform="translate(590.161 193.899)">
      <g id="Group_210" data-name="Group 210" transform="translate(6.637)">
        <path id="Path_63" data-name="Path 63" d="M128.864,64.046h23.159a4.485,4.485,0,0,1,4.494,4.494V91.7a4.485,4.485,0,0,1-4.494,4.494H128.864A4.485,4.485,0,0,1,124.37,91.7V68.54A4.441,4.441,0,0,1,128.864,64.046Z" transform="translate(-124.024 -63.701)" fill="#6e2717"/>
        <path id="Path_64" data-name="Path 64" d="M123.442,66.358a3.084,3.084,0,0,1,3.249-3.249h23.5a3.084,3.084,0,0,1,3.249,3.249v4.217c0,4.563-1.659,7.259-4.494,7.259-4.977,0-10.992-6.222-16.108-6.222-3.871,0-7.19,2.558-9.471,8.158l.069-13.412Zm30,23.5a3.084,3.084,0,0,1-3.249,3.249h-23.5a3.084,3.084,0,0,1-3.249-3.249V85.645c0-4.563,1.659-7.259,4.494-7.259,4.978,0,10.992,6.222,16.108,6.222,3.871,0,7.19-2.558,9.471-8.158V89.863ZM126.622,61.726a4.318,4.318,0,0,0-4.563,4.563V89.932a4.318,4.318,0,0,0,4.563,4.563h23.643a4.318,4.318,0,0,0,4.563-4.563V66.288a4.318,4.318,0,0,0-4.563-4.563Z" transform="translate(-122.059 -61.726)" fill="#d99d2a"/>
      </g>
      <g id="Group_211" data-name="Group 211" transform="translate(0 37.439)">
        <path id="Path_65" data-name="Path 65" d="M239.725,326.6a9.736,9.736,0,0,0,3.111-.484c.207-.069.484-.207.691-.277.069,0,.069-.069.069-.138a2.63,2.63,0,0,0-.622-.9,6.883,6.883,0,0,0-.968-1.037c-.277-.277-.553-.484-.83-.76a.241.241,0,0,0-.138-.069c-.138-.069-.138-.277-.207-.415a1.137,1.137,0,0,1-.069-.691,2.089,2.089,0,0,1,.346-1.106,2.152,2.152,0,0,1,.622-.484,11.528,11.528,0,0,1,1.383-.553c.484-.207.968-.346,1.452-.553.76-.277,1.59-.553,2.35-.76h.138c.069.069,0,.069,0,.138-.207.484-.484.9-.691,1.314,0,.069-.069.069-.138.069-.415.138-.76.207-1.175.346-.553.207-1.106.346-1.59.553s-.968.346-1.383.553c-.069.069-.138.069-.277.138-.069,0-.069.069,0,.069.069.069.138.207.277.277.622.622,1.314,1.244,1.936,1.867.553.553,1.175,1.037,1.728,1.521a6.6,6.6,0,0,0,1.106.83,4.021,4.021,0,0,0,2.834.277,1.708,1.708,0,0,0,.622-.277s.069,0,0-.069a2.455,2.455,0,0,0-.277-.622c-.207-.415-.415-.76-.622-1.106a.1.1,0,0,1,0-.138,14.81,14.81,0,0,1,.9-1.313.13.13,0,0,1,.207,0,6.462,6.462,0,0,1,.83,2,3.451,3.451,0,0,1-.138,1.867,2.6,2.6,0,0,1-1.659,1.521,4.341,4.341,0,0,1-1.314.207,6.809,6.809,0,0,1-1.175-.138,2.143,2.143,0,0,1-.9-.415,5.971,5.971,0,0,1-.9-.968l-.622-.83-.069-.069a.068.068,0,0,1-.069.069,2.546,2.546,0,0,1-.76,1.314,6.565,6.565,0,0,1-1.175.691,4.647,4.647,0,0,1-1.659.277,16.244,16.244,0,0,1-1.8.069,3.368,3.368,0,0,1-.83-.069,6.226,6.226,0,0,1-1.106-.207,3.789,3.789,0,0,1-1.037-.553,2.546,2.546,0,0,1-.76-1.313,4.9,4.9,0,0,1-.069-.968,5.385,5.385,0,0,1,.277-1.452c0-.069.069-.138.069-.207s.069-.069.138-.069c.138,0,.207.069.346.069.069,0,.138.069.069.138a4.565,4.565,0,0,0-.069.968,1.482,1.482,0,0,0,.76,1.314,3.313,3.313,0,0,0,1.383.484A10.706,10.706,0,0,0,239.725,326.6Z" transform="translate(-211.796 -317.584)" fill="#6e2717"/>
        <path id="Path_66" data-name="Path 66" d="M118.127,343.931a5.155,5.155,0,0,1-.484.83,2.14,2.14,0,0,1-1.314.622,4.565,4.565,0,0,1-.968.069,1.436,1.436,0,0,1-.83-.346,1.985,1.985,0,0,1-.553-.9,2.539,2.539,0,0,1-.069-1.244v-.277c0-.069,0-.138.138-.138a.877.877,0,0,0,.415-.069c.069,0,.069,0,.138.069a1.053,1.053,0,0,0,.968,1.037,2.729,2.729,0,0,0,1.452-.277.95.95,0,0,0,.553-.346.524.524,0,0,0,.138-.277,5.385,5.385,0,0,0-.277-1.452,6.8,6.8,0,0,0-.346-1.106c0-.207-.138-.346-.138-.553v-.069a5.506,5.506,0,0,1,1.037-1.175c.069.207.138.415.207.691.138.553.277,1.175.415,1.728a8.156,8.156,0,0,0,.277,1.383,2.424,2.424,0,0,0,.415.968,1.648,1.648,0,0,0,.76.415,2.5,2.5,0,0,0,1.59-.207,1.071,1.071,0,0,0,.691-.83.982.982,0,0,0,.138-.415c.069-.277.277-.346.484-.415a1.512,1.512,0,0,0,.346-.207s0-.069.069,0v.069c-.069.207-.069.346-.138.553a1.125,1.125,0,0,0,.9,1.383,2.823,2.823,0,0,0,1.314.069,3.913,3.913,0,0,0,1.244-.207c.415-.138.346-.138.207-.484a14.627,14.627,0,0,0-.76-1.452.13.13,0,0,1,0-.207,4.907,4.907,0,0,1,.691-.968l.207-.207q.1-.207.207,0a8.394,8.394,0,0,1,.622,1.383,3.638,3.638,0,0,1,.277,1.244,4.106,4.106,0,0,1-.484,1.8,1.859,1.859,0,0,1-1.244.9,7.382,7.382,0,0,1-1.728.207,2.714,2.714,0,0,1-1.728-.553l-.415-.415c-.069-.069-.069-.069-.138,0a7.316,7.316,0,0,1-.83.691,3.894,3.894,0,0,1-.83.277,2.11,2.11,0,0,1-1.8-.553,4.439,4.439,0,0,1-.691-.9C118.2,343.931,118.2,343.931,118.127,343.931Z" transform="translate(-108.449 -334.568)" fill="#6e2717"/>
        <path id="Path_67" data-name="Path 67" d="M347.6,327.968v2.143c0,.346.069.691.415.83a2.137,2.137,0,0,0,.553.138h1.106a3.914,3.914,0,0,0,1.244-.207c.207-.069.277-.138.138-.346a17.5,17.5,0,0,0-.83-1.59.13.13,0,0,1,0-.207c.207-.346.415-.622.622-.968.069-.138.207-.207.346-.346.069-.069.069,0,.138.069a5.51,5.51,0,0,1,.553,1.106,7.291,7.291,0,0,1,.346,1.314,2.81,2.81,0,0,1-.622,2.212,2.631,2.631,0,0,1-.9.622,5.314,5.314,0,0,1-2.074.207,2.44,2.44,0,0,1-.968-.207,1.474,1.474,0,0,1-.76-.691,3.059,3.059,0,0,1-.346-1.037,8.444,8.444,0,0,1-.069-1.867,4.251,4.251,0,0,0-.069-.9v-.691a1.348,1.348,0,0,0-.069-.553v-.415a1.176,1.176,0,0,0-.069-.484v-.346c0-.277-.069-.484-.069-.76v-.277a9.387,9.387,0,0,1,.83-.83h.069c.277-.138.277-.138.346.138a10.211,10.211,0,0,1,.069,1.452C347.6,326.447,347.6,327.208,347.6,327.968Z" transform="translate(-306.194 -322.2)" fill="#6e2717"/>
        <path id="Path_68" data-name="Path 68" d="M82.345,343.835a4.243,4.243,0,0,1-.622,1.936,2.312,2.312,0,0,1-1.59.968c-.207,0-.346.069-.553.069a2.276,2.276,0,0,1-1.314-.415,1.613,1.613,0,0,1-.691-1.175,3.941,3.941,0,0,1-.069-.9,4.514,4.514,0,0,1,.346-1.383,7.074,7.074,0,0,1,.968-1.521c.138-.138.138-.346.207-.553,0-.207.069-.415.069-.691a.187.187,0,0,1,.277-.138c.553.415,1.175.83,1.728,1.314a3.259,3.259,0,0,1,1.037,1.314A2.979,2.979,0,0,1,82.345,343.835Zm-2.558,1.106a2.817,2.817,0,0,0,1.244-.346.833.833,0,0,0,.346-.346.416.416,0,0,0,.069-.277,1.505,1.505,0,0,0-.346-.553,6.385,6.385,0,0,0-1.521-1.175h-.138c-.138.138-.346.277-.484.415a1.58,1.58,0,0,0-.484.691.568.568,0,0,0-.069.484,1.137,1.137,0,0,0,.553.83A1.207,1.207,0,0,0,79.787,344.941Z" transform="translate(-77.505 -335.993)" fill="#6e2717"/>
        <path id="Path_69" data-name="Path 69" d="M213.478,328.842c.069.76,0,1.521,0,2.281a11.717,11.717,0,0,1-.069,1.521,3.461,3.461,0,0,1-.622,1.659,1.24,1.24,0,0,1-.484.346c-.069,0-.069,0-.069-.069,0-.207.069-.346.069-.553a.877.877,0,0,1,.069-.415c0-.277.069-.622.069-.9v-1.936a4.565,4.565,0,0,0-.069-.968c0-.346-.069-.622-.069-.968a4.564,4.564,0,0,1-.069-.968c0-.207-.069-.346-.069-.553a1.176,1.176,0,0,0-.069-.484V326.7a3.952,3.952,0,0,1,.484-.553c.138-.138.346-.346.553-.346.069,0,.138,0,.138.138a10.314,10.314,0,0,0,.138,1.452c0,.346.069.691.069.968Z" transform="translate(-192.047 -323.903)" fill="#6e2717"/>
        <path id="Path_70" data-name="Path 70" d="M204.337,314.615a2.848,2.848,0,0,1-.83-.069,1.915,1.915,0,0,0-.622-.069.38.38,0,0,0-.346.207l-.207.415q-.1.207-.207,0l-.415-.622c-.069-.069,0-.207,0-.277a2.455,2.455,0,0,1,.277-.622.822.822,0,0,1,.76-.277l1.452.207a1.7,1.7,0,0,0,1.175-.138c.138-.069.346-.138.415-.277.069,0,.069-.069.138,0,.069,0,.069.069.069.138-.069.277-.207.553-.277.83a.69.69,0,0,1-.346.277A1.951,1.951,0,0,1,204.337,314.615Z" transform="translate(-183.182 -313.064)" fill="#6e2717"/>
        <path id="Path_71" data-name="Path 71" d="M178.394,389.8c-.069,0-.069,0-.069.069a3.276,3.276,0,0,1-.691.691c-.069.069-.069.069-.138,0s-.138-.207-.277-.277c-.207-.207-.484-.415-.691-.622-.069-.069-.069-.069,0-.207a3.2,3.2,0,0,1,.484-.484c.138-.138.277-.207.346-.346.069-.069.069-.069.138,0l.691.691c.069.069.069.069.138,0a6.517,6.517,0,0,1,.691-.691c.069-.069.069-.069.138,0a6.883,6.883,0,0,1,.968,1.037c.069.069.069.138,0,.138a4.339,4.339,0,0,1-.76.83c-.069.069-.069,0-.138,0a6.52,6.52,0,0,1-.691-.691C178.463,389.8,178.463,389.8,178.394,389.8Z" transform="translate(-161.733 -377.323)" fill="#6e2717"/>
        <path id="Path_72" data-name="Path 72" d="M151.634,351.326a.068.068,0,0,1,.069.069c.415.277.76.622,1.175.9,0,0,.069.069,0,.069a3.362,3.362,0,0,1-.76.968c-.069.069-.069.069-.138,0-.346-.207-.622-.484-.968-.691-.069-.069-.138-.138-.207-.138-.138-.069-.069-.138-.069-.207.207-.346.484-.622.691-.968C151.564,351.4,151.564,351.4,151.634,351.326Z" transform="translate(-139.812 -345.627)" fill="#6e2717"/>
        <path id="Path_73" data-name="Path 73" d="M315.512,352.531c-.069.138-.138.207-.207.346a2.385,2.385,0,0,1-.553.622c-.069.069-.069.069-.138,0-.346-.207-.622-.484-.968-.691-.069-.069-.138-.069-.207-.138s-.069-.069,0-.138a9,9,0,0,0,.691-1.037c.069-.069.069-.069.138,0l.83.622.346.346A.068.068,0,0,1,315.512,352.531Z" transform="translate(-278.25 -345.726)" fill="#6e2717"/>
        <path id="Path_74" data-name="Path 74" d="M363.314,389.336c-.069.069-.069.207-.138.277a2.161,2.161,0,0,1-.622.76c-.069.069-.069.069-.138,0a7.828,7.828,0,0,0-.9-.691c-.069-.069-.207-.138-.277-.207s-.069-.069,0-.138l.622-.83v-.069c.138-.207.138-.207.346-.069l1.037.83C363.314,389.267,363.314,389.267,363.314,389.336Z" transform="translate(-318.932 -377.069)" fill="#6e2717"/>
      </g>
    </g>
  </g>
</svg>
