<svg xmlns="http://www.w3.org/2000/svg" width="84.368" height="130.838" viewBox="0 0 84.368 130.838">
  <path id="Path_76" data-name="Path 76" d="M100.394,43.652C87.7,47.082,75.872,50.168,67.47,53.941c15.09-.171,22.121,7.2,22.807,15.433,1.029,9.946-6.345,17.148-14.4,21.778-10.289,5.83-28.808,14.747-48.7,19.377,0-5.487,0-12.689-.171-14.4,13.375-3.6,27.608-8.917,37.039-14.4h-.171c-15.6.514-22.807-7.031-23.664-15.433-1.029-9.946,6.345-17.148,14.4-21.778,10.289-5.83,25.722-10.632,45.613-15.262.172,5.487,0,12.689.172,14.4ZM96.621,130.42v.514a2.137,2.137,0,0,0,.686,1.886,2.437,2.437,0,0,0,1.029.343c.343,0,.686-.343.857-1.029,0-.171.171-.343.171-.514a.6.6,0,0,1,.171-.343c.171,0,.171.171.171.343v.343a.63.63,0,0,1-.171.514,8.878,8.878,0,0,1-1.2,3.087c-.514.686-.857,1.2-1.372,1.2a1.648,1.648,0,0,1-1.543-1.029,5.727,5.727,0,0,1-.514-2.572h0c0-.343.171-1.543.343-3.6s.514-3.773.686-4.8a7.575,7.575,0,0,1,.514-1.372c.343-.857.686-1.543.857-1.886h.171v.514l-.171.857-.343,3.944a10.548,10.548,0,0,0-.171,2.229,4.826,4.826,0,0,0-.171,1.372Zm-57.445,3.087a45.3,45.3,0,0,1-4.973-.343,10.929,10.929,0,0,1-3.6-.857l-.514-.171c-.171,0-.171,0-.343.171,0,.171-.171.343-.343.514a31.049,31.049,0,0,1-2.058,3.773c-.343.343-.514.686-.857,1.029a1.482,1.482,0,0,1-1.029.514h-.343a.455.455,0,0,1-.514-.514,2.776,2.776,0,0,1,1.2-1.715l1.029-1.029a9.512,9.512,0,0,0,1.029-1.372,9.572,9.572,0,0,1,.857-1.372c.343-.686.686-1.372,1.2-2.229.171-.343.514-.686.686-1.029a1.557,1.557,0,0,1,1.2-.514h.343c1.372.343,2.744.686,3.773.857a23.239,23.239,0,0,0,3.43.343h0l2.744.171a45.25,45.25,0,0,0,8.745-.686,54,54,0,0,0,6.173-1.543,22.4,22.4,0,0,0,3.6-1.372,45.927,45.927,0,0,0,4.115-2.058,7.454,7.454,0,0,1,.686-1.2c.343-.514.686-1.2,1.2-2.058,1.2-1.886,2.229-2.915,2.915-2.915a2.437,2.437,0,0,1,1.029.343c.171.171.171.343.514.514h0c.343-.514.857-.857,1.2-1.372a8.588,8.588,0,0,1,1.372-1.2,2.764,2.764,0,0,1,1.2-.686,3.949,3.949,0,0,1,1.543-.514.63.63,0,0,1,.514.171c.171,0,.343.171.514.171.343,0,.514-.171.857-.343l1.029-1.029h.514c.171,0,.171,0,.343-.171a10.155,10.155,0,0,1,.686-1.029c.171-.171.171-.343.343-.171v.514a7.972,7.972,0,0,1-.514,1.543,9.512,9.512,0,0,1-1.029,1.372l-.686.343a13.308,13.308,0,0,0-1.2.686c-.514.343-.686.514-.857.514a1.3,1.3,0,0,1-.686-.171,1.285,1.285,0,0,0-.857-.171,3.833,3.833,0,0,0-1.715.514,3.177,3.177,0,0,0-1.372,1.2,2.543,2.543,0,0,1,1.2-.171c.343,0,.514.171.857.343a.919.919,0,0,1,.514.686,3.948,3.948,0,0,1-.514,1.543,3.491,3.491,0,0,1-1.029,1.2l-.514.514a2.367,2.367,0,0,0-.686.514c-.171,0-.343.171-.857.343-.343.171-.686.171-.857.343a7.972,7.972,0,0,0-1.543.514,5.707,5.707,0,0,0-1.029.514c-1.886,1.2-3.43,2.058-4.63,2.744l-3.773,1.886a34.573,34.573,0,0,1-4.8,1.886,36.825,36.825,0,0,1-6.859,1.543c-2.744,0-5.487.171-8.574.171Zm33.953-12.689c.171-.171,0-.171-.171-.514a.891.891,0,0,0-.686-.343h-.343c-.343,0-.514.171-.857.343a2.912,2.912,0,0,0-1.029,1.029,5.21,5.21,0,0,0-.857,1.2,1.567,1.567,0,0,0-.514.857l2.572-1.2a9.837,9.837,0,0,1,1.2-.686l.686-.686Zm-3.43-.343c0-.171-.171-.171-.343-.514-.171-.171-.514-.343-.686-.171a.943.943,0,0,0-.857.514c-.171.171-.514.686-.857,1.029l-.686,1.029c-.343.343-.514.857-.857,1.2.343-.171.514-.171.857-.343A2.651,2.651,0,0,1,67.3,122.7a15.079,15.079,0,0,0,1.715-1.029,1.736,1.736,0,0,0,.686-1.2Zm6.516-13.89v.857c0,.343-.171.514-.343,1.029-.171.343-.514.686-.686,1.029-.171.171-.343.343-.514.343a2.122,2.122,0,0,0-.514-.343c-.171-.171-.514-.343-.686-.514l-.514-.514a.531.531,0,0,1-.171-.343c.171-.343.171-.514.343-.686a8.36,8.36,0,0,1,.514-1.2,7.456,7.456,0,0,0,.686-1.2.6.6,0,0,0,.171-.343l.171.171a.6.6,0,0,0,.343.171,2.911,2.911,0,0,1,1.029,1.029c.171-.171.171.171.171.514Zm3.773-.343v.857c0,.343-.171.514-.343,1.029-.171.343-.514.686-.686,1.029-.171.171-.343.343-.514.343a2.122,2.122,0,0,0-.514-.343c-.171-.171-.514-.343-.686-.514-.343-.343-.514-.514-.514-.686a.531.531,0,0,1-.171-.343c.171-.343.171-.514.343-.686a8.359,8.359,0,0,1,.514-1.2,7.457,7.457,0,0,0,.686-1.2.6.6,0,0,0,.171-.343l.171.171a.6.6,0,0,0,.343.171,2.911,2.911,0,0,1,1.029,1.029c0,.171.171.514.171.686ZM78.1,101.783v.857c0,.343-.171.514-.343,1.029-.171.343-.514.686-.686,1.029-.171.171-.343.343-.514.343a2.121,2.121,0,0,0-.514-.343c-.171-.171-.514-.343-.686-.514l-.514-.514a.531.531,0,0,1-.171-.343c.171-.343.171-.514.343-.686a8.359,8.359,0,0,1,.514-1.2,7.458,7.458,0,0,0,.686-1.2.6.6,0,0,0,.171-.343l.171.171a.6.6,0,0,0,.343.171,2.911,2.911,0,0,1,1.029,1.029.751.751,0,0,1,.171.514Zm14.747,16.29a22.991,22.991,0,0,1,3.258-2.744c1.543-1.2,2.915-2.4,4.458-3.6l3.087-2.572c.686-.686,1.543-1.543,2.744-2.572l2.572-2.572v.343a3.377,3.377,0,0,1-.686,1.372,6.474,6.474,0,0,1-.857,1.372,4.623,4.623,0,0,1-1.2,1.372A2.911,2.911,0,0,1,105.2,109.5a19.108,19.108,0,0,1-1.715,1.543c-.686.514-1.543,1.372-2.744,2.4-.857.686-1.715,1.372-2.4,1.886-.857.686-1.886,1.372-2.744,2.058l-2.4,1.886c-.343.343-.686.514-1.029.857a2.122,2.122,0,0,0-.514.343,3.447,3.447,0,0,1,.686-1.372.833.833,0,0,1,.514-1.029ZM89.933,130.42h0v.514a2.137,2.137,0,0,0,.686,1.886,2.437,2.437,0,0,0,1.029.343c.343,0,.686-.343.857-1.029,0-.171.171-.343.171-.514a.6.6,0,0,1,.171-.343c.171,0,.171.171.171.343v.343a.63.63,0,0,1-.171.514,8.878,8.878,0,0,1-1.2,3.087c-.514.686-.857,1.2-1.372,1.2a1.648,1.648,0,0,1-1.543-1.029,5.726,5.726,0,0,1-.514-2.572h0a7.69,7.69,0,0,1,.171-1.886,9.234,9.234,0,0,1,.171-1.372v-.514H88.39c-.171.171-.171.343-.514.686-.514.514-.686,1.029-1.029,1.372a11.541,11.541,0,0,1-2.572,2.4,11.859,11.859,0,0,1-3.258,1.715,26.506,26.506,0,0,1-3.944,1.2,21.285,21.285,0,0,1-4.63.514h-.514a9.812,9.812,0,0,1-2.4-.171,3.866,3.866,0,0,1-2.058-.857,2.758,2.758,0,0,1-.514-1.886,9.778,9.778,0,0,1,.171-2.229c.171-.857.171-1.2.514-1.2a1,1,0,0,1,.171.686,1.557,1.557,0,0,0,.514,1.2c.686.686,2.058,1.029,4.458,1.029a14.856,14.856,0,0,0,3.087-.171,20.357,20.357,0,0,0,9.26-2.744,5.858,5.858,0,0,0,2.572-2.4,8.961,8.961,0,0,0,1.2-2.572l.514-1.886a16.151,16.151,0,0,1,.686-1.715,4.461,4.461,0,0,0,.514-1.2c.171-.171.171-.343.343-.514v.514a3.347,3.347,0,0,0-.171,1.2l-.343,3.43c-.171,1.029-.171,1.886-.343,2.744,0,.857-.171,1.372-.171,1.886Zm1.886-14.4v.686c0,.343-.171.514-.343.857a1.712,1.712,0,0,1-.686.857c-.171.171-.343.343-.514.343a2.122,2.122,0,0,0-.514-.343c-.171-.171-.514-.343-.686-.514l-.514-.514c-.171-.171-.171-.171-.171-.343.171-.343.171-.514.343-.686a2.792,2.792,0,0,1,.514-1.029,3.587,3.587,0,0,1,.686-1.029.6.6,0,0,0,.171-.343l.171.171a.6.6,0,0,0,.343.171,6.528,6.528,0,0,1,1.029.857,1.546,1.546,0,0,0,.171.857Zm6.516,24.179v.686c0,.343-.171.514-.343.857a1.712,1.712,0,0,1-.686.857c-.171.171-.343.343-.514.343a2.122,2.122,0,0,0-.514-.343c-.171-.171-.514-.343-.686-.514l-.514-.514c-.171-.171-.171-.171-.171-.343.171-.343.171-.514.343-.686a2.792,2.792,0,0,1,.514-1.029,3.587,3.587,0,0,1,.686-1.029.6.6,0,0,0,.171-.343l.171.171a.6.6,0,0,0,.343.171,6.528,6.528,0,0,1,1.029.857,1.285,1.285,0,0,0,.172.857Zm-51.444-113a8.233,8.233,0,0,1,8.231,8.231,8.126,8.126,0,0,1-8.231,8.231,8.231,8.231,0,0,1,0-16.462Zm18.863-9.431a8.231,8.231,0,1,1-8.231,8.231,8.463,8.463,0,0,1,8.231-8.231ZM87.018,12.1a8.233,8.233,0,0,1,8.231,8.231,8.126,8.126,0,0,1-8.231,8.231,8.233,8.233,0,0,1-8.231-8.231A8.126,8.126,0,0,1,87.018,12.1ZM65.241,54.97c-1.372.686-2.572,1.372-3.773,2.058-1.886,1.2-6,4.287-6.345,6.688s3.6,3.773,10.117,3.087V54.97Zm.171,13.718V81.035c1.372-.857,2.572-1.715,3.773-2.4,1.715-1.2,6-4.287,6.345-6.688C75.7,69.374,71.757,68,65.412,68.688Z" transform="translate(-24.6 -12.1)" fill="#ed1c24" fill-rule="evenodd"/>
</svg>
