<svg width="16" height="16" viewBox="0 0 16 16" fill="none" xmlns="http://www.w3.org/2000/svg">
<path d="M9.15132 2.34172L10.3247 4.68839C10.4847 5.01505 10.9113 5.32839 11.2713 5.38839L13.398 5.74172C14.758 5.96839 15.078 6.95505 14.098 7.92839L12.4447 9.58172C12.1647 9.86172 12.0113 10.4017 12.098 10.7884L12.5713 12.8351C12.9447 14.4551 12.0847 15.0817 10.6513 14.2351L8.65799 13.0551C8.29799 12.8417 7.70465 12.8417 7.33799 13.0551L5.34465 14.2351C3.91799 15.0817 3.05132 14.4484 3.42465 12.8351L3.89799 10.7884C3.98465 10.4017 3.83132 9.86172 3.55132 9.58172L1.89799 7.92839C0.924653 6.95505 1.23799 5.96839 2.59799 5.74172L4.72465 5.38839C5.07799 5.32839 5.50465 5.01505 5.66465 4.68839L6.83799 2.34172C7.47799 1.06839 8.51799 1.06839 9.15132 2.34172Z" fill="#FFA94D"/>
</svg>
