<svg xmlns="http://www.w3.org/2000/svg" xmlns:xlink="http://www.w3.org/1999/xlink" id="Layer_1" data-name="Layer 1" viewBox="0 0 810.72 207.95"><defs><style>.cls-1{fill:url(#radial-gradient);}.cls-2{fill:#13318f;}.cls-3{fill:#fff;}.cls-4{fill:#231f20;}</style><radialGradient id="radial-gradient" cx="706.75" cy="103.97" r="65.01" gradientUnits="userSpaceOnUse"><stop offset="0.3" stop-color="#2690bf"></stop><stop offset="0.75" stop-color="#27aae1" stop-opacity="0"></stop></radialGradient></defs><circle class="cls-1" cx="706.75" cy="103.97" r="52.75"></circle><path class="cls-2" d="M699.4,98.89a7.19,7.19,0,0,1,0,10.17l-19.95,20-22.21,22.22a7.2,7.2,0,0,1-10.18,0l-42.18-42.18a7.19,7.19,0,0,1,0-10.17l42.18-42.18a7.2,7.2,0,0,1,10.18,0l22.2,22.21Z"></path><path class="cls-2" d="M754,44.28a7.2,7.2,0,0,1,0,10.18L731.8,76.67l-20,20a7.2,7.2,0,0,1-10.18,0l-20-20L659.49,54.46a7.2,7.2,0,0,1,0-10.18L701.66,2.11a7.2,7.2,0,0,1,10.18,0Z"></path><path class="cls-2" d="M754,163.67l-42.17,42.17a7.2,7.2,0,0,1-10.18,0l-42.18-42.17a7.2,7.2,0,0,1,0-10.18l42.18-42.18a7.2,7.2,0,0,1,10.18,0l20,20L754,153.49A7.2,7.2,0,0,1,754,163.67Z"></path><path class="cls-2" d="M808.61,109.06l-42.17,42.18a7.19,7.19,0,0,1-10.17,0l-42.18-42.18a7.19,7.19,0,0,1,0-10.17l20-20,22.21-22.21a7.2,7.2,0,0,1,10.18,0l42.17,42.18A7.19,7.19,0,0,1,808.61,109.06Z"></path><rect class="cls-3" x="661.74" y="86.26" width="35.42" height="35.43" transform="translate(125.49 510.89) rotate(-45)"></rect><rect class="cls-3" x="689.03" y="113.56" width="35.43" height="35.43" transform="translate(114.18 538.19) rotate(-45)"></rect><rect class="cls-3" x="689.03" y="58.96" width="35.43" height="35.43" transform="translate(152.79 522.2) rotate(-45)"></rect><rect class="cls-3" x="716.33" y="86.26" width="35.43" height="35.42" transform="translate(141.48 549.5) rotate(-45)"></rect><path d="M21,164.7H13.34v25.57H9c-.06-.38-.13-.78-.2-1.23a10.46,10.46,0,0,1-.15-1.25c0-.46,0-.93,0-1.41V164.7H.51v-3.47H21.93Z"></path><path d="M64.21,190.27a4.28,4.28,0,0,1-.51-.77c-.13-.24-.28-.51-.43-.82a5.29,5.29,0,0,1-.38-1l-2.1-6H51.28l-3,8.64H44.07a9.13,9.13,0,0,1,.31-1.33c.1-.38.21-.8.33-1.28s.25-.92.38-1.33l9.15-25.1H58a11.45,11.45,0,0,1,.61,1,13.72,13.72,0,0,1,1.13,2.45l8.84,25.57Zm-6.8-19.74c-.06-.27-.17-.65-.3-1.12s-.27-1-.39-1.43-.24-.9-.35-1.26a4.91,4.91,0,0,1-.18-.59l-1.33,4.4-2.61,7.72h7.62Z"></path><path d="M113.45,190.27a12.11,12.11,0,0,1-.25-1.23c-.07-.37-.12-.79-.16-1.25s-.05-.93-.05-1.41v-9.66H101.64v13.55H97.35c-.07-.38-.14-.78-.21-1.23a10.46,10.46,0,0,1-.15-1.25c0-.46,0-.93,0-1.41V161.23h4.24q.1.56.21,1.17c.07.38.12.78.18,1.2a11.78,11.78,0,0,1,.07,1.36v8.23H113v-12h4.25q0,.56.15,1.17a10.92,10.92,0,0,1,.15,1.2c0,.43.06.88.06,1.36v25.31Z"></path><path d="M149.2,190.27c-.07-.38-.14-.78-.21-1.23a10.46,10.46,0,0,1-.15-1.25c0-.46-.05-.93-.05-1.41V161.23H153c.07.37.14.76.2,1.17s.13.78.18,1.2a11.71,11.71,0,0,1,.08,1.36v21.78H165v3.53Z"></path><path d="M194,190.27c-.07-.38-.13-.78-.2-1.23a10.46,10.46,0,0,1-.15-1.25c0-.46,0-.93,0-1.41V161.23h4.25c.06.37.13.76.2,1.17s.12.78.18,1.2a11.78,11.78,0,0,1,.07,1.36v25.31Z"></path><path d="M229.83,190.27c-.07-.38-.14-.78-.21-1.23a10.46,10.46,0,0,1-.15-1.25c0-.46-.05-.93-.05-1.41V161.23h4.24q.1.56.21,1.17t.18,1.2a11.78,11.78,0,0,1,.07,1.36v21.78h11.51v3.53Z"></path><path class="cls-2" d="M332.14,190.27c-.07-.31-.14-.65-.2-1a24.06,24.06,0,0,1-.46-2.87l-1.54-11.86c-.07-.51-.12-1.06-.18-1.64s-.1-1.12-.15-1.63-.09-1-.13-1.33-.05-.6-.05-.67l-.18.64c-.08.33-.19.71-.33,1.15l-.46,1.46c-.17.53-.36,1-.56,1.51l-4.6,13.4h-2.92a5.62,5.62,0,0,1-.56-.82,9.78,9.78,0,0,1-.49-.92,6.8,6.8,0,0,1-.38-1.13l-3.48-10.22c-.13-.38-.28-.82-.43-1.33s-.29-1-.41-1.51-.21-.92-.28-1.28a5.06,5.06,0,0,1-.1-.64l-.57,4.76-1.94,16h-3.22c0-.38-.07-.78-.1-1.23a12,12,0,0,1-.05-1.25,9.75,9.75,0,0,1,.1-1.41l3.27-25.15h3.32a13.2,13.2,0,0,1,.67,1.17c.17.38.36.78.56,1.2s.39.86.56,1.31l3.89,11.81c.1.31.23.74.38,1.3s.32,1.14.49,1.72.36,1.32.56,2c.24-.75.46-1.46.67-2.15l.51-1.74c.17-.57.32-1,.46-1.38l5.52-15.28h3.12a10.62,10.62,0,0,0,.36,1.17c.1.38.19.77.28,1.18s.16.85.23,1.33l3.22,25.36Z"></path><path class="cls-2" d="M391.66,175.49a17.9,17.9,0,0,1-1.12,6.5,15.09,15.09,0,0,1-3,4.83,12.77,12.77,0,0,1-4.19,3,11.61,11.61,0,0,1-4.8,1,13.06,13.06,0,0,1-5.3-1,11.2,11.2,0,0,1-4.11-3,14.24,14.24,0,0,1-2.65-4.83,20.44,20.44,0,0,1-.95-6.47,17.55,17.55,0,0,1,1.07-6.34,14,14,0,0,1,2.89-4.65,11.74,11.74,0,0,1,4.16-2.84,12.94,12.94,0,0,1,4.89-.95,14.18,14.18,0,0,1,5.54,1,11.07,11.07,0,0,1,4.11,2.94,12.91,12.91,0,0,1,2.55,4.65A20.28,20.28,0,0,1,391.66,175.49Zm-4.71,0a20.16,20.16,0,0,0-.48-4.5,11.14,11.14,0,0,0-1.51-3.63,7.32,7.32,0,0,0-2.61-2.4,7.62,7.62,0,0,0-3.73-.87,7.08,7.08,0,0,0-3.35.79,7.78,7.78,0,0,0-2.61,2.3,11.25,11.25,0,0,0-1.68,3.61,17.08,17.08,0,0,0-.59,4.7,20.82,20.82,0,0,0,.48,4.55,12.37,12.37,0,0,0,1.51,3.79,7.92,7.92,0,0,0,2.58,2.6,7.2,7.2,0,0,0,7.11.08A7.87,7.87,0,0,0,384.7,184a12.58,12.58,0,0,0,1.67-3.76A18.36,18.36,0,0,0,387,175.49Z"></path><path class="cls-2" d="M440.69,181.63a9.9,9.9,0,0,1-.61,3.65,7.53,7.53,0,0,1-1.71,2.64,7.86,7.86,0,0,1-2.61,1.66,10.88,10.88,0,0,1-3.3.69c-.41,0-1,0-1.92,0l-2.81,0-3,0c-1,0-1.86,0-2.58-.07-.07-.41-.13-.84-.2-1.28s-.12-.79-.16-1.23,0-.87,0-1.28V161.23c1.33,0,2.82-.06,4.45-.08l4.45,0a14,14,0,0,1,3.66.46,8.46,8.46,0,0,1,2.86,1.38,6.64,6.64,0,0,1,1.89,2.31,7.1,7.1,0,0,1,.69,3.22,5.66,5.66,0,0,1-1.28,3.7,8.11,8.11,0,0,1-3.22,2.38,7.7,7.7,0,0,1,1.61.62,7.32,7.32,0,0,1,1.82,1.27,6.88,6.88,0,0,1,1.46,2.1A7.31,7.31,0,0,1,440.69,181.63Zm-5.52-12.79a4,4,0,0,0-1.43-3.32A5.87,5.87,0,0,0,430,164.4c-.65,0-1.33,0-2.05,0l-1.63,0v8.74l.61,0,1,.05,1,0h.77a6.68,6.68,0,0,0,2.48-.41,4.91,4.91,0,0,0,1.69-1,4.36,4.36,0,0,0,1.25-3Zm.82,12.71a5,5,0,0,0-.51-2.34,4.78,4.78,0,0,0-1.33-1.58,5.71,5.71,0,0,0-1.82-.89,7.3,7.3,0,0,0-1.91-.28h-2.18l-1.17,0-.74,0v10.38l.86,0c.38,0,.78,0,1.21,0h2.12c2,0,3.38-.5,4.22-1.5A5.73,5.73,0,0,0,436,181.55Z"></path><path class="cls-2" d="M471,190.27c-.07-.38-.14-.78-.2-1.23a10.46,10.46,0,0,1-.15-1.25q-.06-.69-.06-1.41V161.23h4.25q.11.56.21,1.17c.06.38.12.78.17,1.2a11.71,11.71,0,0,1,.08,1.36v25.31Z"></path><path class="cls-2" d="M506.86,190.27c-.07-.38-.14-.78-.21-1.23a10.46,10.46,0,0,1-.15-1.25c0-.46-.05-.93-.05-1.41V161.23h4.24q.1.56.21,1.17c.06.38.12.78.17,1.2a9.85,9.85,0,0,1,.08,1.36v21.78h11.51v3.53Z"></path><path class="cls-2" d="M567.29,164.7H555.94v8.7h10.18v3.37H555.94v10H567.8v3.53H551.65c-.07-.38-.14-.78-.21-1.23a10.46,10.46,0,0,1-.15-1.25c0-.46,0-.93,0-1.41V161.23H568Z"></path><path class="cls-4" d="M32.18,125.65a31,31,0,0,1-12.37-2.5A32.48,32.48,0,0,1,9.7,116.33a31.82,31.82,0,0,1-6.76-10A31.19,31.19,0,0,1,.51,94V75.09H12.69V94a18.84,18.84,0,0,0,1.52,7.56,19.75,19.75,0,0,0,10.42,10.41,19.51,19.51,0,0,0,15.1,0,19.75,19.75,0,0,0,10.42-10.41A19,19,0,0,0,51.67,94V37.08H63.86V89.22a7.11,7.11,0,0,0,2.31,5.36,7.7,7.7,0,0,0,5.48,2.19H73.6a6.09,6.09,0,0,1,4.51,1.59,5.7,5.7,0,0,1,1.7,4.38A5.7,5.7,0,0,1,73.6,109H71.65A18.58,18.58,0,0,1,61.54,106a31,31,0,0,1-4.81,8,33.28,33.28,0,0,1-6.82,6.22,31.52,31.52,0,0,1-17.73,5.42Z"></path><path class="cls-4" d="M90.9,109H73.72a6.25,6.25,0,0,1-4.63-1.71,5.87,5.87,0,0,1-1.7-4.51,5.7,5.7,0,0,1,1.7-4.38,6.52,6.52,0,0,1,4.63-1.59H90.9a6.77,6.77,0,0,0,3-.67,8.24,8.24,0,0,0,2.5-1.82,8.84,8.84,0,0,0,1.71-2.62,8,8,0,0,0,.61-3V69.24h12.18V89a18.73,18.73,0,0,1-1.58,7.61,20.7,20.7,0,0,1-4.33,6.34,21.53,21.53,0,0,1-6.4,4.38A18.4,18.4,0,0,1,90.9,109Z"></path><path class="cls-4" d="M148.4,109h-6a19.36,19.36,0,0,1-7.8-1.59,20,20,0,0,1-6.33-4.26A20.29,20.29,0,0,1,124,96.77,19.44,19.44,0,0,1,122.45,89V37.08h11.94v52a7.3,7.3,0,0,0,2.31,5.42,7.92,7.92,0,0,0,5.73,2.25h6a6.35,6.35,0,0,1,4.51,1.59,5.7,5.7,0,0,1,1.7,4.38A5.7,5.7,0,0,1,148.4,109Z"></path><path class="cls-4" d="M156.44,109h-8a6.25,6.25,0,0,1-4.63-1.71,5.84,5.84,0,0,1-1.71-4.51,5.67,5.67,0,0,1,1.71-4.38,6.52,6.52,0,0,1,4.63-1.59h8a6.77,6.77,0,0,0,3-.67,8.24,8.24,0,0,0,2.5-1.82,8.84,8.84,0,0,0,1.71-2.62,8,8,0,0,0,.61-3V69.24h12.18V89a18.73,18.73,0,0,1-1.58,7.61,20.7,20.7,0,0,1-4.33,6.34,21.53,21.53,0,0,1-6.4,4.38A18.4,18.4,0,0,1,156.44,109Z"></path><rect class="cls-4" x="144.53" y="122.97" width="11.21" height="11.45" rx="1.78"></rect><path class="cls-4" d="M217.23,111.64c.08-.41.16-.78.24-1.1a5.58,5.58,0,0,1,.07-.85c0-.33.06-.57.06-.73h-9.75a21.12,21.12,0,0,1-8.47-1.71,21.39,21.39,0,0,1-6.88-4.69,22.62,22.62,0,0,1-4.63-6.94,21.68,21.68,0,0,1,0-16.88,23.18,23.18,0,0,1,4.63-7.06,21.56,21.56,0,0,1,6.88-4.81,20.51,20.51,0,0,1,8.47-1.77,21.62,21.62,0,0,1,8.59,1.7,21,21,0,0,1,6.88,4.76,23.39,23.39,0,0,1,4.63,7,21.42,21.42,0,0,1,1.71,8.59v9.62h5.84A6.08,6.08,0,0,1,240,98.36a5.67,5.67,0,0,1,1.71,4.38A5.72,5.72,0,0,1,235.5,109h-5.84q-.74,12.66-9.63,20.34a22.45,22.45,0,0,1-4.08,2.8,50.34,50.34,0,0,1-4.63,2.2c-1.58.65-3.19,1.21-4.81,1.7L202,137.34a7.31,7.31,0,0,1-1.28.37,6.94,6.94,0,0,0-1.28.36l-2.31.73-3.29-10.47,2.31-.86c.41-.16.86-.32,1.34-.48l1.47-.49c2.27-.81,4.6-1.67,7-2.56a19.85,19.85,0,0,0,6-3.41,11.79,11.79,0,0,0,3.84-4.75A29.16,29.16,0,0,0,217.23,111.64Zm-9.38-34.36a9.13,9.13,0,0,0-3.72.79,10.29,10.29,0,0,0-3.1,2.14,10.08,10.08,0,0,0-2.13,3.1A9.56,9.56,0,0,0,201,94a9.46,9.46,0,0,0,6.88,2.8h9.87V87.15a10,10,0,0,0-9.87-9.87Z"></path><path class="cls-4" d="M268,109a20.73,20.73,0,0,1-8.16-1.65,21.71,21.71,0,0,1-7-4.69,20.87,20.87,0,0,1-6.64,4.69,18.81,18.81,0,0,1-7.73,1.65h-3.17a5.7,5.7,0,0,1-6.21-6.22,5.7,5.7,0,0,1,1.7-4.38,6.35,6.35,0,0,1,4.51-1.59h3.17a8.06,8.06,0,0,0,5.3-2.13,7.09,7.09,0,0,0,2.5-5.66V77.4h-6.46V65.46H268a21.42,21.42,0,0,1,8.59,1.71,21.61,21.61,0,0,1,11.51,11.51,21.46,21.46,0,0,1,1.71,8.59,21.12,21.12,0,0,1-1.71,8.47,21.39,21.39,0,0,1-4.69,6.88,22.62,22.62,0,0,1-6.94,4.63A21.16,21.16,0,0,1,268,109ZM258.16,77.4v9.87A9,9,0,0,0,259,91a10.29,10.29,0,0,0,2.14,3.1,10.08,10.08,0,0,0,3.16,2.14A9.56,9.56,0,0,0,268,97a9.42,9.42,0,0,0,3.84-.79A10.45,10.45,0,0,0,277.11,91a9.13,9.13,0,0,0,.79-3.72A9.8,9.8,0,0,0,268,77.4Z"></path><rect class="cls-4" x="77.9" y="122.91" width="27.07" height="11.57" rx="3.57"></rect><path class="cls-2" d="M344.76,125.7a30.8,30.8,0,0,1-12.37-2.5,32.08,32.08,0,0,1-10.11-6.82,31.44,31.44,0,0,1-6.76-10A31,31,0,0,1,313.08,94V75.14h12.18V94a18.77,18.77,0,0,0,1.53,7.55,19.48,19.48,0,0,0,4.2,6.21A19.9,19.9,0,0,0,337.2,112a19.54,19.54,0,0,0,15.11,0,19.9,19.9,0,0,0,10.42-10.42A18.93,18.93,0,0,0,364.25,94V37.14h12.18V89.28a7.1,7.1,0,0,0,2.32,5.36,7.7,7.7,0,0,0,5.48,2.19h1.95a6.13,6.13,0,0,1,4.51,1.58,5.72,5.72,0,0,1,1.7,4.39,5.69,5.69,0,0,1-6.21,6.21h-1.95a18.53,18.53,0,0,1-10.11-2.92,31.39,31.39,0,0,1-4.82,8,33.25,33.25,0,0,1-6.82,6.21,30.91,30.91,0,0,1-8.34,4A31.61,31.61,0,0,1,344.76,125.7Z"></path><path class="cls-2" d="M426.88,109a48.18,48.18,0,0,1-10.11-1.09,16.51,16.51,0,0,1-8.41-4.39A19.35,19.35,0,0,1,394.72,109h-7.84a5.7,5.7,0,0,1-6.22-6.21,5.69,5.69,0,0,1,1.59-4.39,6.29,6.29,0,0,1,4.63-1.58h7.84a7.39,7.39,0,0,0,5.48-2.38,8,8,0,0,0,2.31-5.78V69.42h12.18V89A7.55,7.55,0,0,0,417,94.51a7.41,7.41,0,0,0,5.54,2.32h6A6.13,6.13,0,0,1,433,98.41a5.5,5.5,0,0,1,1.7,4.39q0,3.9-2.25,5A11.92,11.92,0,0,1,426.88,109Z"></path><rect class="cls-2" x="372.91" y="123.14" width="27.07" height="11.57" rx="3.57"></rect><rect class="cls-2" x="540.89" y="50.05" width="27.07" height="11.57" rx="3.57"></rect><path class="cls-2" d="M461.84,109h-2.19a18.46,18.46,0,0,1-7.55-1.46,23.23,23.23,0,0,1-6.34-4.26A18.91,18.91,0,0,1,431.87,109h-3.41a5.69,5.69,0,0,1-6.21-6.21,6,6,0,0,1,1.7-4.39,6.69,6.69,0,0,1,4.51-1.58h3.41a7.14,7.14,0,0,0,5.54-2.5,8.18,8.18,0,0,0,2.26-5.66V37.14h12.18V88.67a8,8,0,0,0,2.32,5.72,7.29,7.29,0,0,0,5.48,2.44h2.19a6.67,6.67,0,0,1,4.51,1.58,5.93,5.93,0,0,1,1.7,4.39,5.69,5.69,0,0,1-6.21,6.21Z"></path><path class="cls-2" d="M545.68,109h-21q-9.75,0-15.23-8.65a30.23,30.23,0,0,1-8.77,6A27.49,27.49,0,0,1,490.15,109H463.41a6.21,6.21,0,0,1-4.57-1.64,6,6,0,0,1-1.64-4.45,5.92,5.92,0,0,1,1.7-4.45,6.25,6.25,0,0,1,4.51-1.64h27q6.21,0,11-5.85l7.55-9.87-14.25-6.82a14.12,14.12,0,0,0-9.2-.79,11.6,11.6,0,0,0-3,1.34,17,17,0,0,0-3,2.44Q478,78.8,475.9,81l-1.22,1.34-10-4.87L466,75.27a31.22,31.22,0,0,1,9.38-10.42A23.13,23.13,0,0,1,488.81,61a25.55,25.55,0,0,1,10.85,2.44l18.63,8.89a15.45,15.45,0,0,0,5.37,1.1h8.28V85l-7.07.61h-.12a28.6,28.6,0,0,1-4.63-.36L517,90a6.89,6.89,0,0,0,2.38,4.69,8.89,8.89,0,0,0,5.42,2.13h20.93a6.28,6.28,0,0,1,4.62,1.58,5.69,5.69,0,0,1,1.59,4.39,5.7,5.7,0,0,1-6.21,6.21Z"></path><path class="cls-2" d="M548,109h-9.87a6.29,6.29,0,0,1-4.63-1.7,5.84,5.84,0,0,1-1.7-4.51,5.69,5.69,0,0,1,1.7-4.39,6.57,6.57,0,0,1,4.63-1.58H548a6.77,6.77,0,0,0,3-.67,8.27,8.27,0,0,0,2.5-1.83,8.6,8.6,0,0,0,1.71-2.62,7.93,7.93,0,0,0,.61-3V69.3H568V89a18.65,18.65,0,0,1-1.59,7.62,20.57,20.57,0,0,1-4.32,6.33,21.38,21.38,0,0,1-6.4,4.39A18.55,18.55,0,0,1,548,109Z"></path></svg>