<svg width="24" height="24" viewBox="0 0 24 24" fill="none" xmlns="http://www.w3.org/2000/svg">
<path d="M7.38 11.5C6.86 11.5 6.38 11.37 5.94 11.11C5.5 10.85 5.15 10.4967 4.89 10.05C4.63 9.61 4.5 9.13 4.5 8.61V6.49H5.32V8.56C5.32 8.93333 5.41333 9.27667 5.6 9.59C5.78667 9.91 6.03667 10.1633 6.35 10.35C6.66333 10.5367 7.00667 10.63 7.38 10.63C7.75333 10.63 8.1 10.5367 8.42 10.35C8.74 10.1633 8.99333 9.91 9.18 9.59C9.36667 9.27667 9.46 8.93333 9.46 8.56V6.08H10.25V8.61C10.25 9.13 10.12 9.61 9.86 10.05C9.60667 10.4967 9.26 10.85 8.82 11.11C8.38667 11.37 7.90667 11.5 7.38 11.5ZM6.93 5.5H7.81V6.38H6.93V5.5ZM11.13 9.33C10.69 9.33 10.35 9.17333 10.11 8.86C9.87 8.54667 9.75 8.14667 9.75 7.66V6.08H10.29V7.63C10.29 7.85667 10.37 8.05333 10.53 8.22C10.6967 8.38 10.8967 8.46 11.13 8.46H13.59C13.6567 8.46 13.69 8.49333 13.69 8.56V9.23C13.69 9.29667 13.6567 9.33 13.59 9.33H11.13Z" fill="#343A40"/>
<path d="M17.55 9.35C17.1967 9.35 16.8767 9.26333 16.59 9.09C16.3033 8.91667 16.0767 8.68 15.91 8.38C15.75 8.08 15.67 7.75333 15.67 7.4V6.34H15.08V5.51H17.55C17.9033 5.51 18.23 5.59333 18.53 5.76C18.83 5.92667 19.0667 6.15333 19.24 6.44C19.4133 6.72667 19.5 7.04667 19.5 7.4C19.5 7.75333 19.4133 8.08 19.24 8.38C19.0667 8.68 18.83 8.91667 18.53 9.09C18.23 9.26333 17.9033 9.35 17.55 9.35ZM13.5927 9.33C13.5261 9.33 13.4927 9.29667 13.4927 9.23V8.56C13.4927 8.49333 13.5261 8.46 13.5927 8.46H14.83C15.0633 8.46 15.26 8.38 15.42 8.22C15.5867 8.05333 15.67 7.85667 15.67 7.63V6.55H16.33V7.66C16.33 7.96667 16.2667 8.24667 16.14 8.5C16.02 8.75333 15.8433 8.95667 15.61 9.11C15.3833 9.25667 15.1233 9.33 14.83 9.33H13.5927ZM17.55 8.48C17.85 8.48 18.1033 8.37667 18.31 8.17C18.5233 7.95667 18.63 7.7 18.63 7.4C18.63 7.10667 18.5233 6.85667 18.31 6.65C18.1033 6.44333 17.85 6.34 17.55 6.34H16.48V7.4C16.48 7.7 16.5833 7.95667 16.79 8.17C16.9967 8.37667 17.25 8.48 17.55 8.48Z" fill="#343A40"/>
<path d="M8.76902 17.7708C9.40902 17.4974 9.87569 17.2774 10.169 17.1108C10.469 16.9441 10.6857 16.7674 10.819 16.5808C10.9524 16.4008 11.019 16.1674 11.019 15.8808H9.94902C9.59569 15.8808 9.26902 15.7974 8.96902 15.6308C8.67569 15.4641 8.43902 15.2374 8.25902 14.9508C8.08569 14.6641 7.99902 14.3441 7.99902 13.9908C7.99902 13.6374 8.08569 13.3141 8.25902 13.0208C8.43902 12.7208 8.67569 12.4841 8.96902 12.3108C9.26902 12.1308 9.59569 12.0408 9.94902 12.0408C10.2957 12.0408 10.6157 12.1308 10.909 12.3108C11.2024 12.4841 11.4324 12.7208 11.599 13.0208C11.7657 13.3141 11.849 13.6374 11.849 13.9908V15.5708C11.849 16.0974 11.749 16.5241 11.549 16.8508C11.349 17.1774 11.0624 17.4508 10.689 17.6708C10.3224 17.8974 9.76569 18.1741 9.01902 18.5008L8.76902 17.7708ZM9.94902 15.0508H11.019V13.9808C11.019 13.6808 10.9157 13.4274 10.709 13.2208C10.5024 13.0074 10.249 12.9008 9.94902 12.9008C9.64902 12.9008 9.39569 13.0074 9.18902 13.2208C8.98236 13.4274 8.87902 13.6808 8.87902 13.9808C8.87902 14.2808 8.98236 14.5341 9.18902 14.7408C9.39569 14.9474 9.64902 15.0508 9.94902 15.0508ZM11.809 15.0108L13.6016 15.01C13.6683 15.01 13.7016 15.0433 13.7016 15.11V15.78C13.7016 15.8467 13.6683 15.88 13.6016 15.88L11.809 15.8808V15.0108Z" fill="#343A40"/>
<path d="M13.6004 15.88C13.5338 15.88 13.5004 15.8467 13.5004 15.78V15.11C13.5004 15.0433 13.5338 15.01 13.6004 15.01H14.3404C14.5738 15.01 14.7704 14.9267 14.9304 14.76C15.0971 14.5933 15.1804 14.39 15.1804 14.15V12.33H16.0004V14.2C16.0004 14.5067 15.9238 14.79 15.7704 15.05C15.6238 15.3033 15.4238 15.5067 15.1704 15.66C14.9171 15.8067 14.6371 15.88 14.3304 15.88H13.6004ZM13.6904 10.5H14.5704V11.38H13.6904V10.5ZM15.0904 10.5H15.9804V11.38H15.0904V10.5Z" fill="#343A40"/>
</svg>
