<svg width="17" height="16" viewBox="0 0 17 16" fill="none" xmlns="http://www.w3.org/2000/svg">
<path d="M8.50049 9.3335H9.16716C9.90049 9.3335 10.5005 8.7335 10.5005 8.00016V1.3335H4.50049C3.50049 1.3335 2.62716 1.88682 2.17383 2.70015" stroke="#292D32" stroke-linecap="round" stroke-linejoin="round"/>
<path d="M1.83301 11.3335C1.83301 12.4402 2.72634 13.3335 3.83301 13.3335H4.49967C4.49967 12.6002 5.09967 12.0002 5.83301 12.0002C6.56634 12.0002 7.16634 12.6002 7.16634 13.3335H9.83301C9.83301 12.6002 10.433 12.0002 11.1663 12.0002C11.8997 12.0002 12.4997 12.6002 12.4997 13.3335H13.1663C14.273 13.3335 15.1663 12.4402 15.1663 11.3335V9.3335H13.1663C12.7997 9.3335 12.4997 9.0335 12.4997 8.66683V6.66683C12.4997 6.30016 12.7997 6.00016 13.1663 6.00016H14.0263L12.8864 4.00684C12.6464 3.5935 12.2064 3.3335 11.7264 3.3335H10.4997V8.00016C10.4997 8.7335 9.89967 9.3335 9.16634 9.3335H8.49967" stroke="#292D32" stroke-linecap="round" stroke-linejoin="round"/>
<path d="M5.83333 14.6667C6.56971 14.6667 7.16667 14.0697 7.16667 13.3333C7.16667 12.597 6.56971 12 5.83333 12C5.09695 12 4.5 12.597 4.5 13.3333C4.5 14.0697 5.09695 14.6667 5.83333 14.6667Z" stroke="#292D32" stroke-linecap="round" stroke-linejoin="round"/>
<path d="M11.1663 14.6667C11.9027 14.6667 12.4997 14.0697 12.4997 13.3333C12.4997 12.597 11.9027 12 11.1663 12C10.43 12 9.83301 12.597 9.83301 13.3333C9.83301 14.0697 10.43 14.6667 11.1663 14.6667Z" stroke="#292D32" stroke-linecap="round" stroke-linejoin="round"/>
<path d="M15.1667 8V9.33333H13.1667C12.8 9.33333 12.5 9.03333 12.5 8.66667V6.66667C12.5 6.3 12.8 6 13.1667 6H14.0267L15.1667 8Z" stroke="#292D32" stroke-linecap="round" stroke-linejoin="round"/>
<path d="M1.83301 5.3335H5.83301" stroke="#292D32" stroke-linecap="round" stroke-linejoin="round"/>
<path d="M1.83301 7.3335H4.49967" stroke="#292D32" stroke-linecap="round" stroke-linejoin="round"/>
<path d="M1.83301 9.3335H3.16634" stroke="#292D32" stroke-linecap="round" stroke-linejoin="round"/>
</svg>
